<svg width="363" height="362" viewBox="0 0 363 362" fill="none" xmlns="http://www.w3.org/2000/svg">
<path d="M326 180.706C326 260.511 261.081 325.206 181 325.206C100.919 325.206 36 260.511 36 180.706C36 100.901 100.919 36.2061 181 36.2061C261.081 36.2061 326 100.901 326 180.706Z" stroke="white" stroke-width="1.05134"/>
<path d="M180.067 150.009L181.256 146.038L182.446 150.009C186.657 164.071 197.657 175.073 211.718 179.287L215.682 180.475L211.718 181.663C197.657 185.876 186.657 196.878 182.446 210.94L181.256 214.911L180.067 210.94C175.856 196.878 164.856 185.876 150.795 181.663L146.831 180.475L150.795 179.287C164.856 175.073 175.856 164.071 180.067 150.009Z" stroke="white" stroke-width="1.05134"/>
<path d="M339.136 183.445L355.904 184.485L355.029 198.594L338.261 197.554L338.37 195.806L354.084 196.78L353.576 197.205L354.291 185.684L354.742 186.168L339.028 185.194L339.136 183.445Z" fill="white"/>
<path d="M335.766 211.839C336.018 210.6 336.456 209.489 337.081 208.506C337.718 207.542 338.492 206.744 339.404 206.113C340.329 205.501 341.337 205.077 342.43 204.842C343.535 204.626 344.691 204.641 345.899 204.886C347.106 205.132 348.168 205.568 349.086 206.195C350.016 206.842 350.779 207.625 351.375 208.547C351.984 209.487 352.386 210.524 352.58 211.657C352.789 212.794 352.767 213.989 352.512 215.243C352.26 216.482 351.816 217.584 351.179 218.548C350.557 219.516 349.792 220.307 348.884 220.922C347.972 221.553 346.963 221.977 345.858 222.193C344.749 222.425 343.591 222.418 342.384 222.173C341.177 221.927 340.108 221.481 339.178 220.835C338.245 220.205 337.482 219.421 336.889 218.484C336.293 217.562 335.889 216.534 335.68 215.397C335.486 214.264 335.514 213.078 335.766 211.839ZM337.319 212.154C337.118 213.142 337.097 214.085 337.258 214.983C337.431 215.9 337.761 216.726 338.248 217.462C338.747 218.217 339.37 218.849 340.115 219.36C340.876 219.874 341.75 220.231 342.738 220.432C343.726 220.633 344.662 220.644 345.548 220.465C346.449 220.289 347.269 219.949 348.008 219.446C348.76 218.962 349.386 218.331 349.887 217.551C350.401 216.79 350.759 215.916 350.959 214.928C351.16 213.94 351.174 212.988 351.002 212.071C350.844 211.157 350.516 210.323 350.016 209.568C349.529 208.833 348.907 208.2 348.149 207.67C347.404 207.16 346.537 206.804 345.55 206.603C344.577 206.405 343.641 206.395 342.74 206.571C341.835 206.762 341.008 207.1 340.256 207.584C339.517 208.087 338.889 208.727 338.372 209.503C337.871 210.283 337.519 211.167 337.319 212.154Z" fill="white"/>
<path d="M329.648 236.771L343.258 241.546L345.92 233.96L342.118 232.473C340.941 232.009 339.82 231.531 338.755 231.039C337.7 230.567 336.771 230.072 335.97 229.553C335.178 229.055 334.572 228.537 334.15 227.999C333.723 227.476 333.56 226.927 333.66 226.351L334.643 224.636C334.401 225.23 334.445 225.805 334.775 226.361C335.1 226.933 335.648 227.473 336.42 227.981C337.186 228.504 338.116 229.017 339.212 229.52C340.307 230.023 341.503 230.528 342.801 231.034L347.878 233.019L344.128 243.708L329.068 238.424L329.648 236.771ZM329.845 222.291L334.842 224.07L328.89 241.032L323.885 239.276L324.433 237.714L327.989 238.961L332.844 225.124L329.296 223.854L329.845 222.291Z" fill="white"/>
<path d="M325.332 245.156L340.378 252.629L337.581 258.261C336.947 259.536 336.195 260.529 335.324 261.24C334.467 261.958 333.531 262.368 332.515 262.471C331.506 262.595 330.458 262.387 329.369 261.846C328.308 261.319 327.516 260.613 326.991 259.727C326.473 258.863 326.235 257.869 326.275 256.745C326.315 255.622 326.651 254.422 327.285 253.147L329.644 248.397L330.044 249.48L324.542 246.746L325.332 245.156ZM329.915 249.416L331.041 249.091L328.703 253.798C327.956 255.302 327.712 256.602 327.973 257.696C328.241 258.811 328.969 259.665 330.159 260.255C331.362 260.853 332.489 260.922 333.54 260.461C334.584 260.015 335.479 259.039 336.226 257.535L338.564 252.827L338.964 253.91L329.915 249.416Z" fill="white"/>
<path d="M312.412 267.918C313.115 266.868 313.943 266.007 314.894 265.334C315.849 264.684 316.869 264.24 317.952 264.003C319.04 263.788 320.134 263.779 321.234 263.977C322.338 264.197 323.402 264.649 324.426 265.335C325.449 266.021 326.266 266.828 326.877 267.757C327.492 268.708 327.9 269.723 328.102 270.801C328.308 271.902 328.285 273.014 328.034 274.136C327.797 275.267 327.322 276.364 326.609 277.428C325.906 278.478 325.076 279.328 324.121 279.979C323.179 280.638 322.17 281.079 321.096 281.303C320.013 281.541 318.919 281.549 317.814 281.329C316.701 281.123 315.633 280.677 314.609 279.991C313.585 279.306 312.766 278.487 312.151 277.536C311.528 276.599 311.119 275.584 310.927 274.492C310.725 273.413 310.743 272.308 310.98 271.177C311.231 270.055 311.709 268.968 312.412 267.918ZM313.728 268.8C313.167 269.637 312.79 270.502 312.597 271.393C312.409 272.307 312.401 273.197 312.572 274.062C312.747 274.95 313.083 275.772 313.578 276.528C314.087 277.292 314.76 277.955 315.597 278.516C316.435 279.077 317.297 279.442 318.184 279.613C319.085 279.792 319.972 279.79 320.847 279.605C321.726 279.443 322.545 279.096 323.305 278.566C324.07 278.057 324.732 277.384 325.293 276.546C325.854 275.709 326.229 274.833 326.417 273.92C326.619 273.015 326.632 272.118 326.456 271.23C326.285 270.365 325.95 269.543 325.45 268.765C324.955 268.01 324.288 267.352 323.451 266.791C322.627 266.239 321.764 265.873 320.864 265.693C319.955 265.527 319.06 265.525 318.181 265.688C317.307 265.872 316.483 266.225 315.709 266.747C314.949 267.278 314.289 267.962 313.728 268.8Z" fill="white"/>
<path d="M304.058 279.671L316.711 290.723L308.627 299.978L307.488 298.983L314.419 291.048L310.28 287.433L306.664 291.572C305.359 293.066 304.063 293.93 302.774 294.165C301.488 294.422 300.254 294.035 299.073 293.003C297.856 291.94 297.29 290.702 297.376 289.291C297.452 287.891 298.174 286.407 299.542 284.841L304.058 279.671ZM303.972 281.922L300.625 285.754C299.604 286.923 299.058 287.998 298.988 288.978C298.92 289.98 299.319 290.86 300.187 291.618C301.91 293.123 303.803 292.695 305.866 290.333L309.214 286.501L303.972 281.922Z" fill="white"/>
<path d="M293.287 314.391L291.977 315.554L280.828 302.986L282.139 301.823L293.287 314.391ZM290.003 294.847L291.332 293.669L302.48 306.237L301.151 307.415L290.003 294.847ZM287.158 307.734L295.291 300.519L296.326 301.686L288.193 308.901L287.158 307.734Z" fill="white"/>
<path d="M279.562 315.527L272.278 320.607L271.413 319.367L278.697 314.286L279.562 315.527ZM274.969 309.278L266.682 315.059L265.803 313.799L275.547 307.003L285.159 320.782L275.71 327.372L274.831 326.112L282.823 320.538L274.969 309.278Z" fill="white"/>
<path d="M264.758 325.154L256.977 329.433L256.248 328.108L264.03 323.829L264.758 325.154ZM260.855 318.454L252.001 323.322L251.261 321.976L261.671 316.252L269.766 330.974L259.671 336.524L258.931 335.178L267.469 330.484L260.855 318.454Z" fill="white"/>
<path d="M234.184 328.906C235.374 328.481 236.552 328.281 237.716 328.307C238.871 328.354 239.954 328.604 240.966 329.058C241.968 329.533 242.852 330.177 243.618 330.991C244.375 331.825 244.96 332.822 245.374 333.983C245.788 335.143 245.964 336.278 245.902 337.388C245.829 338.518 245.553 339.576 245.073 340.563C244.583 341.57 243.903 342.45 243.034 343.202C242.169 343.97 241.134 344.568 239.929 344.999C238.739 345.424 237.566 345.613 236.411 345.567C235.262 345.535 234.189 345.29 233.192 344.83C232.18 344.376 231.296 343.731 230.54 342.897C229.768 342.068 229.175 341.074 228.761 339.914C228.347 338.753 228.176 337.608 228.248 336.478C228.305 335.353 228.582 334.295 229.077 333.303C229.557 332.316 230.229 331.439 231.093 330.671C231.963 329.919 232.993 329.331 234.184 328.906ZM234.716 330.397C233.767 330.736 232.949 331.207 232.264 331.808C231.568 332.43 231.032 333.14 230.654 333.937C230.266 334.755 230.047 335.615 229.995 336.517C229.949 337.434 230.095 338.367 230.434 339.316C230.773 340.266 231.248 341.073 231.859 341.738C232.476 342.419 233.19 342.945 234.003 343.317C234.806 343.71 235.67 343.92 236.597 343.946C237.514 343.992 238.447 343.846 239.396 343.507C240.346 343.168 241.168 342.688 241.863 342.066C242.564 341.459 243.108 340.746 243.496 339.928C243.874 339.131 244.093 338.271 244.155 337.349C244.207 336.447 244.063 335.521 243.724 334.572C243.391 333.638 242.916 332.83 242.299 332.15C241.667 331.475 240.95 330.941 240.147 330.548C239.335 330.176 238.462 329.969 237.53 329.928C236.604 329.902 235.666 330.058 234.716 330.397Z" fill="white"/>
<path d="M203.083 336.794L210.909 343.907L209.643 345.01L201.075 337.152L203.083 336.794ZM214.401 334.776L217.349 351.316L215.648 351.619L212.7 335.08L214.401 334.776ZM214.571 342.571L214.845 344.107L209.671 345.03L209.397 343.494L214.571 342.571ZM209.32 344.02L210.977 344.017L206.268 353.291L204.378 353.628L209.32 344.02Z" fill="white"/>
<path d="M196.027 346.861L187.168 347.475L187.064 345.967L195.923 345.353L196.027 346.861ZM195.299 339.141L185.22 339.84L185.113 338.307L196.965 337.486L198.127 354.245L186.634 355.042L186.528 353.51L196.249 352.836L195.299 339.141Z" fill="white"/>
<path d="M179.666 338.341L178.826 355.12L177.076 355.032L177.772 341.13L166.338 354.495L164.732 354.414L165.571 337.635L167.321 337.723L166.627 351.602L178.06 338.26L179.666 338.341ZM171.766 355.992C172.964 356.052 173.901 356.371 174.577 356.95C175.237 357.527 175.551 358.304 175.518 359.28L174.2 359.214C174.216 358.574 174.001 358.058 173.556 357.667C173.095 357.276 172.481 357.061 171.714 357.023C170.947 356.984 170.323 357.137 169.841 357.482C169.343 357.825 169.07 358.316 169.022 358.955L167.704 358.889C167.769 357.915 168.166 357.173 168.896 356.665C169.627 356.157 170.583 355.933 171.766 355.992Z" fill="white"/>
<path d="M151.76 335.372C153.004 335.594 154.118 336.004 155.1 336.601C156.08 337.215 156.888 337.968 157.525 338.862C158.162 339.756 158.61 340.754 158.868 341.856C159.111 342.956 159.124 344.112 158.908 345.325C158.692 346.538 158.28 347.618 157.672 348.566C157.048 349.512 156.283 350.294 155.377 350.912C154.454 351.528 153.429 351.946 152.3 352.168C151.169 352.405 149.981 352.412 148.737 352.19C147.54 351.977 146.45 351.572 145.468 350.974C144.483 350.392 143.699 349.635 143.118 348.702L144.427 347.79C144.98 348.603 145.64 349.233 146.406 349.678C147.169 350.139 148.023 350.454 148.968 350.623C149.96 350.8 150.913 350.791 151.825 350.596C152.734 350.417 153.56 350.068 154.303 349.55C155.042 349.048 155.668 348.412 156.179 347.642C156.671 346.885 157.006 346.01 157.183 345.018C157.36 344.025 157.35 343.081 157.152 342.184C156.936 341.3 156.569 340.487 156.051 339.745C155.53 339.018 154.876 338.406 154.087 337.908C153.295 337.425 152.403 337.096 151.411 336.919C150.466 336.75 149.556 336.751 148.681 336.92C147.805 337.089 146.967 337.459 146.166 338.031L145.254 336.723C146.122 336.049 147.12 335.601 148.248 335.38C149.376 335.158 150.547 335.156 151.76 335.372Z" fill="white"/>
<path d="M142.999 333.847L130.78 347.7L129.103 347.193L126.621 328.888L128.413 329.43L130.596 346.567L129.907 346.358L141.23 333.311L142.999 333.847ZM138.804 337.266L137.881 338.491L128.532 335.66L128.444 334.129L138.804 337.266Z" fill="white"/>
<path d="M117.985 343.47L116.111 342.663L114.352 334.669L107.359 338.897L105.442 338.071L113.898 332.932L111.664 322.46L113.582 323.285L115.51 331.979L123.149 327.403L125.023 328.209L115.933 333.729L117.985 343.47Z" fill="white"/>
<path d="M102.197 317.424L93.1994 331.612L81.2615 324.041L90.2589 309.854L91.7385 310.792L83.3066 324.088L83.1786 323.438L92.9275 329.621L92.2853 329.782L100.717 316.486L102.197 317.424Z" fill="white"/>
<path d="M79.3029 301.06C80.2695 301.875 81.0348 302.791 81.5988 303.811C82.1402 304.832 82.4694 305.894 82.5863 306.996C82.6807 308.101 82.5693 309.189 82.2521 310.261C81.9123 311.335 81.3456 312.343 80.5517 313.285C79.7579 314.227 78.8659 314.95 77.8757 315.455C76.863 315.962 75.8094 316.256 74.715 316.338C73.5981 316.422 72.4957 316.278 71.4078 315.906C70.3097 315.545 69.2712 314.953 68.2923 314.128C67.3257 313.313 66.5716 312.396 66.0302 311.375C65.4785 310.366 65.1502 309.315 65.0455 308.223C64.9286 307.12 65.04 306.031 65.3798 304.958C65.7073 303.874 66.268 302.861 67.0618 301.919C67.8556 300.976 68.7589 300.252 69.7716 299.745C70.7721 299.228 71.8257 298.934 72.9323 298.862C74.0267 298.78 75.123 298.919 76.2212 299.279C77.309 299.652 78.3363 300.246 79.3029 301.06ZM78.2822 302.271C77.5114 301.622 76.6935 301.152 75.8285 300.863C74.9409 300.575 74.0575 300.469 73.1783 300.544C72.2764 300.621 71.4229 300.865 70.6176 301.274C69.802 301.696 69.0695 302.292 68.42 303.063C67.7705 303.834 67.3123 304.651 67.0454 305.514C66.7681 306.389 66.6732 307.272 66.7606 308.161C66.8254 309.053 67.0799 309.905 67.5241 310.719C67.9458 311.534 68.5421 312.267 69.3129 312.917C70.0838 313.566 70.913 314.035 71.8005 314.322C72.6778 314.622 73.5673 314.733 74.4691 314.656C75.3484 314.581 76.2019 314.338 77.0297 313.926C77.835 313.517 78.5624 312.927 79.2119 312.156C79.8511 311.397 80.3093 310.58 80.5865 309.705C80.8515 308.819 80.9516 307.931 80.8868 307.039C80.7994 306.15 80.5388 305.292 80.1049 304.466C79.6606 303.653 79.0531 302.921 78.2822 302.271Z" fill="white"/>
<path d="M60.3647 283.794L49.6757 293.479L55.0742 299.437L58.1944 296.804C59.1633 295.991 60.1181 295.234 61.0589 294.533C61.977 293.831 62.8551 293.251 63.6932 292.794C64.5087 292.335 65.2535 292.049 65.9274 291.935C66.5906 291.809 67.1511 291.928 67.609 292.29L68.6476 293.972C68.2415 293.477 67.7151 293.241 67.0682 293.266C66.4106 293.279 65.6746 293.503 64.8602 293.939C64.0351 294.362 63.1403 294.936 62.1758 295.658C61.2113 296.381 60.1972 297.192 59.1334 298.091L54.9673 301.607L47.3611 293.212L59.1883 282.496L60.3647 283.794ZM72.9971 290.873L69.0504 294.417L56.9804 281.096L60.911 277.534L62.0229 278.762L59.2306 281.292L69.0768 292.158L71.8851 289.646L72.9971 290.873Z" fill="white"/>
<path d="M54.941 275.862L41.1918 285.516L37.5785 280.37C36.7602 279.205 36.2467 278.07 36.038 276.965C35.8162 275.87 35.9026 274.851 36.2971 273.909C36.6693 272.964 37.353 272.142 38.3481 271.443C39.3171 270.762 40.3161 270.403 41.345 270.365C42.3516 270.323 43.339 270.587 44.3072 271.159C45.2753 271.73 46.1686 272.599 46.9869 273.764L50.0348 278.105L48.8922 277.939L53.9205 274.409L54.941 275.862ZM49.01 277.857L48.7581 279.001L45.7377 274.7C44.7723 273.325 43.7468 272.491 42.661 272.197C41.553 271.9 40.4555 272.133 39.3687 272.896C38.2688 273.669 37.6705 274.626 37.5738 275.769C37.468 276.899 37.8977 278.152 38.8631 279.527L41.8835 283.828L40.7409 283.663L49.01 277.857Z" fill="white"/>
<path d="M41.1336 253.726C41.721 254.845 42.0833 255.983 42.2205 257.14C42.3361 258.29 42.2398 259.397 41.9315 260.462C41.6016 261.521 41.0873 262.486 40.3888 263.359C39.6686 264.225 38.7631 264.944 37.6722 265.516C36.5813 266.089 35.4821 266.422 34.3746 266.515C33.2455 266.602 32.1588 266.476 31.1145 266.139C30.0485 265.795 29.0823 265.245 28.2158 264.489C27.3351 263.74 26.5974 262.8 26.0026 261.666C25.4152 260.547 25.0637 259.412 24.9481 258.262C24.8184 257.12 24.9113 256.023 25.2271 254.972C25.5354 253.907 26.0496 252.941 26.7698 252.075C27.4825 251.195 28.3843 250.469 29.4752 249.897C30.5661 249.324 31.6761 248.995 32.8052 248.908C33.9268 248.807 35.0135 248.933 36.0653 249.284C37.1097 249.621 38.0722 250.164 38.9529 250.913C39.8194 251.669 40.5463 252.606 41.1336 253.726ZM39.731 254.462C39.2626 253.569 38.6827 252.825 37.9911 252.231C37.2779 251.629 36.5001 251.197 35.6576 250.935C34.7935 250.665 33.9113 250.568 33.011 250.643C32.0965 250.725 31.193 251.001 30.3005 251.469C29.4079 251.938 28.6751 252.521 28.1019 253.219C27.5146 253.925 27.0934 254.706 26.8382 255.563C26.5615 256.413 26.4751 257.298 26.579 258.22C26.6614 259.134 26.9368 260.037 27.4052 260.93C27.8736 261.823 28.4644 262.57 29.1775 263.171C29.8766 263.78 30.6581 264.219 31.5222 264.488C32.3647 264.751 33.2469 264.848 34.1688 264.78C35.0691 264.705 35.9655 264.433 36.8581 263.965C37.7365 263.504 38.4693 262.921 39.0566 262.215C39.6365 261.495 40.0648 260.71 40.3416 259.86C40.5967 259.004 40.6794 258.111 40.5896 257.182C40.4856 256.261 40.1994 255.354 39.731 254.462Z" fill="white"/>
<path d="M34.7416 240.71L18.9747 246.51L14.7321 234.978L16.1511 234.456L19.7888 244.344L24.9468 242.447L23.0493 237.289C22.3642 235.427 22.2279 233.874 22.6401 232.631C23.0319 231.379 23.9635 230.482 25.4351 229.941C26.9517 229.383 28.3088 229.48 29.5064 230.233C30.6984 230.971 31.6535 232.316 32.3717 234.268L34.7416 240.71ZM32.8078 239.555L31.051 234.779C30.5152 233.323 29.8341 232.329 29.0078 231.798C28.161 231.257 27.197 231.185 26.1158 231.583C23.9685 232.373 23.4363 234.239 24.519 237.183L26.2758 241.958L32.8078 239.555Z" fill="white"/>
<path d="M9.50354 214.977L9.10865 213.271L25.4763 209.484L25.8712 211.191L9.50354 214.977ZM28.2406 221.432L28.6409 223.163L12.2732 226.949L11.8729 225.219L28.2406 221.432ZM18.2808 212.774L20.7314 223.367L19.2115 223.718L16.761 213.126L18.2808 212.774Z" fill="white"/>
<path d="M15.0772 202.393L14.1175 193.565L15.6206 193.401L16.5804 202.229L15.0772 202.393ZM22.7631 201.364L21.671 191.319L23.198 191.153L24.482 202.964L7.78044 204.779L6.53533 193.327L8.06234 193.161L9.11549 202.848L22.7631 201.364Z" fill="white"/>
<path d="M13.712 184.29V175.41H15.224V184.29H13.712ZM21.464 184.098V173.994H23V185.874H6.2L6.2 174.354H7.736L7.736 184.098H21.464Z" fill="white"/>
<path d="M25.1564 155.517C24.9523 156.764 24.5571 157.891 23.9708 158.898C23.3714 159.886 22.6281 160.713 21.741 161.378C20.8407 162.025 19.849 162.487 18.7661 162.764C17.67 163.022 16.514 163.052 15.2982 162.853C14.0824 162.654 13.0041 162.259 12.0633 161.667C11.1093 161.057 10.3166 160.303 9.68534 159.405C9.04083 158.489 8.59987 157.468 8.36246 156.343C8.10926 155.216 8.08602 154.02 8.29274 152.757C8.49687 151.51 8.89867 150.392 9.49812 149.404C10.0818 148.413 10.8159 147.593 11.7004 146.943C12.5875 146.278 13.5792 145.816 14.6753 145.557C15.774 145.283 16.9312 145.246 18.1471 145.444C19.3629 145.643 20.4478 146.048 21.4018 146.658C22.3584 147.252 23.151 148.006 23.7797 148.92C24.4111 149.818 24.8533 150.83 25.1065 151.958C25.3439 153.083 25.3606 154.269 25.1564 155.517ZM23.5932 155.261C23.756 154.266 23.7401 153.323 23.5454 152.432C23.3376 151.523 22.9762 150.71 22.4611 149.993C21.9329 149.258 21.2867 148.65 20.5224 148.168C19.7424 147.684 18.855 147.36 17.8602 147.197C16.8655 147.034 15.9291 147.06 15.0512 147.273C14.1575 147.483 13.351 147.854 12.6319 148.384C11.8995 148.897 11.2978 149.552 10.8266 150.351C10.3423 151.131 10.0187 152.018 9.85594 153.013C9.69315 154.008 9.71568 154.96 9.92352 155.869C10.1156 156.776 10.4757 157.597 11.004 158.332C11.519 159.049 12.1652 159.657 12.9427 160.157C13.7069 160.639 14.5864 160.961 15.5812 161.124C16.5601 161.284 17.4965 161.259 18.3902 161.049C19.2865 160.822 20.1008 160.453 20.8332 159.941C21.5524 159.41 22.1554 158.746 22.6423 157.951C23.1135 157.152 23.4304 156.256 23.5932 155.261Z" fill="white"/>
<path d="M33.3192 124.302L23.3035 127.697L22.9526 126.054L33.9801 122.372L33.3192 124.302ZM29.5951 135.178L13.7011 129.736L14.2608 128.101L30.1549 133.543L29.5951 135.178ZM22.6953 131.547L21.2194 131.042L22.9221 126.069L24.398 126.575L22.6953 131.547ZM23.9756 126.252L23.1744 127.703L17.3474 119.087L17.9694 117.27L23.9756 126.252Z" fill="white"/>
<path d="M27.8362 113.435L31.6079 105.396L32.9767 106.038L29.205 114.077L27.8362 113.435ZM34.9358 116.554L39.2273 107.406L40.6179 108.059L35.572 118.814L20.3627 111.678L25.2557 101.249L26.6463 101.901L22.5076 110.723L34.9358 116.554Z" fill="white"/>
<path d="M42.8025 103.955L28.543 95.0721L29.4694 93.5851L41.2844 100.945L35.1545 84.459L36.0047 83.0941L50.2642 91.9771L49.3379 93.4642L37.5432 86.1167L43.6528 102.59L42.8025 103.955ZM31.2096 88.4767C30.5751 89.4952 29.8409 90.1594 29.0069 90.4693C28.1814 90.7657 27.3502 90.6626 26.5133 90.1601L27.2113 89.0397C27.7629 89.3645 28.3176 89.4273 28.8753 89.2281C29.4415 89.0152 29.9276 88.5829 30.3337 87.931C30.7397 87.2792 30.9093 86.659 30.8423 86.0706C30.7837 85.4686 30.4871 84.9916 29.9523 84.6397L30.6502 83.5193C31.4702 84.0489 31.9249 84.7563 32.0144 85.6415C32.1039 86.5267 31.8356 87.4717 31.2096 88.4767Z" fill="white"/>
<path d="M58.772 81.1161C57.9757 82.0977 57.0783 82.8738 56.0799 83.4442C55.0691 84.0045 54.0185 84.3472 52.9281 84.4722C51.8378 84.5972 50.7476 84.5061 49.6577 84.1988C48.5779 83.879 47.5596 83.3311 46.6029 82.5549C45.6461 81.7788 44.9 80.8953 44.3645 79.9046C43.8391 78.9015 43.5251 77.8536 43.4226 76.7609C43.3302 75.6558 43.4602 74.556 43.8125 73.4614C44.1524 72.3567 44.7205 71.3136 45.5168 70.332C46.2829 69.3876 47.1651 68.6302 48.1636 68.0598C49.1496 67.4793 50.1913 67.1603 51.2886 67.1028L51.454 68.6895C50.4738 68.7803 49.6036 69.0529 48.8434 69.5075C48.0707 69.9521 47.382 70.5471 46.7771 71.2926C46.1421 72.0754 45.6891 72.9132 45.4181 73.8059C45.1347 74.6886 45.04 75.58 45.1338 76.4802C45.2152 77.3704 45.4692 78.2255 45.8959 79.0455C46.3203 79.843 46.9239 80.5593 47.7067 81.1944C48.4895 81.8294 49.321 82.2774 50.2013 82.5382C51.0793 82.7766 51.9684 82.8489 52.8686 82.7551C53.7564 82.6512 54.6091 82.3746 55.4268 81.9254C56.2321 81.4661 56.9522 80.8451 57.5873 80.0623C58.1921 79.3168 58.6323 78.5201 58.908 77.6724C59.1836 76.8247 59.2648 75.9119 59.1515 74.9341L60.7382 74.7688C60.9082 75.8544 60.8171 76.9445 60.4648 78.0391C60.1124 79.1337 59.5482 80.1594 58.772 81.1161Z" fill="white"/>
<path d="M64.6709 73.7725L58.503 56.3604L59.7617 55.1418L76.9651 61.8698L75.6202 63.1719L59.5829 56.7513L60.1002 56.2505L65.9986 72.487L64.6709 73.7725ZM63.7218 68.4446L63.0995 67.0428L70.1174 60.2484L71.4983 60.9157L63.7218 68.4446Z" fill="white"/>
<path d="M67.8591 47.6333L69.4705 46.3824L77.3199 48.7049L76.9968 40.5396L78.6461 39.2592L79.0602 49.1464L89.3085 52.25L87.6591 53.5304L79.1154 51.0178L79.4314 59.9178L77.82 61.1687L77.3792 50.5426L67.8591 47.6333Z" fill="white"/>
<path d="M98.1547 46.3553L90.0606 31.6337L102.448 24.823L110.542 39.5446L109.007 40.3887L101.421 26.5925L102.052 26.7934L91.9363 32.3553L92.1046 31.7149L99.69 45.5112L98.1547 46.3553Z" fill="white"/>
<path d="M124.035 33.909C122.855 34.3606 121.682 34.5865 120.517 34.5867C119.361 34.5662 118.273 34.3402 117.251 33.9088C116.239 33.4566 115.341 32.8324 114.556 32.036C113.781 31.219 113.174 30.2352 112.733 29.0845C112.293 27.9338 112.092 26.8031 112.13 25.6924C112.176 24.561 112.429 23.4965 112.887 22.4991C113.354 21.481 114.014 20.5862 114.866 19.8146C115.713 19.0281 116.734 18.4062 117.93 17.9489C119.11 17.4973 120.278 17.2817 121.434 17.3022C122.584 17.3077 123.662 17.529 124.669 17.9662C125.69 18.3977 126.589 19.0219 127.364 19.8389C128.154 20.6502 128.769 21.6312 129.209 22.7819C129.649 23.9326 129.846 25.0736 129.799 26.205C129.767 27.3307 129.515 28.3952 129.042 29.3983C128.584 30.3957 127.932 31.2877 127.085 32.0742C126.232 32.8457 125.216 33.4573 124.035 33.909ZM123.469 32.4295C124.411 32.0694 125.217 31.5809 125.889 30.9641C126.571 30.3266 127.091 29.605 127.451 28.7992C127.82 27.9728 128.02 27.1082 128.052 26.2053C128.078 25.2875 127.91 24.3579 127.55 23.4164C127.19 22.475 126.697 21.6786 126.071 21.0273C125.439 20.361 124.713 19.8508 123.892 19.4967C123.081 19.1219 122.212 18.9319 121.285 18.9268C120.367 18.901 119.437 19.0682 118.496 19.4283C117.554 19.7885 116.743 20.2873 116.062 20.9248C115.375 21.5473 114.847 22.2718 114.478 23.0982C114.118 23.9039 113.918 24.7686 113.877 25.6921C113.845 26.5949 114.01 27.5171 114.37 28.4585C114.724 29.3851 115.217 30.1815 115.849 30.8477C116.496 31.5083 117.225 32.0259 118.036 32.4007C118.857 32.7549 119.734 32.942 120.666 32.9621C121.594 32.9672 122.528 32.7897 123.469 32.4295Z" fill="white"/>
<path d="M148.335 25.6718L145.051 11.6266L137.222 13.4573L138.011 17.4629C138.252 18.7046 138.451 19.9069 138.608 21.0697C138.777 22.2133 138.858 23.2624 138.851 24.217C138.856 25.1524 138.745 25.9425 138.518 26.5871C138.306 27.2282 137.931 27.661 137.392 27.8856L135.417 27.9777C136.047 27.8631 136.509 27.517 136.801 26.9393C137.108 26.358 137.269 25.6056 137.284 24.6821C137.313 23.755 137.246 22.6945 137.082 21.5005C136.918 20.3065 136.7 19.0263 136.43 17.66L135.377 12.3113L146.407 9.73206L150.041 25.2729L148.335 25.6718ZM136.017 33.2845L134.833 28.1143L152.336 24.0214L153.544 29.186L151.932 29.5631L151.074 25.8941L136.795 29.2329L137.629 32.9074L136.017 33.2845Z" fill="white"/>
<path d="M157.082 24.8532L155.278 8.15033L161.53 7.47512C162.946 7.32221 164.188 7.42144 165.255 7.7728C166.322 8.10825 167.172 8.67627 167.805 9.47686C168.453 10.2598 168.842 11.2558 168.973 12.4648C169.1 13.6419 168.931 14.6901 168.467 15.6092C168.018 16.5107 167.309 17.2471 166.34 17.8184C165.372 18.3897 164.18 18.7517 162.764 18.9047L157.491 19.4742L158.188 18.554L158.848 24.6625L157.082 24.8532ZM158.204 18.6972L157.324 17.9232L162.549 17.3588C164.219 17.1784 165.445 16.6839 166.227 15.8753C167.023 15.0491 167.35 13.9758 167.207 12.6555C167.063 11.3192 166.514 10.3325 165.56 9.69525C164.622 9.05628 163.317 8.827 161.647 9.0074L156.422 9.57179L157.119 8.6516L158.204 18.6972Z" fill="white"/>
<path d="M183.921 23.3733C182.657 23.3441 181.486 23.109 180.408 22.668C179.347 22.2114 178.425 21.5899 177.643 20.8037C176.877 20.0018 176.282 19.0838 175.858 18.0497C175.45 17 175.26 15.8594 175.288 14.6277C175.317 13.396 175.559 12.2733 176.014 11.2595C176.486 10.2302 177.123 9.34062 177.925 8.59092C178.742 7.82559 179.692 7.24735 180.773 6.85621C181.855 6.44907 183.036 6.26027 184.315 6.28981C185.579 6.31898 186.742 6.56189 187.803 7.01851C188.866 7.45914 189.78 8.07241 190.546 8.8583C191.328 9.64456 191.923 10.5625 192.331 11.6122C192.754 12.6623 192.952 13.8032 192.924 15.0348C192.895 16.2665 192.645 17.397 192.173 18.4264C191.717 19.4562 191.081 20.3457 190.263 21.095C189.462 21.8447 188.52 22.4232 187.438 22.8303C186.357 23.2214 185.185 23.4024 183.921 23.3733ZM183.957 21.7897C184.965 21.8129 185.897 21.6664 186.752 21.3501C187.624 21.0181 188.379 20.5474 189.018 19.938C189.672 19.3129 190.185 18.5886 190.556 17.7649C190.928 16.9253 191.125 16.0016 191.148 14.9938C191.172 13.9861 191.017 13.0623 190.684 12.2224C190.352 11.3665 189.873 10.6192 189.247 9.98063C188.638 9.3264 187.906 8.82136 187.05 8.4655C186.21 8.09403 185.286 7.89665 184.279 7.87339C183.271 7.85012 182.331 8.00447 181.459 8.33644C180.588 8.65241 179.825 9.12292 179.17 9.74798C178.532 10.3574 178.019 11.0818 177.632 11.921C177.26 12.7447 177.063 13.6604 177.04 14.6681C177.017 15.6599 177.172 16.5837 177.504 17.4396C177.852 18.2958 178.331 19.0511 178.94 19.7053C179.566 20.3439 180.306 20.8492 181.162 21.221C182.018 21.5769 182.95 21.7664 183.957 21.7897Z" fill="white"/>
<path d="M198.168 23.9806L200.674 7.36845L212.824 9.2011L212.599 10.6962L202.18 9.12484L201.361 14.5594L206.795 15.3791C208.757 15.6749 210.183 16.3027 211.074 17.2623C211.983 18.2084 212.321 19.4568 212.087 21.0072C211.846 22.6051 211.107 23.7478 209.871 24.4351C208.651 25.1247 207.012 25.3145 204.955 25.0043L198.168 23.9806ZM200.112 22.8417L205.143 23.6005C206.677 23.832 207.876 23.7135 208.74 23.245C209.622 22.7632 210.148 21.9527 210.32 20.8135C210.661 18.5511 209.282 17.1861 206.181 16.7184L201.15 15.9595L200.112 22.8417Z" fill="white"/>
<path d="M233.115 14.2261L234.801 14.7021L230.237 30.8702L228.55 30.3942L233.115 14.2261ZM218.434 27.5382L216.725 27.0556L221.289 10.8876L222.998 11.3701L218.434 27.5382ZM230.818 22.9794L220.355 20.0256L220.779 18.5243L231.242 21.4781L230.818 22.9794Z" fill="white"/>
<path d="M241.884 25.2614L250.079 28.6805L249.497 30.0759L241.302 26.6568L241.884 25.2614ZM239.076 32.4897L248.401 36.38L247.81 37.7976L236.846 33.2235L243.314 17.7187L253.946 22.1542L253.355 23.5718L244.362 19.82L239.076 32.4897Z" fill="white"/>
<path d="M258.452 32.7897L266.233 37.068L265.505 38.393L257.723 34.1146L258.452 32.7897ZM254.885 39.6751L263.739 44.5432L262.999 45.8892L252.589 40.1655L260.683 25.4439L270.778 30.9942L270.038 32.3401L261.499 27.6455L254.885 39.6751Z" fill="white"/>
<path d="M278.08 56.6156C277.084 55.8369 276.286 54.9485 275.686 53.9505C275.107 52.9498 274.74 51.9005 274.583 50.8027C274.448 49.7022 274.52 48.6106 274.798 47.528C275.098 46.4427 275.628 45.4148 276.387 44.4444C277.146 43.474 278.011 42.7186 278.983 42.1781C279.976 41.635 281.018 41.3024 282.109 41.1805C283.222 41.0559 284.329 41.1599 285.43 41.4927C286.54 41.8129 287.6 42.3673 288.608 43.1559C289.603 43.9346 290.39 44.8244 290.969 45.8251C291.557 46.8132 291.923 47.8513 292.067 48.9392C292.224 50.037 292.153 51.1286 291.852 52.2139C291.564 53.3091 291.041 54.3419 290.282 55.3123C289.523 56.2827 288.646 57.0395 287.653 57.5827C286.672 58.1357 285.63 58.4682 284.526 58.5803C283.436 58.7022 282.335 58.6031 281.224 58.2829C280.124 57.9501 279.076 57.3943 278.08 56.6156ZM279.056 55.3679C279.85 55.989 280.684 56.4284 281.559 56.6862C282.457 56.9412 283.343 57.0152 284.219 56.9081C285.118 56.7983 285.962 56.5242 286.752 56.0857C287.551 55.6346 288.262 55.0121 288.883 54.2181C289.504 53.4242 289.932 52.5911 290.167 51.7189C290.413 50.834 290.475 49.9487 290.356 49.0629C290.258 48.1744 289.973 47.3316 289.5 46.5346C289.048 45.7349 288.426 45.0246 287.632 44.4035C286.838 43.7825 285.992 43.3445 285.095 43.0894C284.207 42.8218 283.314 42.7429 282.416 42.8527C281.54 42.9597 280.696 43.2339 279.884 43.6751C279.094 44.1136 278.388 44.7298 277.767 45.5238C277.156 46.3052 276.728 47.1382 276.483 48.0231C276.25 48.9177 276.182 49.8093 276.28 50.6979C276.399 51.5837 276.691 52.4314 277.155 53.2409C277.628 54.0379 278.262 54.7469 279.056 55.3679Z" fill="white"/>
<path d="M301.404 78.5568L303.2 68.1352L304.811 68.6104L302.784 80.0585L301.404 78.5568ZM293.623 70.094L305.99 58.7234L307.16 59.9955L294.793 71.3661L293.623 70.094ZM300.107 65.7632L301.255 64.7073L304.812 68.5765L303.664 69.6324L300.107 65.7632ZM304.149 69.4149L303.256 68.0186L313.609 67.0095L314.908 68.4229L304.149 69.4149Z" fill="white"/>
<path d="M313.312 78.5598L318.599 85.6942L317.384 86.5945L312.097 79.46L313.312 78.5598ZM307.198 83.3296L313.214 91.4474L311.98 92.362L304.907 82.8173L318.404 72.8145L325.263 82.0699L324.029 82.9845L318.228 75.1559L307.198 83.3296Z" fill="white"/>
<path d="M315.009 96.921L329.617 88.6233L330.482 90.1467L318.379 97.0219L335.793 99.4957L336.587 100.894L321.979 109.192L321.114 107.668L333.197 100.805L315.803 98.3191L315.009 96.921ZM334.143 94.1123C333.55 93.0689 333.316 92.1068 333.442 91.226C333.575 90.3591 334.062 89.6776 334.903 89.1817L335.555 90.3294C335.006 90.6594 334.686 91.117 334.595 91.7023C334.513 92.3014 334.661 92.9348 335.04 93.6026C335.419 94.2704 335.884 94.7152 336.433 94.9369C336.99 95.1725 337.551 95.1392 338.115 94.837L338.767 95.9847C337.91 96.4529 337.072 96.5152 336.251 96.1718C335.43 95.8283 334.728 95.1418 334.143 94.1123Z" fill="white"/>
<path d="M327.558 122.128C327.077 120.959 326.826 119.799 326.803 118.65C326.795 117.494 326.997 116.407 327.409 115.39C327.821 114.373 328.423 113.46 329.214 112.65C330.012 111.855 330.98 111.223 332.12 110.754C333.259 110.286 334.392 110.054 335.518 110.058C336.651 110.077 337.721 110.303 338.729 110.736C339.744 111.184 340.647 111.824 341.44 112.657C342.247 113.485 342.891 114.483 343.372 115.652C343.834 116.776 344.077 117.913 344.099 119.063C344.137 120.207 343.919 121.274 343.444 122.265L341.972 121.651C342.361 120.747 342.538 119.852 342.503 118.967C342.483 118.076 342.29 117.186 341.925 116.298C341.541 115.366 341.023 114.567 340.369 113.902C339.729 113.231 338.992 112.721 338.157 112.372C337.336 112.018 336.464 111.831 335.54 111.814C334.636 111.804 333.718 111.992 332.786 112.375C331.854 112.758 331.063 113.274 330.412 113.922C329.783 114.579 329.293 115.325 328.945 116.16C328.611 116.989 328.446 117.87 328.449 118.803C328.467 119.73 328.667 120.66 329.051 121.592C329.416 122.48 329.904 123.248 330.517 123.895C331.129 124.543 331.892 125.051 332.804 125.42L332.19 126.892C331.155 126.522 330.242 125.92 329.449 125.087C328.657 124.253 328.027 123.267 327.558 122.128Z" fill="white"/>
<path d="M330.827 129.808L349.076 132.673L349.549 134.36L335.442 146.286L334.937 144.484L348.218 133.437L348.412 134.13L331.326 131.588L330.827 129.808ZM335.965 131.51L337.494 131.63L340.128 141.036L338.884 141.933L335.965 131.51Z" fill="white"/>
<path d="M352.5 146.11L352.821 148.125L347.01 153.889L354.324 157.534L354.653 159.595L345.786 155.203L338.135 162.695L337.806 160.633L344.118 154.351L336.164 150.348L335.842 148.333L345.37 153.058L352.5 146.11Z" fill="white"/>
</svg>
