<svg width="149" height="31" viewBox="0 0 149 31" fill="none" xmlns="http://www.w3.org/2000/svg">
<path d="M13.75 1.75L10 11.75L0 15.5L10 19.25L13.75 29.25L17.5 19.25L27.5 15.5L17.5 11.75L13.75 1.75Z" fill="url(#paint0_linear_14_97)"/>
<path d="M47.65 6.3H45.55V21H47.65V14.7H58.15V21H60.25V6.3H58.15V12.6H47.65V6.3ZM73.8959 8.4C75.0509 8.4 75.9959 9.345 75.9959 10.5V14.7H65.4959V10.5C65.4959 9.345 66.4409 8.4 67.5959 8.4H73.8959ZM78.0959 10.5C78.0329 8.169 76.1429 6.3 73.8959 6.3H67.5959C65.2439 6.3 63.3959 8.274 63.3959 10.5V21H65.4959V16.8H75.9959V21H78.0959V10.5ZM80.6118 14.7H90.0618V12.6H80.6118V14.7ZM97.3117 21H101.302L106.657 10.5V6.3H104.557V9.996L100.021 18.9H98.5927L94.0567 9.996V6.3H91.9567V10.5L97.3117 21ZM109.182 21H111.282V6.3H109.182V21ZM124.936 21C127.288 20.937 129.136 19.068 129.136 16.8C129.136 15.54 128.653 14.49 127.708 13.65C128.653 12.81 129.136 11.76 129.136 10.5C129.136 8.169 127.141 6.3 124.936 6.3H114.436V21H124.936ZM124.936 14.7C126.091 14.7 127.036 15.645 127.036 16.8C127.036 17.955 126.091 18.9 124.936 18.9H116.536V14.7H124.936ZM116.536 8.4H124.936C126.091 8.4 127.036 9.345 127.036 10.5C127.036 11.655 126.091 12.6 124.936 12.6H116.536V8.4ZM134.177 8.4H146.777V6.3H132.077V21H146.777V18.9H134.177V14.7H144.677V12.6H134.177V8.4Z" fill="white"/>
<defs>
<linearGradient id="paint0_linear_14_97" x1="1.30877" y1="4.64473" x2="29.5488" y2="5.7458" gradientUnits="userSpaceOnUse">
<stop stop-color="#9600FF"/>
<stop offset="0.601514" stop-color="#AD6CFF"/>
</linearGradient>
</defs>
</svg>
