<svg width="143" height="32" viewBox="0 0 143 32" fill="none" xmlns="http://www.w3.org/2000/svg">
<path d="M15.2002 2.55078L11.4502 12.5508L1.4502 16.3008L11.4502 20.0508L15.2002 30.0508L18.9502 20.0508L28.9502 16.3008L18.9502 12.5508L15.2002 2.55078Z" fill="url(#paint0_linear_203_281)"/>
<path d="M41.3502 7.10078H39.2502V21.8008H41.3502V15.5008H51.8502V21.8008H53.9502V7.10078H51.8502V13.4008H41.3502V7.10078ZM67.5961 9.20078C68.7511 9.20078 69.6961 10.1458 69.6961 11.3008V15.5008H59.1961V11.3008C59.1961 10.1458 60.1411 9.20078 61.2961 9.20078H67.5961ZM71.7961 11.3008C71.7331 8.96978 69.8431 7.10078 67.5961 7.10078H61.2961C58.9441 7.10078 57.0961 9.07478 57.0961 11.3008V21.8008H59.1961V17.6008H69.6961V21.8008H71.7961V11.3008ZM74.312 15.5008H83.762V13.4008H74.312V15.5008ZM91.0119 21.8008H95.0019L100.357 11.3008V7.10078H98.2569V10.7968L93.7209 19.7008H92.2929L87.7569 10.7968V7.10078H85.6569V11.3008L91.0119 21.8008ZM102.882 21.8008H104.982V7.10078H102.882V21.8008ZM118.636 21.8008C120.988 21.7378 122.836 19.8688 122.836 17.6008C122.836 16.3408 122.353 15.2908 121.408 14.4508C122.353 13.6108 122.836 12.5608 122.836 11.3008C122.836 8.96978 120.841 7.10078 118.636 7.10078H108.136V21.8008H118.636ZM118.636 15.5008C119.791 15.5008 120.736 16.4458 120.736 17.6008C120.736 18.7558 119.791 19.7008 118.636 19.7008H110.236V15.5008H118.636ZM110.236 9.20078H118.636C119.791 9.20078 120.736 10.1458 120.736 11.3008C120.736 12.4558 119.791 13.4008 118.636 13.4008H110.236V9.20078ZM127.877 9.20078H140.477V7.10078H125.777V21.8008H140.477V19.7008H127.877V15.5008H138.377V13.4008H127.877V9.20078Z" fill="white"/>
<defs>
<linearGradient id="paint0_linear_203_281" x1="2.75897" y1="5.44551" x2="30.9989" y2="6.54658" gradientUnits="userSpaceOnUse">
<stop stop-color="#2FFE5C"/>
<stop offset="0.601514" stop-color="#5EFF5E"/>
</linearGradient>
</defs>
</svg>
