<svg width="858" height="51" viewBox="0 0 858 51" fill="none" xmlns="http://www.w3.org/2000/svg">
<path d="M674.122 34V16H676.772L685.635 29.375V16H688.285V34H685.635L676.772 20.6125V34H674.122ZM690.523 34L696.373 16H700.136L705.986 34H703.273L697.886 17.575H698.561L693.236 34H690.523ZM693.561 29.9375V27.4875H702.961V29.9375H693.561ZM707.979 26.0375V23.9375H715.479V26.0375H707.979ZM722.952 34L717.102 16H719.814L724.802 31.3625L729.852 16H732.564L726.714 34H722.952ZM734.699 34V16H737.312V34H734.699ZM741.065 34V16H748.14C749.282 16 750.24 16.2333 751.015 16.7C751.79 17.1667 752.374 17.7708 752.765 18.5125C753.157 19.2458 753.353 20.0208 753.353 20.8375C753.353 21.8292 753.107 22.6792 752.615 23.3875C752.132 24.0958 751.478 24.5792 750.653 24.8375L750.628 24.225C751.778 24.5083 752.661 25.0625 753.278 25.8875C753.895 26.7042 754.203 27.6583 754.203 28.75C754.203 29.8083 753.99 30.7292 753.565 31.5125C753.149 32.2958 752.536 32.9083 751.728 33.35C750.928 33.7833 749.957 34 748.815 34H741.065ZM743.715 31.5125H748.415C749.007 31.5125 749.536 31.4 750.003 31.175C750.478 30.95 750.849 30.6292 751.115 30.2125C751.39 29.7875 751.528 29.2833 751.528 28.7C751.528 28.1583 751.407 27.6708 751.165 27.2375C750.932 26.7958 750.59 26.45 750.14 26.2C749.699 25.9417 749.178 25.8125 748.578 25.8125H743.715V31.5125ZM743.715 23.35H748.103C748.586 23.35 749.02 23.2542 749.403 23.0625C749.795 22.8625 750.103 22.5792 750.328 22.2125C750.561 21.8375 750.678 21.3875 750.678 20.8625C750.678 20.1625 750.445 19.5875 749.978 19.1375C749.511 18.6875 748.886 18.4625 748.103 18.4625H743.715V23.35ZM756.69 34V16H768.19V18.4625H759.303V23.5125H766.69V25.975H759.303V31.5375H768.19V34H756.69ZM771.642 34V31.2375H774.405V34H771.642ZM785.858 34.375C784.058 34.375 782.525 33.9833 781.258 33.2C779.992 32.4083 779.021 31.3083 778.346 29.9C777.679 28.4917 777.346 26.8583 777.346 25C777.346 23.1417 777.679 21.5083 778.346 20.1C779.021 18.6917 779.992 17.5958 781.258 16.8125C782.525 16.0208 784.058 15.625 785.858 15.625C787.933 15.625 789.65 16.15 791.008 17.2C792.375 18.25 793.325 19.6625 793.858 21.4375L791.208 22.15C790.858 20.8917 790.233 19.9042 789.333 19.1875C788.442 18.4708 787.283 18.1125 785.858 18.1125C784.583 18.1125 783.521 18.4 782.671 18.975C781.821 19.55 781.179 20.3542 780.746 21.3875C780.321 22.4208 780.108 23.625 780.108 25C780.1 26.375 780.308 27.5792 780.733 28.6125C781.167 29.6458 781.808 30.45 782.658 31.025C783.517 31.6 784.583 31.8875 785.858 31.8875C787.283 31.8875 788.442 31.5292 789.333 30.8125C790.233 30.0875 790.858 29.1 791.208 27.85L793.858 28.5625C793.325 30.3375 792.375 31.75 791.008 32.8C789.65 33.85 787.933 34.375 785.858 34.375ZM804.12 34.375C802.32 34.375 800.787 33.9833 799.52 33.2C798.253 32.4083 797.282 31.3083 796.607 29.9C795.941 28.4917 795.607 26.8583 795.607 25C795.607 23.1417 795.941 21.5083 796.607 20.1C797.282 18.6917 798.253 17.5958 799.52 16.8125C800.787 16.0208 802.32 15.625 804.12 15.625C805.912 15.625 807.441 16.0208 808.707 16.8125C809.982 17.5958 810.953 18.6917 811.62 20.1C812.287 21.5083 812.62 23.1417 812.62 25C812.62 26.8583 812.287 28.4917 811.62 29.9C810.953 31.3083 809.982 32.4083 808.707 33.2C807.441 33.9833 805.912 34.375 804.12 34.375ZM804.12 31.8875C805.395 31.9042 806.453 31.625 807.295 31.05C808.145 30.4667 808.782 29.6583 809.207 28.625C809.632 27.5833 809.845 26.375 809.845 25C809.845 23.625 809.632 22.425 809.207 21.4C808.782 20.3667 808.145 19.5625 807.295 18.9875C806.453 18.4125 805.395 18.1208 804.12 18.1125C802.845 18.0958 801.782 18.375 800.932 18.95C800.091 19.525 799.457 20.3333 799.032 21.375C798.607 22.4167 798.391 23.625 798.382 25C798.374 26.375 798.582 27.5792 799.007 28.6125C799.432 29.6375 800.07 30.4375 800.92 31.0125C801.778 31.5875 802.845 31.8792 804.12 31.8875ZM815.113 34V16H817.476L824.001 29.5375L830.488 16H832.876V33.9875H830.401V21.675L824.588 34H823.401L817.576 21.675V34H815.113Z" fill="white"/>
<path d="M186.5 27C186.5 24.225 184.125 22 181.5 22H174C172.625 22 171.5 20.875 171.5 19.5C171.5 18.125 172.625 17 174 17H181.5C182.875 17 184 18.125 184 19.5H186.5C186.425 16.725 184.175 14.5 181.5 14.5H174C171.2 14.5 169 16.85 169 19.5C169 22.325 171.325 24.5 174 24.5H181.5C182.875 24.5 184 25.625 184 27C184 28.375 182.875 29.5 181.5 29.5H174C172.625 29.5 171.5 28.375 171.5 27H169C169.075 29.825 171.275 32 174 32H181.5C184.3 32 186.5 29.65 186.5 27ZM188.757 32H191.257V14.5H188.757V32ZM210.012 17V14.5H192.512V17H200.012V32H202.512V17H210.012ZM213.767 17H228.767V14.5H211.267V32H228.767V29.5H213.767V24.5H226.267V22H213.767V17Z" fill="white"/>
<path d="M26.2883 27C26.2883 28.1 25.3883 29 24.2883 29H18.2883C17.1883 29 16.2883 28.1 16.2883 27V21C16.2883 19.9 17.1883 19 18.2883 19H24.2883C25.3883 19 26.2883 19.9 26.2883 21V27ZM28.2883 21C28.2283 18.78 26.4283 17 24.2883 17H18.2883C16.0483 17 14.2883 18.88 14.2883 21V27C14.2883 29.26 16.1483 31 18.2883 31H24.2883C26.5283 31 28.2883 29.12 28.2883 27V21ZM29.6938 29H39.6938V31H41.6938V29H43.6938V27H41.6938V17H39.6938L29.6938 27V29ZM39.6938 27H32.5138L39.6938 19.82V27ZM57.0891 27C57.0891 28.1 56.1891 29 55.0891 29H49.0891C47.9891 29 47.0891 28.1 47.0891 27V21C47.0891 19.9 47.9891 19 49.0891 19H55.0891C56.1891 19 57.0891 19.9 57.0891 21V27ZM59.0891 21C59.0291 18.78 57.2291 17 55.0891 17H49.0891C46.8491 17 45.0891 18.88 45.0891 21V27C45.0891 29.26 46.9491 31 49.0891 31H55.0891C57.3291 31 59.0891 29.12 59.0891 27V21ZM66.6945 25H70.6945C71.7945 25 72.6945 25.9 72.6945 27C72.6945 28.1 71.7945 29 70.6945 29H64.6945C63.5945 29 62.6945 28.1 62.6945 27H60.6945C60.7545 29.26 62.5145 31 64.6945 31H70.6945C72.9345 31 74.6945 29.12 74.6945 27C74.6945 25.8 74.2345 24.8 73.3345 24C74.2345 23.2 74.6945 22.2 74.6945 21C74.6945 18.78 72.7945 17 70.6945 17H64.6945C62.4545 17 60.6945 18.88 60.6945 21H62.6945C62.6945 19.9 63.5945 19 64.6945 19H70.6945C71.7945 19 72.6945 19.9 72.6945 21C72.6945 22.1 71.7945 23 70.6945 23H66.6945V25ZM78.3 28C78.3 26.9 79.2 26 80.3 26H86.3C88.54 26 90.3 24.12 90.3 22V21C90.3 18.78 88.4 17 86.3 17H80.3C78.06 17 76.3 18.88 76.3 21H78.3C78.3 19.9 79.2 19 80.3 19H86.3C87.4 19 88.3 19.9 88.3 21V22C88.3 23.1 87.4 24 86.3 24H80.3C78.06 24 76.3 25.88 76.3 28V31H90.3V29H78.3V28ZM103.905 27C103.905 28.1 103.005 29 101.905 29H95.9055C94.8055 29 93.9055 28.1 93.9055 27V21C93.9055 19.9 94.8055 19 95.9055 19H101.905C103.005 19 103.905 19.9 103.905 21V27ZM105.905 21C105.845 18.78 104.045 17 101.905 17H95.9055C93.6655 17 91.9055 18.88 91.9055 21V27C91.9055 29.26 93.7655 31 95.9055 31H101.905C104.145 31 105.905 29.12 105.905 27V21ZM119.511 27C119.511 28.1 118.611 29 117.511 29H111.511C110.411 29 109.511 28.1 109.511 27V21C109.511 19.9 110.411 19 111.511 19H117.511C118.611 19 119.511 19.9 119.511 21V27ZM121.511 21C121.451 18.78 119.651 17 117.511 17H111.511C109.271 17 107.511 18.88 107.511 21V27C107.511 29.26 109.371 31 111.511 31H117.511C119.751 31 121.511 29.12 121.511 27V21ZM122.916 29H132.916V31H134.916V29H136.916V27H134.916V17H132.916L122.916 27V29ZM132.916 27H125.736L132.916 19.82V27Z" fill="white"/>
<path d="M0.6 0.6H857.4V49.4H0.6V0.6Z" stroke="white" stroke-width="1.2"/>
<rect x="647" y="0.162109" width="2" height="50" fill="white"/>
<rect x="563" y="1" width="2" height="49" fill="white"/>
<rect x="150" y="0.162109" width="2" height="50" fill="white"/>
<path d="M630 25C630 28.6529 627.527 32.1308 623.163 34.7491C618.819 37.3555 612.753 39 606 39C599.247 39 593.181 37.3555 588.837 34.7491C584.473 32.1308 582 28.6529 582 25C582 21.3471 584.473 17.8692 588.837 15.2509C593.181 12.6445 599.247 11 606 11C612.753 11 618.819 12.6445 623.163 15.2509C627.527 17.8692 630 21.3471 630 25Z" stroke="white" stroke-width="2"/>
<path d="M622 25C622 32.618 614.958 39 606 39C597.042 39 590 32.618 590 25C590 17.382 597.042 11 606 11C614.958 11 622 17.382 622 25Z" stroke="white" stroke-width="2"/>
<path d="M613.999 25C613.999 28.9921 613.026 32.5578 611.505 35.0921C609.973 37.6464 607.995 39 605.999 39C604.003 39 602.025 37.6464 600.493 35.0921C598.972 32.5578 597.999 28.9921 597.999 25C597.999 21.0079 598.972 17.4422 600.493 14.9079C602.025 12.3536 604.003 11 605.999 11C607.995 11 609.973 12.3536 611.505 14.9079C613.026 17.4422 613.999 21.0079 613.999 25Z" stroke="white" stroke-width="2"/>
<rect x="604.999" y="11" width="1.99998" height="28" fill="white"/>
<path d="M582 23.5C582 23.5 591.5 26.5 606 26.5C620.5 26.5 630 23.5 630 23.5" stroke="white" stroke-width="2"/>
</svg>
