<svg width="1402" height="164" viewBox="0 0 1402 164" fill="none" xmlns="http://www.w3.org/2000/svg">
<path d="M19.2402 0.200386C8.4882 0.488388 0.0401956 9.03239 0.0401956 19.4004V48.2004C0.0401956 59.0484 8.9682 67.4004 19.2402 67.4004H48.0402C58.7922 67.4004 67.2402 58.3764 67.2402 48.2004H57.6402C57.6402 53.4804 53.3202 57.8004 48.0402 57.8004H19.2402C13.9602 57.8004 9.6402 53.4804 9.6402 48.2004V19.4004C9.6402 14.1204 13.9602 9.80039 19.2402 9.80039H48.0402C53.3202 9.80039 57.6402 14.1204 57.6402 19.4004H67.2402C66.9522 8.74439 58.3122 0.200386 48.0402 0.200386H19.2402ZM94.0752 19.4004C94.0752 14.1204 98.3952 9.80039 103.675 9.80039H142.075V57.8004H94.0752V19.4004ZM74.8752 67.4004H161.275V57.8004H151.675V0.200386H103.675C92.9232 0.200386 84.4752 9.22439 84.4752 19.4004V57.8004H74.8752V67.4004ZM180.513 9.80039H238.113V0.200386H170.913V67.4004H238.113V57.8004H180.513V38.6004H228.513V29.0004H180.513V9.80039ZM269.819 0.200386C259.067 0.488388 250.619 9.03239 250.619 19.4004V67.4004H260.219V19.4004C260.219 14.1204 264.539 9.80039 269.819 9.80039H308.219V67.4004H317.819V0.200386H269.819ZM380.2 9.80039C385.48 9.80039 389.8 14.1204 389.8 19.4004V38.6004H341.8V19.4004C341.8 14.1204 346.12 9.80039 351.4 9.80039H380.2ZM399.4 19.4004C399.112 8.74439 390.472 0.200386 380.2 0.200386H351.4C340.648 0.200386 332.2 9.22439 332.2 19.4004V67.4004H341.8V48.2004H389.8V67.4004H399.4V19.4004ZM423.381 9.80039H480.981V0.200386H413.781V67.4004H480.981V57.8004H423.381V38.6004H471.381V29.0004H423.381V9.80039ZM531.888 58.9524L560.688 17.3844V67.4004H570.288V0.200386H560.688L531.888 41.7684L503.088 0.200386H493.488V67.4004H503.088V17.3844L531.888 58.9524ZM675.963 67.4004C686.715 67.1124 695.163 58.5684 695.163 48.2004C695.163 42.4404 692.955 37.6404 688.635 33.8004C692.955 29.9604 695.163 25.1604 695.163 19.4004C695.163 8.74439 686.043 0.200386 675.963 0.200386H627.963V67.4004H675.963ZM675.963 38.6004C681.243 38.6004 685.563 42.9204 685.563 48.2004C685.563 53.4804 681.243 57.8004 675.963 57.8004H637.563V38.6004H675.963ZM637.563 9.80039H675.963C681.243 9.80039 685.563 14.1204 685.563 19.4004C685.563 24.6804 681.243 29.0004 675.963 29.0004H637.563V9.80039ZM756.606 9.80039C761.886 9.80039 766.206 14.1204 766.206 19.4004V38.6004H718.206V19.4004C718.206 14.1204 722.526 9.80039 727.806 9.80039H756.606ZM775.806 19.4004C775.518 8.74439 766.878 0.200386 756.606 0.200386H727.806C717.054 0.200386 708.606 9.22439 708.606 19.4004V67.4004H718.206V48.2004H766.206V67.4004H775.806V19.4004ZM799.788 0.200386H790.188V67.4004H876.588V0.200386H866.988V57.8004H838.188V0.200386H828.588V57.8004H799.788V0.200386ZM991.825 48.2004C991.825 53.4804 987.505 57.8004 982.225 57.8004H943.825V35.4324H982.225C987.505 35.4324 991.825 39.7524 991.825 45.0324V48.2004ZM1001.43 45.0324C1001.14 34.3764 992.497 25.8324 982.225 25.8324H943.825V9.80039H991.825V0.200386H934.225V67.4004H982.225C992.977 67.4004 1001.43 58.3764 1001.43 48.2004V45.0324ZM1013.93 67.4004H1023.53L1071.53 13.1604V67.4004H1081.13V0.200386H1071.53L1023.53 53.4804V0.200386H1013.93V67.4004ZM1122.39 38.6004H1141.59C1146.87 38.6004 1151.19 42.9204 1151.19 48.2004C1151.19 53.4804 1146.87 57.8004 1141.59 57.8004H1112.79C1107.51 57.8004 1103.19 53.4804 1103.19 48.2004H1093.59C1093.88 59.0484 1102.33 67.4004 1112.79 67.4004H1141.59C1152.34 67.4004 1160.79 58.3764 1160.79 48.2004C1160.79 42.4404 1158.58 37.6404 1154.26 33.8004C1158.58 29.9604 1160.79 25.1604 1160.79 19.4004C1160.79 8.74439 1151.67 0.200386 1141.59 0.200386H1112.79C1102.04 0.200386 1093.59 9.22439 1093.59 19.4004H1103.19C1103.19 14.1204 1107.51 9.80039 1112.79 9.80039H1141.59C1146.87 9.80039 1151.19 14.1204 1151.19 19.4004C1151.19 24.6804 1146.87 29.0004 1141.59 29.0004H1122.39V38.6004ZM1183.79 0.200386H1174.19V67.4004H1183.79V38.6004H1231.79V67.4004H1241.39V0.200386H1231.79V29.0004H1183.79V0.200386ZM1265.37 9.80039H1322.97V0.200386H1255.77V67.4004H1322.97V57.8004H1265.37V38.6004H1313.37V29.0004H1265.37V9.80039ZM1353.72 0.200386C1342.96 0.488388 1334.52 9.03239 1334.52 19.4004V48.2004C1334.52 59.0484 1343.44 67.4004 1353.72 67.4004H1382.52C1393.27 67.4004 1401.72 58.3764 1401.72 48.2004H1392.12C1392.12 53.4804 1387.8 57.8004 1382.52 57.8004H1353.72C1348.44 57.8004 1344.12 53.4804 1344.12 48.2004V19.4004C1344.12 14.1204 1348.44 9.80039 1353.72 9.80039H1382.52C1387.8 9.80039 1392.12 14.1204 1392.12 19.4004H1401.72C1401.43 8.74439 1392.79 0.200386 1382.52 0.200386H1353.72ZM20.2002 96.2004C9.4482 96.4884 1.0002 105.032 1.0002 115.4V163.4H10.6002V115.4C10.6002 110.12 14.9202 105.8 20.2002 105.8H58.6002V163.4H68.2002V96.2004H20.2002ZM102.741 153.8C97.4614 153.8 93.1414 149.48 93.1414 144.2H83.5414C83.8294 155.048 92.2774 163.4 102.741 163.4H129.621C140.373 163.4 148.821 154.376 148.821 144.2V96.2004H139.221V125H100.821C95.5414 125 91.2214 120.68 91.2214 115.4V96.2004H81.6214V115.4C81.6214 126.248 90.5494 134.6 100.821 134.6H139.221V144.2C139.221 149.48 134.901 153.8 129.621 153.8H102.741ZM181.465 129.704C176.185 129.704 171.865 125.384 171.865 120.104V96.2004H162.265V120.104C162.265 130.952 171.193 139.304 181.465 139.304H219.865V163.4H229.465V96.2004H219.865V129.704H181.465ZM253.469 96.2004H243.869V163.4H330.269V96.2004H320.669V153.8H291.869V96.2004H282.269V153.8H253.469V96.2004ZM354.269 105.8H411.869V96.2004H344.669V163.4H411.869V153.8H354.269V134.6H402.269V125H354.269V105.8ZM534.813 96.2004H521.277L492.477 125H477.213V96.2004H467.613V163.4H477.213V134.6H492.477L521.277 163.4H534.813L501.213 129.8L534.813 96.2004ZM597.209 144.2C597.209 149.48 592.889 153.8 587.609 153.8H558.809C553.529 153.8 549.209 149.48 549.209 144.2V115.4C549.209 110.12 553.529 105.8 558.809 105.8H587.609C592.889 105.8 597.209 110.12 597.209 115.4V144.2ZM606.809 115.4C606.809 104.936 597.785 96.2004 587.609 96.2004H558.809C548.249 96.2004 539.609 104.84 539.609 115.4V144.2C539.609 154.856 548.153 163.4 558.809 163.4H587.609C598.169 163.4 606.809 154.76 606.809 144.2V115.4ZM629.875 96.2004H620.275V163.4H629.875V134.6H677.875V163.4H687.475V96.2004H677.875V125H629.875V96.2004ZM769.056 96.2004H755.52L726.72 125H711.456V96.2004H701.856V163.4H711.456V134.6H726.72L755.52 163.4H769.056L735.456 129.8L769.056 96.2004ZM798.816 153.8C793.536 153.8 789.216 149.48 789.216 144.2H779.616C779.904 155.048 788.352 163.4 798.816 163.4H825.696C836.448 163.4 844.896 154.376 844.896 144.2V96.2004H835.296V125H796.896C791.616 125 787.296 120.68 787.296 115.4V96.2004H777.696V115.4C777.696 126.248 786.624 134.6 796.896 134.6H835.296V144.2C835.296 149.48 830.976 153.8 825.696 153.8H798.816ZM916.9 125C916.9 130.28 912.58 134.6 907.3 134.6H868.9V105.8H907.3C912.58 105.8 916.9 110.12 916.9 115.4V125ZM926.5 115.4C926.212 104.744 917.572 96.2004 907.3 96.2004H859.3V163.4H868.9V144.2H907.3C918.052 144.2 926.5 135.176 926.5 125V115.4ZM948.606 105.8H1006.21V96.2004H939.006V163.4H1006.21V153.8H948.606V134.6H996.606V125H948.606V105.8ZM1028.31 96.2004H1018.71V163.4H1028.31V134.6H1076.31V163.4H1085.91V96.2004H1076.31V125H1028.31V96.2004ZM1162.69 105.8V96.2004H1095.49V105.8H1124.29V163.4H1133.89V105.8H1162.69ZM1227.08 144.2C1227.08 149.48 1222.76 153.8 1217.48 153.8H1188.68C1183.4 153.8 1179.08 149.48 1179.08 144.2V115.4C1179.08 110.12 1183.4 105.8 1188.68 105.8H1217.48C1222.76 105.8 1227.08 110.12 1227.08 115.4V144.2ZM1236.68 115.4C1236.68 104.936 1227.65 96.2004 1217.48 96.2004H1188.68C1178.12 96.2004 1169.48 104.84 1169.48 115.4V144.2C1169.48 154.856 1178.02 163.4 1188.68 163.4H1217.48C1228.04 163.4 1236.68 154.76 1236.68 144.2V115.4ZM1298.14 163.4C1308.9 163.112 1317.34 154.568 1317.34 144.2C1317.34 138.44 1315.14 133.64 1310.82 129.8C1315.14 125.96 1317.34 121.16 1317.34 115.4C1317.34 104.744 1308.22 96.2004 1298.14 96.2004H1250.14V163.4H1298.14ZM1298.14 134.6C1303.42 134.6 1307.74 138.92 1307.74 144.2C1307.74 149.48 1303.42 153.8 1298.14 153.8H1259.74V134.6H1298.14ZM1259.74 105.8H1298.14C1303.42 105.8 1307.74 110.12 1307.74 115.4C1307.74 120.68 1303.42 125 1298.14 125H1259.74V105.8ZM1354.79 163.4H1364.39V153.8H1354.79V163.4ZM1383.59 115.4C1383.59 120.68 1379.27 125 1373.99 125C1363.24 125 1354.79 134.024 1354.79 144.2H1364.39C1364.39 138.92 1368.71 134.6 1373.99 134.6C1384.74 134.6 1393.19 125.576 1393.19 115.4C1393.19 104.744 1384.07 96.2004 1373.99 96.2004H1345.19C1334.44 96.2004 1325.99 105.224 1325.99 115.4H1335.59C1335.59 110.12 1339.91 105.8 1345.19 105.8H1373.99C1379.27 105.8 1383.59 110.12 1383.59 115.4Z" fill="white"/>
</svg>
