<svg width="350" height="350" viewBox="0 0 350 350" fill="none" xmlns="http://www.w3.org/2000/svg">
<ellipse cx="174.856" cy="174.507" rx="135.973" ry="135.613" stroke="white" stroke-width="1.05134"/>
<path d="M173.786 144.571L174.976 140.6L176.165 144.571C180.376 158.633 191.376 169.634 205.437 173.848L209.401 175.036L205.437 176.224C191.376 180.438 180.376 191.44 176.165 205.501L174.976 209.472L173.786 205.501C169.575 191.44 158.576 180.438 144.515 176.224L140.55 175.036L144.515 173.848C158.576 169.634 169.575 158.633 173.786 144.571Z" stroke="white" stroke-width="1.05134"/>
<path d="M157.881 325.786C159.136 325.936 160.279 326.282 161.311 326.823C162.324 327.379 163.183 328.086 163.886 328.943C164.572 329.814 165.077 330.785 165.401 331.854C165.707 332.938 165.787 334.092 165.641 335.315C165.496 336.539 165.148 337.633 164.598 338.599C164.03 339.579 163.311 340.403 162.442 341.073C161.555 341.757 160.555 342.242 159.441 342.528C158.326 342.831 157.132 342.906 155.861 342.755C154.606 342.605 153.472 342.252 152.459 341.697C151.443 341.157 150.592 340.459 149.904 339.604C149.2 338.747 148.696 337.776 148.39 336.692C148.068 335.607 147.979 334.452 148.125 333.229C148.271 332.005 148.627 330.904 149.195 329.924C149.747 328.943 150.466 328.118 151.351 327.45C152.22 326.78 153.212 326.294 154.328 325.992C155.442 325.705 156.626 325.637 157.881 325.786ZM157.694 327.359C156.693 327.24 155.752 327.297 154.87 327.531C153.97 327.778 153.174 328.174 152.48 328.72C151.769 329.28 151.19 329.952 150.742 330.737C150.292 331.537 150.008 332.438 149.889 333.439C149.769 334.44 149.835 335.374 150.087 336.242C150.336 337.126 150.741 337.915 151.303 338.61C151.847 339.32 152.528 339.892 153.347 340.328C154.147 340.778 155.048 341.063 156.049 341.182C157.049 341.301 158 341.237 158.899 340.99C159.797 340.758 160.601 340.362 161.312 339.803C162.006 339.257 162.585 338.585 163.051 337.786C163.499 337.002 163.782 336.109 163.902 335.108C164.019 334.123 163.953 333.189 163.703 332.305C163.438 331.419 163.034 330.622 162.49 329.912C161.928 329.217 161.239 328.644 160.423 328.192C159.604 327.756 158.695 327.479 157.694 327.359Z" fill="white"/>
<path d="M138.472 322.54L133.839 338.689L122.028 335.299L122.445 333.845L132.572 336.752L134.088 331.469L128.805 329.953C126.898 329.405 125.565 328.598 124.806 327.531C124.026 326.475 123.853 325.194 124.285 323.687C124.731 322.133 125.611 321.096 126.926 320.574C128.225 320.048 129.875 320.072 131.874 320.646L138.472 322.54ZM136.397 323.418L131.507 322.014C130.015 321.586 128.811 321.548 127.894 321.901C126.957 322.264 126.33 323 126.012 324.107C125.382 326.307 126.573 327.839 129.588 328.704L134.478 330.108L136.397 323.418Z" fill="white"/>
<path d="M111.064 312.645C112.22 313.156 113.204 313.819 114.016 314.633C114.822 315.462 115.428 316.386 115.834 317.406C116.241 318.426 116.439 319.502 116.428 320.634C116.402 321.76 116.141 322.886 115.642 324.013C115.144 325.14 114.487 326.092 113.672 326.868C112.842 327.638 111.913 328.216 110.885 328.601C109.843 328.98 108.748 329.142 107.599 329.089C106.444 329.051 105.289 328.776 104.133 328.264C103.021 327.772 102.059 327.119 101.247 326.305C100.428 325.506 99.847 324.584 99.5039 323.54L100.992 322.964C101.336 323.887 101.827 324.655 102.465 325.27C103.097 325.899 103.851 326.408 104.729 326.796C105.651 327.204 106.578 327.422 107.511 327.449C108.437 327.491 109.322 327.349 110.166 327.023C111.003 326.711 111.762 326.242 112.441 325.615C113.1 324.997 113.633 324.226 114.04 323.304C114.448 322.382 114.662 321.463 114.683 320.545C114.683 319.635 114.52 318.758 114.193 317.913C113.86 317.084 113.37 316.333 112.722 315.662C112.068 315.005 111.28 314.473 110.358 314.065C109.48 313.676 108.596 313.46 107.705 313.416C106.815 313.372 105.913 313.533 104.999 313.899L104.424 312.411C105.427 311.962 106.503 311.764 107.651 311.818C108.8 311.871 109.937 312.147 111.064 312.645Z" fill="white"/>
<path d="M99.3417 308.69C98.8109 307.993 98.1963 307.525 97.4981 307.288C96.7916 307.064 95.9293 307.204 94.9111 307.708L93.5406 308.391L93.2849 308.489L81.4683 315.542L79.9511 314.619L93.7779 306.569C94.7224 306.001 95.62 305.695 96.4708 305.651C97.3079 305.599 98.0697 305.763 98.7561 306.143C99.4288 306.515 100.017 307.041 100.52 307.722L99.3417 308.69ZM94.1613 307.14L93.2164 322.69L91.5967 321.705L92.5806 307.892L94.1613 307.14Z" fill="white"/>
<path d="M74.2629 289.911L65.1568 301.097L71.3903 306.175L74.0777 303.102C74.9129 302.152 75.7426 301.259 76.5668 300.424C77.3686 299.592 78.1492 298.886 78.9087 298.308C79.6457 297.732 80.3387 297.337 80.9877 297.123C81.6242 296.898 82.1961 296.931 82.7033 297.22L83.9832 298.727C83.5072 298.298 82.9514 298.144 82.3157 298.266C81.6677 298.378 80.974 298.711 80.2346 299.264C79.4829 299.807 78.6848 300.509 77.8404 301.369C76.996 302.229 76.1158 303.183 75.1998 304.233L71.6115 308.336L62.8287 301.182L72.9045 288.805L74.2629 289.911ZM87.8156 295.008L84.4484 299.106L70.5113 287.753L73.8599 283.639L75.1438 284.685L72.765 287.607L84.1342 296.869L86.5316 293.962L87.8156 295.008Z" fill="white"/>
<path d="M67.0071 281.949L54.6046 293.281L53.4232 291.987L63.6996 282.598L46.1733 284.047L45.089 282.86L57.4916 271.528L58.6729 272.822L48.4143 282.195L65.9228 280.762L67.0071 281.949Z" fill="white"/>
<path d="M50.336 261.713L37.4335 270.735L37.5519 270.067L41.2086 275.3L39.9498 276.18L32.1828 265.065L33.4416 264.185L37.0845 269.398L36.43 269.299L49.3325 260.277L50.336 261.713Z" fill="white"/>
<path d="M30.3458 249.403C29.4119 247.653 29.0954 246.108 29.3962 244.768C29.6754 243.422 30.5843 242.338 32.1228 241.517C33.7177 240.665 35.1952 240.511 36.5551 241.055C37.901 241.606 39.0634 242.799 40.0425 244.634L43.1831 250.521L28.3629 258.433L27.5382 256.887L32.8311 254.061L30.3458 249.403ZM38.816 245.344C38.0854 243.974 37.2284 243.099 36.2449 242.717C35.2539 242.321 34.1726 242.436 33.0011 243.061C31.8296 243.687 31.1569 244.499 30.983 245.499C30.795 246.506 31.07 247.701 31.8081 249.085L34.1014 253.383L41.1093 249.642L38.816 245.344Z" fill="white"/>
<path d="M30.1951 221.082L13.9938 225.527L10.2558 211.894L26.4571 207.449L26.9203 209.138L11.7375 213.304L12.0798 212.737L15.1324 223.87L14.5489 223.558L29.7318 219.392L30.1951 221.082Z" fill="white"/>
<path d="M24.9254 198.823L8.24047 200.785L7.50632 194.54C7.34006 193.126 7.42756 191.883 7.76883 190.812C8.09421 189.743 8.65418 188.887 9.44875 188.246C10.2256 187.591 11.2178 187.192 12.4255 187.05C13.6014 186.912 14.651 187.07 15.5745 187.526C16.4802 187.967 17.2233 188.669 17.8036 189.632C18.384 190.594 18.7573 191.783 18.9236 193.197L19.5429 198.465L18.6161 197.776L24.7181 197.059L24.9254 198.823ZM18.7592 197.76L17.9935 198.647L17.3799 193.427C17.1837 191.759 16.6777 190.537 15.8617 189.763C15.028 188.975 13.9517 188.659 12.6328 188.814C11.298 188.971 10.3165 189.53 9.68831 190.49C9.05822 191.434 8.84126 192.74 9.0374 194.409L9.65106 199.629L8.72435 198.94L18.7592 197.76Z" fill="white"/>
<path d="M23.4422 168.658C23.4039 169.922 23.1604 171.091 22.7117 172.166C22.2475 173.224 21.6194 174.142 20.8276 174.919C20.0202 175.679 19.098 176.267 18.0609 176.684C17.0083 177.085 15.8662 177.267 14.6348 177.23C13.4034 177.192 12.2824 176.943 11.2719 176.48C10.246 176.001 9.36101 175.358 8.61708 174.551C7.85764 173.728 7.28623 172.775 6.90285 171.691C6.50349 170.606 6.32317 169.424 6.3619 168.145C6.40014 166.881 6.65139 165.72 7.11563 164.662C7.56388 163.603 8.18369 162.693 8.97507 161.933C9.76693 161.156 10.6892 160.567 11.7418 160.167C12.7948 159.75 13.9371 159.561 15.1686 159.598C16.4 159.635 17.5287 159.893 18.5547 160.372C19.5811 160.835 20.4661 161.478 21.2095 162.3C21.9535 163.107 22.5251 164.053 22.9245 165.137C23.3079 166.221 23.4804 167.395 23.4422 168.658ZM21.8589 168.611C21.8894 167.603 21.7496 166.671 21.4394 165.813C21.1137 164.939 20.6484 164.18 20.0436 163.538C19.4232 162.879 18.7026 162.361 17.8816 161.984C17.0446 161.607 16.1224 161.403 15.1148 161.373C14.1073 161.342 13.1824 161.491 12.3401 161.818C11.4818 162.144 10.7311 162.618 10.0881 163.239C9.42947 163.843 8.91917 164.572 8.55718 165.426C8.17968 166.263 7.97568 167.185 7.94518 168.192C7.91468 169.2 8.06228 170.141 8.38798 171.015C8.69769 171.889 9.16271 172.655 9.78306 173.314C10.3879 173.956 11.1086 174.474 11.945 174.868C12.766 175.244 13.6803 175.448 14.6878 175.478C15.6794 175.508 16.6043 175.36 17.4625 175.033C18.3213 174.691 19.08 174.218 19.7386 173.613C20.3816 172.992 20.8922 172.255 21.2702 171.402C21.6322 170.549 21.8284 169.618 21.8589 168.611Z" fill="white"/>
<path d="M15.6342 151.095L17.1407 142.344L18.6307 142.6L17.1243 151.352L15.6342 151.095ZM23.3063 152.222L25.0204 142.264L26.5341 142.525L24.5187 154.233L7.96252 151.381L9.91684 140.028L11.4305 140.288L9.77752 149.891L23.3063 152.222Z" fill="white"/>
<path d="M32.2229 122.912L22.2991 126.564L21.9057 124.931L32.8335 120.966L32.2229 122.912ZM28.7822 133.881L12.7533 128.85L13.2705 127.201L29.2994 132.232L28.7822 133.881ZM21.791 130.429L20.3026 129.962L21.8756 124.947L23.364 125.414L21.791 130.429ZM22.9335 125.103L22.1702 126.574L16.1221 118.11L16.6968 116.278L22.9335 125.103Z" fill="white"/>
<path d="M36.7666 112.211L22.4167 105.734L23.0516 105.494L20.4266 111.313L19.0266 110.681L24.6023 98.3205L26.0022 98.9525L23.3871 104.75L23.1371 104.137L37.487 110.614L36.7666 112.211Z" fill="white"/>
<path d="M53.7223 83.8921C52.9577 84.8986 52.0807 85.7092 51.0914 86.3238C50.099 86.916 49.0551 87.2982 47.9598 87.4704C46.8614 87.6202 45.7691 87.5636 44.6829 87.3007C43.5936 87.0153 42.5586 86.4998 41.5778 85.7542C40.597 85.0086 39.8297 84.154 39.2759 83.1903C38.7189 82.2041 38.3719 81.1665 38.2348 80.0775C38.0946 78.966 38.1832 77.8576 38.5005 76.7522C38.805 75.6371 39.3445 74.57 40.1188 73.5507C40.8834 72.5443 41.7619 71.7449 42.7543 71.1527C43.734 70.5509 44.7666 70.1702 45.8523 70.0107C46.9476 69.8385 48.0399 69.895 49.1292 70.1804C50.2281 70.4531 51.268 70.9622 52.2488 71.7078C53.2295 72.4534 53.9984 73.3193 54.5553 74.3054C55.1219 75.2788 55.4689 76.3164 55.5964 77.4182C55.7335 78.5072 55.6498 79.6093 55.3452 80.7243C55.0279 81.8297 54.4869 82.8856 53.7223 83.8921ZM52.4613 82.9335C53.0711 82.1309 53.4987 81.2903 53.7442 80.4117C53.9866 79.5107 54.0482 78.6229 53.9289 77.7484C53.8066 76.8514 53.5207 76.0111 53.0713 75.2273C52.6092 74.4338 51.9769 73.732 51.1744 73.122C50.3719 72.512 49.5331 72.0953 48.6578 71.8721C47.7698 71.6392 46.8838 71.5888 45.9999 71.7207C45.1129 71.8303 44.2744 72.1274 43.4842 72.6121C42.691 73.0743 41.9896 73.7067 41.3798 74.5094C40.77 75.312 40.3439 76.1638 40.1015 77.0649C39.8463 77.9562 39.7799 78.8503 39.9022 79.7473C40.0215 80.6218 40.3074 81.4621 40.7599 82.2684C41.2093 83.0522 41.8352 83.7491 42.6377 84.3591C43.4274 84.9595 44.2662 85.3761 45.1543 85.609C46.052 85.8291 46.9443 85.8845 47.8313 85.7749C48.7152 85.6429 49.5586 85.3394 50.3614 84.8645C51.1516 84.3798 51.8515 83.7362 52.4613 82.9335Z" fill="white"/>
<path d="M66.3496 68.7939L54.7772 56.6153L63.6822 48.1479L64.7237 49.244L57.0884 56.5041L60.8742 60.4882L64.8571 56.7011C66.2949 55.3339 67.6658 54.5933 68.97 54.4792C70.2748 54.3425 71.4672 54.8425 72.5473 55.9792C73.6604 57.1507 74.1088 58.4354 73.8923 59.8335C73.6874 61.2206 72.8312 62.6308 71.3239 64.0641L66.3496 68.7939ZM66.6439 66.5602L70.3311 63.0541C71.4558 61.9847 72.0984 60.9653 72.2587 59.9959C72.4197 59.0039 72.1034 58.0903 71.3098 57.2552C69.7338 55.5966 67.8094 55.8477 65.5368 58.0087L61.8496 61.5147L66.6439 66.5602Z" fill="white"/>
<path d="M88.7646 50.1696C87.7383 50.9074 86.6685 51.4202 85.5554 51.7081C84.4329 51.9829 83.3293 52.0373 82.2446 51.8712C81.16 51.705 80.1324 51.3304 79.1619 50.7472C78.2043 50.1547 77.3661 49.3582 76.6474 48.3576C75.9286 47.357 75.4412 46.3083 75.1852 45.2115C74.9422 44.1054 74.915 43.0116 75.1035 41.9303C75.305 40.8396 75.7196 39.8125 76.3473 38.8489C76.9657 37.8723 77.7881 37.0151 78.8145 36.2774C79.8018 35.5676 80.8521 35.0688 81.9652 34.7809C83.069 34.4801 84.1578 34.4462 85.2315 34.6794L84.9737 36.2539C84.0043 36.0837 83.0932 36.118 82.2402 36.3567C81.378 36.5824 80.5571 36.9755 79.7776 37.5358C78.9591 38.1242 78.3018 38.8134 77.8056 39.6036C77.3001 40.3808 76.9742 41.2161 76.8279 42.1094C76.6723 42.9898 76.6925 43.8817 76.8884 44.7852C77.088 45.6664 77.4819 46.5163 78.0699 47.335C78.658 48.1536 79.3424 48.8046 80.1229 49.2879C80.9072 49.7488 81.7458 50.0524 82.6389 50.1986C83.5226 50.3318 84.4179 50.2892 85.3248 50.0708C86.2224 49.8394 87.0804 49.4295 87.8989 48.8411C88.6784 48.2808 89.3126 47.6279 89.8015 46.8823C90.2903 46.1368 90.6087 45.2774 90.7566 44.3041L92.3307 44.5618C92.2091 45.6541 91.8345 46.682 91.2067 47.6456C90.579 48.6092 89.765 49.4505 88.7646 50.1696Z" fill="white"/>
<path d="M98.1113 42.0622C98.9815 41.9578 99.6958 41.6648 100.254 41.1829C100.805 40.6871 101.121 39.8723 101.203 38.7387L101.308 37.2107L101.354 36.9409L101.262 23.1762L102.827 22.3355L102.759 38.3385C102.769 39.4408 102.578 40.3699 102.185 41.1261C101.806 41.8747 101.279 42.4486 100.604 42.8479C99.9424 43.2397 99.1907 43.4802 98.3487 43.5694L98.1113 42.0622ZM102.073 38.3802L89.149 29.6864L90.8191 28.7888L102.226 36.636L102.073 38.3802Z" fill="white"/>
<path d="M127.006 29.9468L121.98 16.427L114.444 19.2304L115.731 23.1048C116.127 24.3064 116.475 25.474 116.777 26.6079C117.089 27.7211 117.301 28.7517 117.415 29.6997C117.538 30.627 117.527 31.4248 117.383 32.093C117.254 32.7556 116.936 33.2324 116.429 33.5232L114.482 33.8636C115.093 33.6704 115.507 33.2689 115.724 32.6589C115.956 32.0434 116.021 31.2766 115.919 30.3587C115.831 29.4352 115.631 28.3915 115.318 27.2277C115.005 26.0638 114.628 24.8212 114.188 23.4997L112.469 18.3263L123.086 14.3763L128.648 29.3359L127.006 29.9468ZM115.745 39.0527L113.92 34.0728L130.767 27.8048L132.616 32.7764L131.064 33.3538L129.751 29.822L116.007 34.9351L117.298 38.4753L115.745 39.0527Z" fill="white"/>
<path d="M137.541 27.7199L134.059 11.2847L135.773 10.9213L138.658 24.5391L146.291 8.69142L147.864 8.35793L151.346 24.7931L149.632 25.1565L146.752 11.5622L139.114 27.3864L137.541 27.7199Z" fill="white"/>
<path d="M163.43 23.5938L162.192 7.89857L162.708 8.33931L156.344 8.84166L156.223 7.31042L169.741 6.2434L169.862 7.77464L163.521 8.2751L163.938 7.76071L165.176 23.456L163.43 23.5938Z" fill="white"/>
<path d="M184.172 12.5965C186.155 12.6783 187.647 13.1882 188.65 14.1264C189.669 15.0492 190.142 16.3818 190.071 18.1244C189.997 19.9309 189.381 21.2826 188.224 22.1797C187.067 23.0607 185.449 23.4583 183.371 23.3726L176.704 23.0975L177.392 6.31157L179.142 6.38381L178.897 12.3788L184.172 12.5965ZM183.381 21.9558C184.931 22.0198 186.121 21.7246 186.948 21.0701C187.791 20.4163 188.24 19.426 188.295 18.0991C188.349 16.7722 187.989 15.7806 187.216 15.1241C186.442 14.4516 185.272 14.0831 183.706 14.0184L178.838 13.8176L178.513 21.7549L183.381 21.9558Z" fill="white"/>
<path d="M208.657 26.8132L213.033 10.5933L226.68 14.2779L222.304 30.4979L220.613 30.0413L224.714 14.8408L225.029 15.4231L213.884 12.4141L214.449 12.0695L210.348 27.2699L208.657 26.8132Z" fill="white"/>
<path d="M230.511 33.5455L237.271 18.1657L243.027 20.6974C244.331 21.2708 245.358 21.976 246.108 22.813C246.865 23.6355 247.319 24.5517 247.469 25.5617C247.641 26.5634 247.482 27.6209 246.992 28.7341C246.516 29.818 245.848 30.6427 244.987 31.2082C244.148 31.7655 243.166 32.0504 242.042 32.0629C240.918 32.0754 239.705 31.7949 238.401 31.2216L233.546 29.0861L234.609 28.636L232.137 34.2606L230.511 33.5455ZM234.551 28.7678L234.174 27.658L238.985 29.7742C240.523 30.4506 241.832 30.6331 242.913 30.3219C244.014 30.0024 244.832 29.2348 245.367 28.0191C245.907 26.7887 245.923 25.6594 245.414 24.6314C244.919 23.6097 243.903 22.7607 242.365 22.0843L237.554 19.9681L238.617 19.5179L234.551 28.7678Z" fill="white"/>
<path d="M257.259 47.5501C256.189 46.8769 255.304 46.0746 254.605 45.143C253.927 44.2063 253.455 43.1999 253.186 42.1237C252.94 41.0425 252.9 39.9492 253.066 38.8437C253.254 37.7332 253.676 36.6565 254.331 35.6136C254.987 34.5706 255.771 33.7307 256.681 33.0939C257.614 32.4521 258.617 32.0149 259.689 31.7823C260.783 31.5446 261.895 31.5352 263.024 31.7539C264.161 31.9591 265.271 32.4026 266.355 33.0843C267.425 33.7574 268.298 34.5623 268.976 35.4989C269.662 36.422 270.132 37.4174 270.387 38.4851C270.655 39.5613 270.695 40.6546 270.507 41.7651C270.333 42.8841 269.918 43.9651 269.262 45.008C268.606 46.051 267.812 46.8934 266.879 47.5352C265.96 48.1855 264.957 48.6227 263.871 48.8468C262.799 49.0795 261.694 49.0932 260.557 48.888C259.428 48.6692 258.329 48.2233 257.259 47.5501ZM258.102 46.2092C258.955 46.746 259.83 47.098 260.727 47.2652C261.645 47.4273 262.535 47.4104 263.395 47.2145C264.277 47.0136 265.089 46.6546 265.83 46.1378C266.579 45.6074 267.222 44.9155 267.759 44.0622C268.295 43.2089 268.636 42.3363 268.781 41.4445C268.934 40.5392 268.906 39.652 268.697 38.7829C268.509 37.9088 268.139 37.0994 267.587 36.3548C267.057 35.6052 266.365 34.962 265.512 34.4252C264.658 33.8884 263.773 33.5389 262.854 33.3767C261.944 33.201 261.048 33.2137 260.165 33.4146C259.305 33.6105 258.493 33.9694 257.73 34.4913C256.99 35.0082 256.351 35.6933 255.814 36.5466C255.286 37.3864 254.946 38.259 254.792 39.1643C254.652 40.0781 254.676 40.9721 254.863 41.8462C255.073 42.7153 255.45 43.5289 255.994 44.2871C256.546 45.0316 257.249 45.6723 258.102 46.2092Z" fill="white"/>
<path d="M276.351 49.7188L283.132 55.4531L282.156 56.6079L275.375 50.8736L276.351 49.7188ZM271.494 55.7635L279.209 62.2882L278.217 63.4613L269.146 55.7897L279.991 42.9586L288.787 50.3977L287.795 51.5708L280.355 45.2786L271.494 55.7635Z" fill="white"/>
<path d="M292.24 78.3081L294.119 67.8995L295.726 68.3877L293.608 79.8211L292.24 78.3081ZM284.528 69.7821L296.984 58.5088L298.144 59.7904L285.687 71.0636L284.528 69.7821ZM291.045 65.5024L292.202 64.4556L295.728 68.3538L294.571 69.4006L291.045 65.5024ZM295.057 69.187L294.176 67.7833L304.535 66.8569L305.823 68.2808L295.057 69.187Z" fill="white"/>
<path d="M299.155 87.6467L312.008 78.5534L311.893 79.2225L308.207 74.0099L309.461 73.1227L317.29 84.1947L316.036 85.0819L312.364 79.8888L313.019 79.9839L300.167 89.0773L299.155 87.6467Z" fill="white"/>
<path d="M314.969 116.62C314.489 115.451 314.234 114.284 314.206 113.12C314.199 111.964 314.398 110.87 314.805 109.838C315.232 108.815 315.834 107.902 316.612 107.098C317.41 106.303 318.378 105.672 319.518 105.204C320.657 104.736 321.783 104.507 322.894 104.517C324.026 104.537 325.096 104.763 326.105 105.196C327.134 105.639 328.044 106.276 328.836 107.11C329.643 107.938 330.289 108.943 330.775 110.128C331.255 111.297 331.499 112.46 331.506 113.615C331.529 114.765 331.333 115.849 330.921 116.866C330.514 117.898 329.912 118.811 329.114 119.606C328.322 120.415 327.356 121.054 326.217 121.522C325.077 121.99 323.941 122.215 322.809 122.195C321.683 122.191 320.613 121.965 319.599 121.516C318.591 121.083 317.683 120.452 316.876 119.625C316.085 118.791 315.449 117.79 314.969 116.62ZM316.434 116.019C316.817 116.951 317.324 117.746 317.957 118.403C318.611 119.068 319.345 119.571 320.159 119.911C320.994 120.26 321.863 120.439 322.766 120.449C323.685 120.452 324.61 120.262 325.542 119.879C326.475 119.496 327.259 118.984 327.895 118.342C328.545 117.694 329.038 116.956 329.372 116.127C329.727 115.306 329.896 114.432 329.879 113.506C329.882 112.587 329.693 111.662 329.31 110.729C328.927 109.797 328.409 108.998 327.755 108.332C327.116 107.661 326.379 107.151 325.544 106.802C324.73 106.462 323.861 106.282 322.937 106.264C322.033 106.255 321.116 106.441 320.183 106.824C319.266 107.201 318.481 107.714 317.831 108.362C317.186 109.024 316.686 109.766 316.331 110.586C315.997 111.415 315.831 112.296 315.834 113.229C315.851 114.156 316.051 115.086 316.434 116.019Z" fill="white"/>
<path d="M321.58 135.157L337.942 131.346L340.727 143.314L339.255 143.657L336.866 133.395L331.514 134.642L332.759 139.995C333.209 141.927 333.153 143.485 332.59 144.667C332.047 145.862 331.011 146.637 329.484 146.992C327.91 147.359 326.576 147.095 325.48 146.2C324.389 145.32 323.607 143.868 323.136 141.842L321.58 135.157ZM323.356 136.542L324.509 141.497C324.861 143.009 325.414 144.079 326.168 144.709C326.942 145.35 327.89 145.54 329.012 145.279C331.24 144.76 331.999 142.973 331.288 139.919L330.135 134.963L323.356 136.542Z" fill="white"/>
<path d="M326.274 163.925C326.158 162.666 326.258 161.484 326.574 160.379C326.906 159.271 327.418 158.292 328.111 157.441C328.804 156.59 329.648 155.894 330.642 155.352C331.638 154.827 332.75 154.508 333.977 154.395C335.204 154.282 336.355 154.393 337.43 154.727C338.506 155.078 339.463 155.609 340.3 156.319C341.138 157.045 341.813 157.923 342.325 158.952C342.854 159.98 343.176 161.124 343.292 162.382C343.403 163.593 343.301 164.751 342.985 165.857C342.685 166.961 342.162 167.917 341.417 168.725L340.19 167.705C340.828 166.955 341.261 166.152 341.487 165.296C341.73 164.438 341.807 163.531 341.719 162.575C341.626 161.572 341.365 160.656 340.936 159.828C340.522 158.998 339.967 158.294 339.271 157.715C338.591 157.135 337.812 156.701 336.934 156.412C336.073 156.138 335.141 156.047 334.137 156.139C333.133 156.232 332.226 156.492 331.413 156.92C330.619 157.363 329.932 157.932 329.353 158.628C328.79 159.323 328.373 160.116 328.102 161.009C327.847 161.9 327.765 162.848 327.857 163.852C327.945 164.807 328.187 165.685 328.582 166.484C328.977 167.283 329.556 167.993 330.32 168.614L329.3 169.84C328.42 169.182 327.724 168.339 327.212 167.309C326.699 166.28 326.386 165.152 326.274 163.925Z" fill="white"/>
<path d="M328.525 176.093C328.174 176.897 328.065 177.661 328.197 178.386C328.346 179.113 328.888 179.798 329.824 180.442L331.088 181.307L331.297 181.484L343.21 188.377L343.142 190.152L329.38 181.986C328.425 181.437 327.721 180.802 327.268 180.08C326.815 179.374 326.587 178.629 326.585 177.844C326.582 177.076 326.756 176.306 327.106 175.535L328.525 176.093ZM329.692 181.374L343.736 174.635L343.664 176.53L331.118 182.389L329.692 181.374Z" fill="white"/>
<path d="M324.326 207.147L338.529 209.663L339.93 201.746L335.938 200.892C334.701 200.625 333.518 200.334 332.387 200.02C331.27 199.724 330.274 199.385 329.399 199.003C328.537 198.639 327.855 198.226 327.352 197.763C326.846 197.316 326.596 196.8 326.602 196.216L327.295 194.365C327.152 194.99 327.289 195.55 327.704 196.046C328.118 196.558 328.746 197.002 329.589 197.379C330.429 197.772 331.431 198.128 332.593 198.448C333.755 198.767 335.017 199.072 336.379 199.362L341.71 200.501L339.736 211.656L324.02 208.872L324.326 207.147ZM322.181 192.825L327.4 193.774L324.266 211.475L319.044 210.55L319.332 208.919L323.043 209.576L325.599 195.137L321.893 194.456L322.181 192.825Z" fill="white"/>
<path d="M320.907 217.365L336.841 222.691L336.286 224.353L323.084 219.94L332.879 234.551L332.37 236.076L316.436 230.751L316.991 229.089L330.171 233.494L320.398 218.891L320.907 217.365Z" fill="white"/>
<path d="M311.347 241.778L325.505 248.665L324.863 248.886L327.654 243.145L329.035 243.817L323.107 256.012L321.726 255.34L324.506 249.62L324.739 250.24L310.581 243.354L311.347 241.778Z" fill="white"/>
<path d="M310.323 265.243C309.248 266.911 308.053 267.94 306.736 268.328C305.425 268.739 304.036 268.473 302.57 267.528C301.051 266.548 300.197 265.332 300.011 263.879C299.837 262.434 300.313 260.838 301.44 259.089L305.053 253.48L319.174 262.582L318.225 264.055L313.182 260.804L310.323 265.243ZM302.656 259.816C301.816 261.121 301.468 262.296 301.613 263.341C301.749 264.4 302.376 265.289 303.492 266.009C304.608 266.728 305.645 266.921 306.603 266.586C307.574 266.26 308.484 265.438 309.333 264.12L311.971 260.024L305.294 255.72L302.656 259.816Z" fill="white"/>
<path d="M285.663 279.153L297.426 291.147L287.337 301.049L275.574 289.054L276.824 287.827L287.848 299.067L287.187 299.044L295.426 290.958L295.436 291.62L284.412 280.38L285.663 279.153Z" fill="white"/>
<path d="M268.787 294.594L278.617 308.218L273.519 311.899C272.365 312.733 271.237 313.261 270.135 313.484C269.042 313.72 268.023 313.647 267.076 313.265C266.126 312.905 265.295 312.232 264.584 311.246C263.891 310.286 263.519 309.292 263.467 308.263C263.412 307.257 263.664 306.266 264.223 305.291C264.781 304.315 265.638 303.41 266.792 302.577L271.093 299.472L270.942 300.616L267.347 295.634L268.787 294.594ZM270.858 300.5L272.005 300.737L267.744 303.813C266.382 304.797 265.561 305.834 265.282 306.923C264.999 308.035 265.247 309.13 266.024 310.207C266.81 311.296 267.775 311.882 268.919 311.964C270.051 312.055 271.297 311.609 272.659 310.625L276.921 307.548L276.77 308.693L270.858 300.5Z" fill="white"/>
<path d="M243.165 310.57C244.287 309.988 245.427 309.632 246.584 309.5C247.735 309.391 248.842 309.493 249.905 309.807C250.962 310.142 251.925 310.661 252.793 311.365C253.655 312.089 254.369 312.999 254.936 314.093C255.502 315.187 255.829 316.288 255.917 317.396C255.997 318.525 255.866 319.612 255.523 320.654C255.174 321.719 254.618 322.682 253.858 323.545C253.105 324.422 252.16 325.154 251.024 325.743C249.901 326.325 248.765 326.671 247.615 326.78C246.471 326.904 245.375 326.805 244.326 326.484C243.263 326.17 242.3 325.651 241.438 324.926C240.562 324.209 239.841 323.303 239.274 322.209C238.708 321.115 238.384 320.003 238.304 318.874C238.209 317.752 238.34 316.665 238.697 315.615C239.04 314.573 239.588 313.613 240.341 312.736C241.102 311.873 242.043 311.151 243.165 310.57ZM243.894 311.976C242.999 312.44 242.252 313.016 241.654 313.705C241.048 314.415 240.612 315.19 240.345 316.032C240.071 316.894 239.969 317.776 240.039 318.677C240.117 319.592 240.387 320.497 240.851 321.392C241.315 322.287 241.894 323.023 242.589 323.6C243.292 324.191 244.07 324.616 244.926 324.876C245.774 325.157 246.659 325.248 247.581 325.149C248.495 325.071 249.4 324.801 250.295 324.337C251.19 323.873 251.94 323.286 252.545 322.576C253.158 321.88 253.601 321.101 253.875 320.238C254.142 319.397 254.244 318.515 254.181 317.593C254.111 316.692 253.844 315.794 253.38 314.899C252.924 314.018 252.345 313.282 251.642 312.691C250.926 312.107 250.143 311.675 249.295 311.394C248.44 311.134 247.547 311.047 246.618 311.132C245.697 311.231 244.789 311.512 243.894 311.976Z" fill="white"/>
<path d="M231.622 325.935L223.244 328.877L222.743 327.451L231.122 324.508L231.622 325.935ZM228.874 318.684L219.341 322.032L218.832 320.583L230.041 316.646L235.604 332.498L224.735 336.316L224.227 334.866L233.42 331.637L228.874 318.684Z" fill="white"/>
<path d="M198.932 325.154L206.951 332.047L205.716 333.185L196.934 325.567L198.932 325.154ZM210.189 322.823L213.593 339.274L211.901 339.625L208.497 323.173L210.189 322.823ZM210.575 330.61L210.891 332.138L205.744 333.204L205.428 331.676L210.575 330.61ZM205.366 332.204L207.022 332.155L202.571 341.557L200.691 341.946L205.366 332.204Z" fill="white"/>
<path d="M187.379 326.386L188.704 342.074L188.186 341.636L194.547 341.099L194.676 342.629L181.164 343.771L181.035 342.241L187.372 341.705L186.958 342.222L185.634 326.534L187.379 326.386Z" fill="white"/>
</svg>
