<svg width="1740" height="584" viewBox="0 0 1740 584" fill="none" xmlns="http://www.w3.org/2000/svg">
<g style="mix-blend-mode:overlay" opacity="0.14">
<path d="M0.982422 224H86.1824V139.1H225.682V224H310.582V0.799995H225.682V79.7H86.1824V0.799995H0.982422V224ZM522.104 132.2H448.004L484.604 55.4L522.104 132.2ZM566.804 224H660.104L543.404 0.799995H428.804L318.404 224H404.804L421.904 188H549.404L566.804 224ZM645.408 107V162.8H744.408V107H645.408ZM942.762 224L1047.46 0.799995H958.962L888.462 156.5L813.462 0.799995H716.862L829.662 224H942.762ZM1141.16 0.799995H1056.26V224H1141.16V0.799995ZM1168.17 224H1379.37C1451.97 224 1473.57 194.6 1473.57 159.5V155.9C1473.57 116.6 1442.07 103.1 1422.27 98.6C1436.97 95.3 1460.67 82.4 1460.67 54.8V51.5C1460.67 25.7 1443.27 0.799995 1378.17 0.799995H1168.17V224ZM1352.37 51.5C1370.07 51.5 1375.17 57.8 1375.17 66.8V67.4C1375.17 75.8 1370.07 83 1352.37 83H1253.37V51.5H1352.37ZM1357.77 133.1C1379.67 133.1 1384.17 142.1 1384.17 151.4V152.3C1384.17 161 1379.97 171.5 1357.77 171.5H1253.37V133.1H1357.77ZM1489.85 0.799995V224H1739.15V168.2H1573.85V137.6H1733.45V83.3H1573.85V55.4H1736.75V0.799995H1489.85ZM294.977 584H378.077V444.8L456.077 584H499.577L577.877 444.8V584H662.177V360.8H549.977L480.377 486.2L411.977 360.8H294.977V584ZM873.813 492.2H799.713L836.313 415.4L873.813 492.2ZM918.513 584H1011.81L895.113 360.8H780.513L670.112 584H756.513L773.613 548H901.113L918.513 584ZM1104.39 360.8H1019.49V584H1104.39V360.8ZM1131.4 360.8V584H1216V448.7L1355.8 584H1441V360.8H1356.4V487.7L1226.8 360.8H1131.4Z" fill="#5F8BFF"/>
</g>
</svg>
