<svg width="175" height="26" viewBox="0 0 175 26" fill="none" xmlns="http://www.w3.org/2000/svg">
<path d="M4.4 0.799998H0.8V26H4.4V15.2H22.4V26H26V0.799998H22.4V11.6H4.4V0.799998ZM49.393 4.4C51.373 4.4 52.993 6.02 52.993 8V15.2H34.993V8C34.993 6.02 36.613 4.4 38.593 4.4H49.393ZM56.593 8C56.485 4.004 53.245 0.799998 49.393 0.799998H38.593C34.561 0.799998 31.393 4.184 31.393 8V26H34.993V18.8H52.993V26H56.593V8ZM60.9059 15.2H77.1059V11.6H60.9059V15.2ZM89.5344 26H96.3744L105.554 8V0.799998H101.954V7.136L94.1784 22.4H91.7304L83.9544 7.136V0.799998H80.3544V8L89.5344 26ZM109.883 26H113.483V0.799998H109.883V26ZM136.89 26C140.922 25.892 144.09 22.688 144.09 18.8C144.09 16.64 143.262 14.84 141.642 13.4C143.262 11.96 144.09 10.16 144.09 8C144.09 4.004 140.67 0.799998 136.89 0.799998H118.89V26H136.89ZM136.89 15.2C138.87 15.2 140.49 16.82 140.49 18.8C140.49 20.78 138.87 22.4 136.89 22.4H122.49V15.2H136.89ZM122.49 4.4H136.89C138.87 4.4 140.49 6.02 140.49 8C140.49 9.98 138.87 11.6 136.89 11.6H122.49V4.4ZM152.731 4.4H174.331V0.799998H149.131V26H174.331V22.4H152.731V15.2H170.731V11.6H152.731V4.4Z" fill="white"/>
</svg>
