<svg width="102" height="15" viewBox="0 0 102 15" fill="none" xmlns="http://www.w3.org/2000/svg">
<path d="M2.65 0.299999H0.55V15H2.65V8.7H13.15V15H15.25V0.299999H13.15V6.6H2.65V0.299999ZM28.8959 2.4C30.0509 2.4 30.9959 3.345 30.9959 4.5V8.7H20.4959V4.5C20.4959 3.345 21.4409 2.4 22.5959 2.4H28.8959ZM33.0959 4.5C33.0329 2.169 31.1429 0.299999 28.8959 0.299999H22.5959C20.2439 0.299999 18.3959 2.274 18.3959 4.5V15H20.4959V10.8H30.9959V15H33.0959V4.5ZM35.6118 8.7H45.0618V6.6H35.6118V8.7ZM52.3117 15H56.3017L61.6567 4.5V0.299999H59.5567V3.996L55.0207 12.9H53.5927L49.0567 3.996V0.299999H46.9567V4.5L52.3117 15ZM64.1816 15H66.2816V0.299999H64.1816V15ZM79.9357 15C82.2877 14.937 84.1357 13.068 84.1357 10.8C84.1357 9.54 83.6527 8.49 82.7077 7.65C83.6527 6.81 84.1357 5.76 84.1357 4.5C84.1357 2.169 82.1407 0.299999 79.9357 0.299999H69.4357V15H79.9357ZM79.9357 8.7C81.0907 8.7 82.0357 9.645 82.0357 10.8C82.0357 11.955 81.0907 12.9 79.9357 12.9H71.5357V8.7H79.9357ZM71.5357 2.4H79.9357C81.0907 2.4 82.0357 3.345 82.0357 4.5C82.0357 5.655 81.0907 6.6 79.9357 6.6H71.5357V2.4ZM89.1766 2.4H101.777V0.299999H87.0766V15H101.777V12.9H89.1766V8.7H99.6766V6.6H89.1766V2.4Z" fill="white"/>
</svg>
