<?xml version="1.0" encoding="utf-8"?><svg viewBox="0 0 1920 1343" xmlns="http://www.w3.org/2000/svg" xmlns:xlink="http://www.w3.org/1999/xlink"><style>:root>svg{display:none}:root>svg:target{display:block}</style><svg viewBox="0 0 143 32" id="Logo-footer" xmlns="http://www.w3.org/2000/svg"><path d="M15.2 2.55l-3.75 10-10 3.75 10 3.75 3.75 10 3.75-10 10-3.75-10-3.75-3.75-10zM41.35 7.1h-2.1v14.7h2.1v-6.3h10.5v6.3h2.1V7.1h-2.1v6.3h-10.5V7.1zm26.246 2.1c1.155 0 2.1.946 2.1 2.1v4.2h-10.5v-4.2c0-1.154.945-2.1 2.1-2.1h6.3zm4.2 2.1c-.063-2.33-1.953-4.2-4.2-4.2h-6.3c-2.352 0-4.2 1.975-4.2 4.2v10.5h2.1v-4.2h10.5v4.2h2.1V11.3zm2.516 4.2h9.45v-2.1h-9.45v2.1zm16.7 6.3h3.99l5.355-10.5V7.1h-2.1v3.697L93.72 19.7h-1.428l-4.536-8.904V7.1h-2.1v4.2l5.355 10.5zm11.87 0h2.1V7.1h-2.1v14.7zm15.754 0c2.352-.062 4.2-1.931 4.2-4.2 0-1.26-.483-2.31-1.428-3.15.945-.84 1.428-1.89 1.428-3.15 0-2.33-1.995-4.2-4.2-4.2h-10.5v14.7h10.5zm0-6.3c1.155 0 2.1.946 2.1 2.1 0 1.156-.945 2.1-2.1 2.1h-8.4v-4.2h8.4zm-8.4-6.3h8.4c1.155 0 2.1.946 2.1 2.1 0 1.156-.945 2.1-2.1 2.1h-8.4V9.2zm17.641 0h12.6V7.1h-14.7v14.7h14.7v-2.1h-12.6v-4.2h10.5v-2.1h-10.5V9.2z"/><defs><linearGradient id="aa" x1="2.759" y1="5.446" x2="30.999" y2="6.547" gradientUnits="userSpaceOnUse"><stop stop-color="#2FFE5C"/><stop offset=".602" stop-color="#5EFF5E"/></linearGradient></defs></svg><svg viewBox="0 0 363 136" id="Select" xmlns="http://www.w3.org/2000/svg"><path clip-rule="evenodd" d="M359.866 29.582c11.735 29.675-58.576 70.994-157.045 92.289S15.014 136.373 3.279 106.698c-11.735-29.675 58.577-70.995 157.045-92.29C258.793-6.887 348.131-.093 359.866 29.582z"/><defs><linearGradient id="ba" x1="19.092" y1="15.924" x2="384.369" y2="54.592" gradientUnits="userSpaceOnUse"><stop stop-color="#2FFE5C"/><stop offset=".602" stop-color="#5EFF5E"/></linearGradient></defs></svg><svg viewBox="0 0 28 29" id="Vector" xmlns="http://www.w3.org/2000/svg"><path d="M13.75.75l-3.75 10L0 14.5l10 3.75 3.75 10 3.75-10 10-3.75-10-3.75-3.75-10z"/><defs><linearGradient id="ca" x1="1.309" y1="3.645" x2="29.549" y2="4.746" gradientUnits="userSpaceOnUse"><stop stop-color="#9600FF"/><stop offset=".602" stop-color="#AD6CFF"/></linearGradient></defs></svg><svg viewBox="0 0 363 362" id="case-btn" xmlns="http://www.w3.org/2000/svg"><path d="M326 180.706c0 79.805-64.919 144.5-145 144.5s-145-64.695-145-144.5 64.919-144.5 145-144.5 145 64.695 145 144.5z"/><path d="M180.067 150.009l1.189-3.971 1.19 3.971a43.632 43.632 0 0029.272 29.278l3.964 1.188-3.964 1.188a43.628 43.628 0 00-29.272 29.277l-1.19 3.971-1.189-3.971a43.628 43.628 0 00-29.272-29.277l-3.964-1.188 3.964-1.188a43.632 43.632 0 0029.272-29.278zM339.136 183.445l16.768 1.04-.875 14.109-16.768-1.04.109-1.748 15.714.974-.508.425.715-11.521.451.484-15.714-.974.108-1.749zm-3.37 28.394c.252-1.239.69-2.35 1.315-3.333a8.717 8.717 0 012.323-2.393 8.78 8.78 0 013.026-1.271c1.105-.216 2.261-.201 3.469.044 1.207.246 2.269.682 3.187 1.309a8.408 8.408 0 012.289 2.352 8.205 8.205 0 011.205 3.11c.209 1.137.187 2.332-.068 3.586-.252 1.239-.696 2.341-1.333 3.305a8.142 8.142 0 01-2.295 2.374 7.937 7.937 0 01-3.026 1.271c-1.109.232-2.267.225-3.474-.02-1.207-.246-2.276-.692-3.206-1.338a7.926 7.926 0 01-2.289-2.351c-.596-.922-1-1.95-1.209-3.087-.194-1.133-.166-2.319.086-3.558zm1.553.315c-.201.988-.222 1.931-.061 2.829.173.917.503 1.743.99 2.479a6.884 6.884 0 001.867 1.898c.761.514 1.635.871 2.623 1.072.988.201 1.924.212 2.81.033a6.559 6.559 0 002.46-1.019 6.212 6.212 0 001.879-1.895c.514-.761.872-1.635 1.072-2.623.201-.988.215-1.94.043-2.857a6.478 6.478 0 00-.986-2.503 7.074 7.074 0 00-1.867-1.898c-.745-.51-1.612-.866-2.599-1.067a7.121 7.121 0 00-2.81-.032 7.35 7.35 0 00-2.484 1.013 6.959 6.959 0 00-1.884 1.919 7.679 7.679 0 00-1.053 2.651zm-7.671 24.617l13.61 4.775 2.662-7.586-3.802-1.487a63.925 63.925 0 01-3.363-1.434 20.608 20.608 0 01-2.785-1.486c-.792-.498-1.398-1.016-1.82-1.554-.427-.523-.59-1.072-.49-1.648l.983-1.715c-.242.594-.198 1.169.132 1.725.325.572.873 1.112 1.645 1.62.766.523 1.696 1.036 2.792 1.539a66.356 66.356 0 003.589 1.514l5.077 1.985-3.75 10.689-15.06-5.284.58-1.653zm.197-14.48l4.997 1.779-5.952 16.962-5.005-1.756.548-1.562 3.556 1.247 4.855-13.837-3.548-1.27.549-1.563zm-4.513 22.865l15.046 7.473-2.797 5.632c-.634 1.275-1.386 2.268-2.257 2.979-.857.718-1.793 1.128-2.809 1.231-1.009.124-2.057-.084-3.146-.625-1.061-.527-1.853-1.233-2.378-2.119-.518-.864-.756-1.858-.716-2.982.04-1.123.376-2.323 1.01-3.598l2.359-4.75.4 1.083-5.502-2.734.79-1.59zm4.583 4.26l1.126-.325-2.338 4.707c-.747 1.504-.991 2.804-.73 3.898.268 1.115.996 1.969 2.186 2.559 1.203.598 2.33.667 3.381.206 1.044-.446 1.939-1.422 2.686-2.926l2.338-4.708.4 1.083-9.049-4.494zm-17.503 18.502c.703-1.05 1.531-1.911 2.482-2.584a8.707 8.707 0 013.058-1.331 8.77 8.77 0 013.282-.026c1.104.22 2.168.672 3.192 1.358 1.023.686 1.84 1.493 2.451 2.422a8.416 8.416 0 011.225 3.044 8.21 8.21 0 01-.068 3.335c-.237 1.131-.712 2.228-1.425 3.292-.703 1.05-1.533 1.9-2.488 2.551a8.135 8.135 0 01-3.025 1.324 7.923 7.923 0 01-3.282.026c-1.113-.206-2.181-.652-3.205-1.338-1.024-.685-1.843-1.504-2.458-2.455a7.925 7.925 0 01-1.224-3.044 8.444 8.444 0 01.053-3.315c.251-1.122.729-2.209 1.432-3.259zm1.316.882c-.561.837-.938 1.702-1.131 2.593a6.69 6.69 0 00-.025 2.669c.175.888.511 1.71 1.006 2.466.509.764 1.182 1.427 2.019 1.988.838.561 1.7.926 2.587 1.097a6.56 6.56 0 002.663-.008 6.233 6.233 0 002.458-1.039c.765-.509 1.427-1.182 1.988-2.02a7.362 7.362 0 001.124-2.626 6.458 6.458 0 00.039-2.69 7.063 7.063 0 00-1.006-2.465c-.495-.755-1.162-1.413-1.999-1.974a7.142 7.142 0 00-2.587-1.098 7.356 7.356 0 00-2.683-.005 6.951 6.951 0 00-2.472 1.059 7.676 7.676 0 00-1.981 2.053zm-9.67 10.871l12.653 11.052-8.084 9.255-1.139-.995 6.931-7.935-4.139-3.615-3.616 4.139c-1.305 1.494-2.601 2.358-3.89 2.593-1.286.257-2.52-.13-3.701-1.162-1.217-1.063-1.783-2.301-1.697-3.712.076-1.4.798-2.884 2.166-4.45l4.516-5.17zm-.086 2.251l-3.347 3.832c-1.021 1.169-1.567 2.244-1.637 3.224-.068 1.002.331 1.882 1.199 2.64 1.723 1.505 3.616 1.077 5.679-1.285l3.348-3.832-5.242-4.579zm-10.685 32.469l-1.31 1.163-11.149-12.568 1.311-1.163 11.148 12.568zm-3.284-19.544l1.329-1.178 11.148 12.568-1.329 1.178-11.148-12.568zm-2.845 12.887l8.133-7.215 1.035 1.167-8.133 7.215-1.035-1.167zm-7.596 7.793l-7.284 5.08-.865-1.24 7.284-5.081.865 1.241zm-4.593-6.249l-8.287 5.781-.879-1.26 9.744-6.796 9.612 13.779-9.449 6.59-.879-1.26 7.992-5.574-7.854-11.26zm-10.211 15.876l-7.781 4.279-.729-1.325 7.782-4.279.728 1.325zm-3.903-6.7l-8.854 4.868-.74-1.346 10.41-5.724 8.095 14.722-10.095 5.55-.74-1.346 8.538-4.694-6.614-12.03zm-26.671 10.452c1.19-.425 2.368-.625 3.532-.599a8.73 8.73 0 013.25.751 8.77 8.77 0 012.652 1.933c.757.834 1.342 1.831 1.756 2.992.414 1.16.59 2.295.528 3.405a8.429 8.429 0 01-.829 3.175 8.218 8.218 0 01-2.039 2.639c-.865.768-1.9 1.366-3.105 1.797-1.19.425-2.363.614-3.518.568a8.141 8.141 0 01-3.219-.737 7.926 7.926 0 01-2.652-1.933c-.772-.829-1.365-1.823-1.779-2.983-.414-1.161-.585-2.306-.513-3.436a7.933 7.933 0 01.829-3.175 8.445 8.445 0 012.016-2.632c.87-.752 1.9-1.34 3.091-1.765zm.532 1.491c-.949.339-1.767.81-2.452 1.411a6.678 6.678 0 00-1.61 2.129 6.89 6.89 0 00-.659 2.58c-.046.917.1 1.85.439 2.799.339.95.814 1.757 1.425 2.422a6.542 6.542 0 002.144 1.579 6.226 6.226 0 002.594.629c.917.046 1.85-.1 2.799-.439a7.362 7.362 0 002.467-1.441 6.473 6.473 0 001.633-2.138 7.068 7.068 0 00.659-2.579c.052-.902-.092-1.828-.431-2.777a7.113 7.113 0 00-1.425-2.422 7.369 7.369 0 00-2.152-1.602 6.958 6.958 0 00-2.617-.62 7.682 7.682 0 00-2.814.469zm-31.633 6.397l7.826 7.113-1.266 1.103-8.568-7.858 2.008-.358zm11.318-2.018l2.948 16.54-1.701.303-2.948-16.539 1.701-.304zm.17 7.795l.274 1.536-5.174.923-.274-1.536 5.174-.923zm-5.251 1.449l1.657-.003-4.709 9.274-1.89.337 4.942-9.608zm-13.293 2.841l-8.859.614-.104-1.508 8.859-.614.104 1.508zm-.728-7.72l-10.079.699-.107-1.533 11.852-.821 1.162 16.759-11.493.797-.106-1.532 9.721-.674-.95-13.695zm-15.633-.8l-.84 16.779-1.75-.088.696-13.902-11.434 13.365-1.606-.081.839-16.779 1.75.088-.694 13.879 11.433-13.342 1.606.081zm-7.9 17.651c1.198.06 2.135.379 2.811.958.66.577.974 1.354.941 2.33l-1.318-.066c.016-.64-.199-1.156-.644-1.547-.461-.391-1.075-.606-1.842-.644-.767-.039-1.391.114-1.873.459-.498.343-.771.834-.819 1.473l-1.318-.066c.065-.974.462-1.716 1.192-2.224.731-.508 1.687-.732 2.87-.673zm-20.006-20.62c1.244.222 2.358.632 3.34 1.229a8.433 8.433 0 012.425 2.261 8.41 8.41 0 011.343 2.994c.243 1.1.256 2.256.04 3.469s-.628 2.293-1.236 3.241a8.411 8.411 0 01-2.295 2.346 8.4 8.4 0 01-3.077 1.256c-1.131.237-2.319.244-3.563.022a9.385 9.385 0 01-3.269-1.216 6.78 6.78 0 01-2.35-2.272l1.309-.912c.553.813 1.213 1.443 1.979 1.888a7.438 7.438 0 002.562.945 7.367 7.367 0 002.857-.027 6.47 6.47 0 002.478-1.046 6.875 6.875 0 001.876-1.908c.492-.757.827-1.632 1.004-2.624.177-.993.167-1.937-.031-2.834a7.216 7.216 0 00-1.101-2.439 6.946 6.946 0 00-1.964-1.837 7.677 7.677 0 00-2.676-.989 7.41 7.41 0 00-2.73.001c-.876.169-1.714.539-2.515 1.111l-.912-1.308a7.002 7.002 0 012.994-1.343c1.128-.222 2.299-.224 3.512-.008zm-8.761-1.525L130.78 347.7l-1.677-.507-2.482-18.305 1.792.542 2.183 17.137-.689-.209 11.323-13.047 1.769.536zm-4.195 3.419l-.923 1.225-9.349-2.831-.088-1.531 10.36 3.137zm-20.819 6.204l-1.874-.807-1.759-7.994-6.993 4.228-1.917-.826 8.456-5.139-2.234-10.472 1.918.825 1.928 8.694 7.639-4.576 1.874.806-9.09 5.52 2.052 9.741zm-15.788-26.046l-8.998 14.188-11.938-7.571 8.998-14.187 1.48.938-8.432 13.296-.128-.65 9.748 6.183-.642.161 8.432-13.296 1.48.938zM79.303 301.06c.966.815 1.732 1.731 2.296 2.751a8.71 8.71 0 01.987 3.185 8.775 8.775 0 01-.334 3.265c-.34 1.074-.906 2.082-1.7 3.024-.794.942-1.686 1.665-2.676 2.17a8.404 8.404 0 01-3.161.883 8.218 8.218 0 01-3.307-.432c-1.098-.361-2.137-.953-3.116-1.778-.966-.815-1.72-1.732-2.262-2.753a8.136 8.136 0 01-.984-3.152 7.936 7.936 0 01.334-3.265c.327-1.084.888-2.097 1.682-3.039.794-.943 1.697-1.667 2.71-2.174 1-.517 2.054-.811 3.16-.883a8.445 8.445 0 013.29.417c1.087.373 2.114.967 3.08 1.781zm-1.02 1.211c-.772-.649-1.59-1.119-2.454-1.408a6.675 6.675 0 00-2.65-.319 6.9 6.9 0 00-2.561.73c-.816.422-1.548 1.018-2.198 1.789-.65.771-1.108 1.588-1.375 2.451a6.557 6.557 0 00-.284 2.647c.064.892.319 1.744.763 2.558.422.815 1.018 1.548 1.789 2.198a7.37 7.37 0 002.487 1.405 6.47 6.47 0 002.67.334 7.05 7.05 0 002.56-.73c.805-.409 1.532-.999 2.182-1.77a7.134 7.134 0 001.374-2.451 7.367 7.367 0 00.3-2.666 6.955 6.955 0 00-.781-2.573 7.698 7.698 0 00-1.823-2.195zm-17.918-18.477l-10.69 9.685 5.4 5.958 3.12-2.633a63.345 63.345 0 012.864-2.271 20.69 20.69 0 012.634-1.739c.816-.459 1.56-.745 2.234-.859.664-.126 1.224-.007 1.682.355l1.039 1.682c-.406-.495-.933-.731-1.58-.706-.657.013-1.393.237-2.208.673-.825.423-1.72.997-2.684 1.719a66.985 66.985 0 00-3.043 2.433l-4.166 3.516-7.606-8.395 11.827-10.716 1.177 1.298zm12.632 7.079l-3.947 3.544-12.07-13.321 3.931-3.562 1.112 1.228-2.792 2.53 9.846 10.866 2.808-2.512 1.112 1.227zm-18.056-15.011l-13.75 9.654-3.613-5.146c-.818-1.165-1.331-2.3-1.54-3.405-.222-1.095-.135-2.114.26-3.056.371-.945 1.055-1.767 2.05-2.466.97-.681 1.968-1.04 2.997-1.078 1.007-.042 1.994.222 2.962.794.968.571 1.862 1.44 2.68 2.605l3.048 4.341-1.143-.166 5.028-3.53 1.021 1.453zm-5.931 1.995l-.252 1.144-3.02-4.301c-.966-1.375-1.991-2.209-3.077-2.503-1.108-.297-2.206-.064-3.292.699-1.1.773-1.699 1.73-1.795 2.873-.106 1.13.324 2.383 1.29 3.758l3.02 4.301-1.143-.165 8.269-5.806zm-7.876-24.131c.587 1.119.95 2.257 1.087 3.414a8.706 8.706 0 01-.29 3.322 8.777 8.777 0 01-1.542 2.897c-.72.866-1.626 1.585-2.717 2.157-1.09.573-2.19.906-3.297.999a8.41 8.41 0 01-3.26-.376 8.204 8.204 0 01-2.9-1.65c-.88-.749-1.618-1.689-2.212-2.823-.588-1.119-.94-2.254-1.055-3.404a8.13 8.13 0 01.28-3.29 7.941 7.941 0 011.542-2.897c.713-.88 1.614-1.606 2.705-2.178 1.091-.573 2.201-.902 3.33-.989a7.94 7.94 0 013.26.376 8.422 8.422 0 012.888 1.629c.866.756 1.593 1.693 2.18 2.813zm-1.403.736c-.468-.893-1.048-1.637-1.74-2.231a6.663 6.663 0 00-2.333-1.296 6.878 6.878 0 00-2.647-.292c-.915.082-1.818.358-2.71.826-.893.469-1.626 1.052-2.2 1.75a6.562 6.562 0 00-1.263 2.344 6.23 6.23 0 00-.259 2.657c.082.914.358 1.817.826 2.71a7.36 7.36 0 001.772 2.241 6.46 6.46 0 002.345 1.317 7.06 7.06 0 002.647.292c.9-.075 1.797-.347 2.69-.815a7.124 7.124 0 002.198-1.75 7.368 7.368 0 001.285-2.355 6.95 6.95 0 00.248-2.678 7.676 7.676 0 00-.859-2.72zm-4.989-13.752l-15.767 5.8-4.243-11.532 1.42-.522 3.637 9.888 5.158-1.897-1.898-5.158c-.685-1.862-.821-3.415-.409-4.658.392-1.252 1.323-2.149 2.795-2.69 1.517-.558 2.874-.461 4.071.292 1.192.738 2.148 2.083 2.866 4.035l2.37 6.442zm-1.934-1.155l-1.757-4.776c-.536-1.456-1.217-2.45-2.043-2.981-.847-.541-1.811-.613-2.892-.215-2.148.79-2.68 2.656-1.597 5.6l1.757 4.775 6.532-2.403zM9.504 214.977l-.395-1.706 16.367-3.787.395 1.707-16.367 3.786zm18.737 6.455l.4 1.731-16.368 3.786-.4-1.73 16.368-3.787zm-9.96-8.658l2.45 10.593-1.52.351-2.45-10.592 1.52-.352zm-3.204-10.381l-.96-8.828 1.504-.164.96 8.828-1.504.164zm7.686-1.029l-1.092-10.045 1.527-.166 1.284 11.811-16.702 1.815-1.245-11.452 1.527-.166 1.053 9.687 13.648-1.484zm-9.051-17.074v-8.88h1.512v8.88h-1.512zm7.752-.192v-10.104H23v11.88H6.2v-11.52h1.536v9.744h13.728zm3.692-28.581c-.204 1.247-.599 2.374-1.185 3.381a8.704 8.704 0 01-2.23 2.48 8.781 8.781 0 01-2.975 1.386c-1.096.258-2.252.288-3.468.089-1.216-.199-2.294-.594-3.235-1.186a8.409 8.409 0 01-2.378-2.262 8.207 8.207 0 01-1.323-3.062c-.253-1.127-.276-2.323-.07-3.586.205-1.247.607-2.365 1.206-3.353a8.134 8.134 0 012.202-2.461 7.954 7.954 0 012.975-1.386c1.099-.274 2.256-.311 3.472-.113 1.216.199 2.3.604 3.255 1.214a7.927 7.927 0 012.378 2.262 8.432 8.432 0 011.326 3.038c.238 1.125.255 2.311.05 3.559zm-1.563-.256c.163-.995.147-1.938-.048-2.829a6.685 6.685 0 00-1.084-2.439 6.894 6.894 0 00-1.939-1.825c-.78-.484-1.667-.808-2.662-.971-.994-.163-1.93-.137-2.809.076a6.58 6.58 0 00-2.42 1.111 6.23 6.23 0 00-1.804 1.967c-.485.78-.808 1.667-.971 2.662a7.369 7.369 0 00.068 2.856 6.466 6.466 0 001.08 2.463 7.055 7.055 0 001.939 1.825c.764.482 1.643.804 2.638.967a7.14 7.14 0 002.81-.075 7.39 7.39 0 002.442-1.108 6.964 6.964 0 001.81-1.99 7.683 7.683 0 00.95-2.69zm9.727-30.959l-10.017 3.395-.35-1.643 11.027-3.682-.66 1.93zm-3.725 10.876l-15.894-5.442.56-1.635 15.894 5.442-.56 1.635zm-6.9-3.631l-1.476-.505 1.703-4.973 1.476.506-1.703 4.972zm1.28-5.295l-.8 1.451-5.828-8.616.622-1.817 6.007 8.982zm3.861-12.817l3.772-8.039 1.369.642-3.772 8.039-1.369-.642zm7.1 3.119l4.291-9.148 1.39.653-5.045 10.755-15.21-7.136 4.894-10.429 1.39.652-4.138 8.822 12.428 5.831zm7.867-12.599l-14.26-8.883.926-1.487 11.815 7.36-6.13-16.486.85-1.365 14.26 8.883-.926 1.487-11.795-7.347 6.11 16.473-.85 1.365zM31.21 88.477c-.635 1.018-1.37 1.682-2.203 1.992-.826.297-1.657.194-2.494-.309l.698-1.12c.552.325 1.107.387 1.664.188.567-.213 1.053-.645 1.459-1.297.406-.652.575-1.272.508-1.86-.058-.602-.355-1.08-.89-1.431l.698-1.12c.82.529 1.275 1.236 1.364 2.121.09.886-.178 1.83-.804 2.836zm27.562-7.361c-.796.982-1.694 1.758-2.692 2.328a8.435 8.435 0 01-3.152 1.028 8.413 8.413 0 01-3.27-.273c-1.08-.32-2.098-.868-3.055-1.644-.957-.776-1.703-1.66-2.239-2.65a8.413 8.413 0 01-.941-3.144 8.391 8.391 0 01.39-3.3c.34-1.104.907-2.147 1.704-3.129a9.4 9.4 0 012.647-2.272 6.78 6.78 0 013.125-.957l.165 1.587c-.98.09-1.85.363-2.61.817a7.427 7.427 0 00-2.067 1.786 7.373 7.373 0 00-1.359 2.513 6.466 6.466 0 00-.284 2.674c.081.89.335 1.745.762 2.566.424.797 1.028 1.513 1.81 2.148.783.635 1.615 1.083 2.495 1.344a7.24 7.24 0 002.668.217 6.952 6.952 0 002.558-.83 7.681 7.681 0 002.16-1.863 7.425 7.425 0 001.321-2.39c.276-.847.357-1.76.243-2.738l1.587-.165a7.004 7.004 0 01-.273 3.27 9.47 9.47 0 01-1.693 3.077zm5.898-7.344L58.504 56.36l1.259-1.218 17.203 6.728-1.345 1.302-16.037-6.42.517-.502L66 72.487l-1.328 1.285zm-.948-5.327l-.623-1.402 7.018-6.795 1.381.668-7.776 7.529zm4.138-20.812l1.61-1.25 7.85 2.322-.323-8.165 1.65-1.28.413 9.886 10.248 3.104-1.649 1.28-8.544-2.512.316 8.9-1.611 1.25-.44-10.625-9.52-2.91zm30.295-1.278L90.06 31.634l12.387-6.811 8.094 14.722-1.535.844-7.586-13.797.631.201-10.116 5.562.169-.64L99.69 45.51l-1.535.844zm25.88-12.446c-1.18.452-2.353.678-3.518.678a8.713 8.713 0 01-3.266-.678 8.787 8.787 0 01-2.695-1.873c-.775-.817-1.382-1.8-1.823-2.952-.44-1.15-.641-2.28-.603-3.392a8.395 8.395 0 01.757-3.193 8.213 8.213 0 011.979-2.684c.847-.787 1.868-1.409 3.064-1.866 1.18-.452 2.348-.667 3.504-.647a8.133 8.133 0 013.235.664 7.942 7.942 0 012.695 1.873c.79.811 1.405 1.792 1.845 2.943.44 1.15.637 2.292.59 3.423a7.935 7.935 0 01-.757 3.193 8.435 8.435 0 01-1.957 2.676c-.853.772-1.869 1.383-3.05 1.835zm-.566-1.48c.942-.36 1.748-.848 2.42-1.465a6.672 6.672 0 001.562-2.165 6.903 6.903 0 00.601-2.594c.026-.917-.142-1.847-.502-2.789-.36-.941-.853-1.737-1.479-2.389a6.56 6.56 0 00-2.179-1.53 6.222 6.222 0 00-2.607-.57c-.918-.026-1.848.141-2.789.501a7.364 7.364 0 00-2.434 1.497 6.464 6.464 0 00-1.584 2.173c-.36.806-.56 1.67-.601 2.594-.032.903.133 1.825.493 2.767a7.115 7.115 0 001.479 2.389 7.373 7.373 0 002.187 1.553 6.954 6.954 0 002.63.561 7.676 7.676 0 002.803-.533zm24.866-6.757l-3.284-14.045-7.829 1.83.789 4.006c.241 1.242.44 2.444.597 3.607a20.61 20.61 0 01.243 3.147c.005.935-.106 1.726-.333 2.37-.212.641-.587 1.074-1.126 1.299l-1.975.092c.63-.115 1.092-.461 1.384-1.039.307-.581.468-1.333.483-2.257.029-.927-.038-1.987-.202-3.181a66.776 66.776 0 00-.652-3.841l-1.053-5.349 11.03-2.579 3.634 15.54-1.706.4zm-12.318 7.613l-1.184-5.17 17.503-4.094 1.208 5.165-1.612.377-.858-3.669-14.279 3.339.834 3.674-1.612.378zm21.065-8.432L155.278 8.15l6.252-.675c1.416-.153 2.658-.054 3.725.298 1.067.335 1.917.903 2.55 1.704.648.783 1.037 1.779 1.168 2.988.127 1.177-.042 2.225-.506 3.144-.449.902-1.158 1.638-2.127 2.21-.968.57-2.16.933-3.576 1.086l-5.273.57.697-.921.66 6.109-1.766.19zm1.122-6.156l-.88-.774 5.225-.564c1.67-.18 2.896-.675 3.678-1.484.796-.826 1.123-1.9.98-3.22-.144-1.336-.693-2.322-1.647-2.96-.938-.639-2.243-.868-3.913-.688l-5.225.565.697-.92 1.085 10.045zm25.717 4.676c-1.264-.029-2.435-.264-3.513-.705a8.715 8.715 0 01-2.765-1.864 8.765 8.765 0 01-1.785-2.754c-.408-1.05-.598-2.19-.57-3.422.029-1.232.271-2.355.726-3.369a8.41 8.41 0 011.911-2.668 8.198 8.198 0 012.848-1.735c1.082-.407 2.263-.596 3.542-.566 1.264.029 2.427.272 3.488.729a8.125 8.125 0 012.743 1.84 7.94 7.94 0 011.785 2.753c.423 1.05.621 2.191.593 3.423-.029 1.232-.279 2.362-.751 3.391a7.93 7.93 0 01-1.91 2.669 8.427 8.427 0 01-2.825 1.735c-1.081.391-2.253.572-3.517.543zm.036-1.583c1.008.023 1.94-.124 2.795-.44a6.691 6.691 0 002.266-1.412 6.898 6.898 0 001.538-2.173c.372-.84.569-1.763.592-2.771.024-1.008-.131-1.932-.464-2.772a6.547 6.547 0 00-1.437-2.241 6.225 6.225 0 00-2.197-1.515c-.84-.372-1.764-.57-2.771-.593a7.373 7.373 0 00-2.82.463 6.474 6.474 0 00-2.289 1.412 7.06 7.06 0 00-1.538 2.173c-.372.824-.569 1.74-.592 2.747a7.132 7.132 0 00.464 2.772 7.36 7.36 0 001.436 2.265 6.955 6.955 0 002.222 1.516 7.68 7.68 0 002.795.569zm14.211 2.19l2.506-16.612 12.15 1.833-.225 1.495-10.419-1.571-.819 5.434 5.434.82c1.962.296 3.388.924 4.279 1.883.909.946 1.247 2.195 1.013 3.745-.241 1.598-.98 2.74-2.216 3.428-1.22.69-2.859.88-4.916.57l-6.787-1.024zm1.944-1.138l5.031.759c1.534.231 2.733.113 3.597-.356.882-.482 1.408-1.292 1.58-2.431.341-2.263-1.038-3.628-4.139-4.096l-5.031-.758-1.038 6.882zm33.003-8.616l1.686.476-4.564 16.168-1.687-.476 4.565-16.168zm-14.681 13.312l-1.709-.482 4.564-16.168 1.709.482-4.564 16.168zm12.384-4.559l-10.463-2.953.424-1.502 10.463 2.954-.424 1.501zm11.066 2.282l8.195 3.42-.582 1.395-8.195-3.42.582-1.395zm-2.808 7.229l9.325 3.89-.591 1.418-10.964-4.575 6.468-15.504 10.632 4.435-.591 1.418-8.993-3.752-5.286 12.67zm19.376.3l7.781 4.278-.728 1.325-7.782-4.278.729-1.325zm-3.567 6.885l8.854 4.868-.74 1.346-10.41-5.724 8.094-14.721 10.095 5.55-.74 1.346-8.539-4.695-6.614 12.03zm23.195 16.941c-.996-.78-1.794-1.667-2.394-2.666-.579-1-.946-2.05-1.103-3.147a8.764 8.764 0 01.215-3.275c.3-1.085.83-2.113 1.589-3.084.759-.97 1.624-1.725 2.596-2.266a8.406 8.406 0 013.126-.997 8.21 8.21 0 013.321.312c1.11.32 2.17.874 3.178 1.663.995.779 1.782 1.668 2.361 2.67a8.126 8.126 0 011.098 3.113 7.927 7.927 0 01-.215 3.275c-.288 1.095-.811 2.128-1.57 3.098-.759.97-1.636 1.727-2.629 2.27a7.936 7.936 0 01-3.127.998 8.437 8.437 0 01-3.302-.297c-1.1-.333-2.148-.889-3.144-1.667zm.976-1.248c.794.621 1.628 1.06 2.503 1.318a6.681 6.681 0 002.66.222 6.892 6.892 0 002.533-.822c.799-.451 1.51-1.074 2.131-1.868.621-.794 1.049-1.627 1.284-2.5.246-.884.308-1.77.189-2.655a6.248 6.248 0 00-.856-2.528c-.452-.8-1.074-1.51-1.868-2.131a7.376 7.376 0 00-2.537-1.315 6.469 6.469 0 00-2.679-.236 7.06 7.06 0 00-2.532.822c-.79.439-1.496 1.055-2.117 1.849a7.126 7.126 0 00-1.284 2.5 7.339 7.339 0 00-.203 2.674c.119.886.411 1.733.875 2.543a7.67 7.67 0 001.901 2.127zm22.348 23.189l1.796-10.422 1.611.475-2.027 11.448-1.38-1.501zm-7.781-8.463l12.367-11.37 1.17 1.272-12.367 11.37-1.17-1.272zm6.484-4.33l1.148-1.057 3.557 3.87-1.148 1.055-3.557-3.869zm4.042 3.65l-.893-1.395 10.353-1.01 1.299 1.414-10.759.992zm9.163 9.146l5.287 7.134-1.215.9-5.287-7.134 1.215-.9zm-6.114 4.77l6.016 8.117-1.234.915-7.073-9.545 13.497-10.002 6.859 9.255-1.234.915-5.801-7.83-11.03 8.175zm7.811 13.591l14.608-8.298.865 1.524-12.103 6.875 17.414 2.474.794 1.398-14.608 8.298-.865-1.524 12.083-6.863-17.394-2.486-.794-1.398zm19.134-2.809c-.593-1.043-.827-2.005-.701-2.886.133-.867.62-1.548 1.461-2.044l.652 1.147c-.549.33-.869.788-.96 1.373-.082.6.066 1.233.445 1.9.379.668.844 1.113 1.393 1.335.557.236 1.118.202 1.682-.1l.652 1.148c-.857.468-1.695.53-2.516.187-.821-.344-1.523-1.03-2.108-2.06zm-6.585 28.016c-.481-1.169-.732-2.329-.755-3.478a8.442 8.442 0 01.606-3.26 8.418 8.418 0 011.805-2.74c.798-.795 1.766-1.427 2.906-1.896 1.139-.468 2.272-.7 3.398-.696a8.412 8.412 0 013.211.678 8.399 8.399 0 012.711 1.921c.807.828 1.451 1.826 1.932 2.995a9.384 9.384 0 01.727 3.411 6.776 6.776 0 01-.655 3.202l-1.472-.614c.389-.904.566-1.799.531-2.684a7.42 7.42 0 00-.578-2.669 7.383 7.383 0 00-1.556-2.396 6.487 6.487 0 00-2.212-1.53 6.864 6.864 0 00-2.617-.558c-.904-.01-1.822.178-2.754.561-.932.383-1.723.899-2.374 1.547a7.239 7.239 0 00-1.467 2.238 6.944 6.944 0 00-.496 2.643 7.67 7.67 0 00.602 2.789 7.397 7.397 0 001.466 2.303c.612.648 1.375 1.156 2.287 1.525l-.614 1.472a7.004 7.004 0 01-2.741-1.805 9.498 9.498 0 01-1.891-2.959zm3.269 7.68l18.249 2.865.473 1.687-14.107 11.926-.505-1.802 13.281-11.047.194.693-17.086-2.542-.499-1.78zm5.138 1.702l1.529.12 2.634 9.406-1.244.897-2.919-10.423zm16.535 14.6l.321 2.015-5.811 5.764 7.314 3.645.329 2.061-8.867-4.392-7.651 7.492-.329-2.062 6.312-6.282-7.954-4.003-.322-2.015 9.528 4.725 7.13-6.948z"/></svg><svg viewBox="0 0 1265 1343" id="color-a" xmlns="http://www.w3.org/2000/svg"><g filter="url(#ea)"><path d="M411.516 999.184c-157.974-86.357-112.076-280.901-69.38-367.379l-8.476-10.507 206.305-319.961c83.311 64.274 279.154 244.024 396.04 448.838 146.105 256.015-327.022 356.955-524.489 249.009z"/><path d="M411.516 999.184c-157.974-86.357-112.076-280.901-69.38-367.379l-8.476-10.507 206.305-319.961c83.311 64.274 279.154 244.024 396.04 448.838 146.105 256.015-327.022 356.955-524.489 249.009z"/></g><defs><linearGradient id="eb" x1="804.056" y1="1037.28" x2="340.307" y2="462.4" gradientUnits="userSpaceOnUse"><stop stop-color="#45E4FF"/><stop offset="1" stop-color="#004AC4"/></linearGradient><filter id="ea" x=".812" y=".609" width="1263.25" height="1341.89" filterUnits="userSpaceOnUse" color-interpolation-filters="sRGB"><feFlood flood-opacity="0" result="BackgroundImageFix"/><feBlend in="SourceGraphic" in2="BackgroundImageFix" result="shape"/><feGaussianBlur stdDeviation="150" result="effect1_foregroundBlur_42_1735"/></filter></defs></svg><svg viewBox="0 0 1920 1080" id="color-b" xmlns="http://www.w3.org/2000/svg"><g filter="url(#fa)"><path d="M861.731 542.079c190.649-112.523 79.438-315.604 0-403.079-130.442 0-396.665 26.438-418.022 132.189-26.697 132.189-314.498 117.863-258.5 255.913 55.997 138.05 229.196 70.327 129.573 258.518-99.624 188.19 461.651 203.168 461.651 94.421s-153.017-197.307 85.298-337.962z"/></g><g filter="url(#fb)"><path d="M1571.27 958.921c-190.65 112.519-79.44 315.609 0 403.079 130.44 0 396.66-26.44 418.02-132.19 26.7-132.19 314.5-117.86 258.5-255.912-56-138.05-229.2-70.327-129.57-258.518 99.62-188.19-461.65-203.168-461.65-94.421s153.01 197.307-85.3 337.962z"/></g><g filter="url(#fc)"><path d="M271 766.5L-194 1096V159l925.5-20-282 230L271 766.5z"/></g><g filter="url(#fd)"><path d="M1041.5 1019.5L1160 681l201-248 256.5-33.5 88.5-157L1852.5 357l108 632-919 30.5z"/></g><g filter="url(#fe)"><path d="M787.19 897.622l352.18 205.638 181.76-252.979-22.89-297.193-334.929-12.847L787.19 897.622z"/><path d="M787.19 897.622l352.18 205.638 181.76-252.979-22.89-297.193-334.929-12.847L787.19 897.622z"/></g><g filter="url(#ff)"><path d="M547.965 691.499C333.94 704.203 415.57 380.477 483.139 217.027l-10.964-7.878 317.819-647.141c111.211 20.594 370.106 110.766 515.986 306.701 182.35 244.919-490.484 806.91-758.015 822.79z"/><path d="M547.965 691.499C333.94 704.203 415.57 380.477 483.139 217.027l-10.964-7.878 317.819-647.141c111.211 20.594 370.106 110.766 515.986 306.701 182.35 244.919-490.484 806.91-758.015 822.79z"/></g><g filter="url(#fh)"><path d="M717.285 207.153c-55.279 113.956 195.699 663.933 328.095 924.677l-148.406 132.86c-52.567-103.64-196.228-339.228-350.337-452.417C354 670.787 786.384 64.709 717.285 207.153z"/></g><g filter="url(#fi)"><path d="M745.459 746.253c57.035-110.23 381.291 168.263 536.291 321.287-96.67 134.54-305.847 421.05-369.233 490.76-79.233 87.14-167.433-258.82-227.886-382.91-60.453-124.09 185.014-64.7 227.567-150.49 42.552-85.791-238.034-140.858-166.739-278.647z"/></g><defs><filter id="fa" x="-122" y="-161" width="1389" height="1409" filterUnits="userSpaceOnUse" color-interpolation-filters="sRGB"><feFlood flood-opacity="0" result="BackgroundImageFix"/><feBlend in="SourceGraphic" in2="BackgroundImageFix" result="shape"/><feGaussianBlur stdDeviation="150" result="effect1_foregroundBlur_39_1734"/></filter><filter id="fb" x="1166" y="253" width="1389" height="1409" filterUnits="userSpaceOnUse" color-interpolation-filters="sRGB"><feFlood flood-opacity="0" result="BackgroundImageFix"/><feBlend in="SourceGraphic" in2="BackgroundImageFix" result="shape"/><feGaussianBlur stdDeviation="150" result="effect1_foregroundBlur_39_1734"/></filter><filter id="fc" x="-494" y="-161" width="1525.5" height="1557" filterUnits="userSpaceOnUse" color-interpolation-filters="sRGB"><feFlood flood-opacity="0" result="BackgroundImageFix"/><feBlend in="SourceGraphic" in2="BackgroundImageFix" result="shape"/><feGaussianBlur stdDeviation="150" result="effect1_foregroundBlur_39_1734"/></filter><filter id="fd" x="741.5" y="-57.5" width="1519" height="1377" filterUnits="userSpaceOnUse" color-interpolation-filters="sRGB"><feFlood flood-opacity="0" result="BackgroundImageFix"/><feBlend in="SourceGraphic" in2="BackgroundImageFix" result="shape"/><feGaussianBlur stdDeviation="150" result="effect1_foregroundBlur_39_1734"/></filter><filter id="fe" x="421.746" y="189.035" width="1250.64" height="1280.33" filterUnits="userSpaceOnUse" color-interpolation-filters="sRGB"><feFlood flood-opacity="0" result="BackgroundImageFix"/><feBlend in="SourceGraphic" in2="BackgroundImageFix" result="shape"/><feGaussianBlur stdDeviation="150" result="effect1_foregroundBlur_39_1734"/></filter><filter id="ff" x="109.361" y="-738.553" width="1528.02" height="1730.92" filterUnits="userSpaceOnUse" color-interpolation-filters="sRGB"><feFlood flood-opacity="0" result="BackgroundImageFix"/><feBlend in="SourceGraphic" in2="BackgroundImageFix" result="shape"/><feGaussianBlur stdDeviation="150" result="effect1_foregroundBlur_39_1734"/></filter><filter id="fh" x="196.765" y="-114.366" width="1148.62" height="1679.06" filterUnits="userSpaceOnUse" color-interpolation-filters="sRGB"><feFlood flood-opacity="0" result="BackgroundImageFix"/><feBlend in="SourceGraphic" in2="BackgroundImageFix" result="shape"/><feGaussianBlur stdDeviation="150" result="effect1_foregroundBlur_39_1734"/></filter><filter id="fi" x="375.107" y="421.088" width="1206.64" height="1451.12" filterUnits="userSpaceOnUse" color-interpolation-filters="sRGB"><feFlood flood-opacity="0" result="BackgroundImageFix"/><feBlend in="SourceGraphic" in2="BackgroundImageFix" result="shape"/><feGaussianBlur stdDeviation="150" result="effect1_foregroundBlur_39_1734"/></filter><linearGradient id="fg" x1="1095.41" y1="402.766" x2="495.571" y2="-28.212" gradientUnits="userSpaceOnUse"><stop stop-color="#06B6D4"/><stop offset="1" stop-color="#3B82F6"/></linearGradient><linearGradient id="fj" x1="1102.66" y1="1316.79" x2="596.266" y2="952.952" gradientUnits="userSpaceOnUse"><stop stop-color="#06B6D4"/><stop offset="1" stop-color="#3B82F6"/></linearGradient></defs></svg><svg viewBox="0 0 24 24" id="companies-icon" xmlns="http://www.w3.org/2000/svg"><path d="M15 9l-9 9M14.994 6.003L15 9.006 18.003 9l-.006-3.003-3.003.006zM3 18v3h3v-3H3zm17 2l3-3V2h-3v18z"/><path d="M4 4l3-3h15v3H4z"/><path d="M20.956 2.015l1.015 1.014 1.014-1.014L21.971 1l-1.015 1.015z"/></svg><svg viewBox="0 0 502.664 502.664" id="icon" xmlns="http://www.w3.org/2000/svg"><path d="M153.821 358.226L0 274.337v-46.463l153.821-83.414v54.574L46.636 250.523l107.185 53.431v54.272zm26.273 29.358L282.103 115.08h32.227L212.084 387.584h-31.99zm168.749-29.358v-54.272l107.164-52.999-107.164-52.59v-53.927l153.821 83.522v46.183l-153.821 84.083z"/></svg><svg viewBox="0 0 149 31" id="logo" xmlns="http://www.w3.org/2000/svg"><path d="M13.75 1.75l-3.75 10L0 15.5l10 3.75 3.75 10 3.75-10 10-3.75-10-3.75-3.75-10zM47.65 6.3h-2.1V21h2.1v-6.3h10.5V21h2.1V6.3h-2.1v6.3h-10.5V6.3zm26.246 2.1c1.155 0 2.1.945 2.1 2.1v4.2h-10.5v-4.2c0-1.155.945-2.1 2.1-2.1h6.3zm4.2 2.1c-.063-2.331-1.953-4.2-4.2-4.2h-6.3c-2.352 0-4.2 1.974-4.2 4.2V21h2.1v-4.2h10.5V21h2.1V10.5zm2.516 4.2h9.45v-2.1h-9.45v2.1zm16.7 6.3h3.99l5.355-10.5V6.3h-2.1v3.696l-4.536 8.904h-1.428l-4.536-8.904V6.3h-2.1v4.2L97.312 21zm11.87 0h2.1V6.3h-2.1V21zm15.754 0c2.352-.063 4.2-1.932 4.2-4.2 0-1.26-.483-2.31-1.428-3.15.945-.84 1.428-1.89 1.428-3.15 0-2.331-1.995-4.2-4.2-4.2h-10.5V21h10.5zm0-6.3c1.155 0 2.1.945 2.1 2.1 0 1.155-.945 2.1-2.1 2.1h-8.4v-4.2h8.4zm-8.4-6.3h8.4c1.155 0 2.1.945 2.1 2.1 0 1.155-.945 2.1-2.1 2.1h-8.4V8.4zm17.641 0h12.6V6.3h-14.7V21h14.7v-2.1h-12.6v-4.2h10.5v-2.1h-10.5V8.4z"/><defs><linearGradient id="ia" x1="1.309" y1="4.645" x2="29.549" y2="5.746" gradientUnits="userSpaceOnUse"><stop stop-color="#9600FF"/><stop offset=".602" stop-color="#AD6CFF"/></linearGradient></defs></svg><svg viewBox="0 0 858 51" id="noname" xmlns="http://www.w3.org/2000/svg"><path d="M674.122 34V16h2.65l8.863 13.375V16h2.65v18h-2.65l-8.863-13.387V34h-2.65zm16.401 0l5.85-18h3.763l5.85 18h-2.713l-5.387-16.425h.675L693.236 34h-2.713zm3.038-4.063v-2.45h9.4v2.45h-9.4zm14.418-3.9v-2.1h7.5v2.1h-7.5zM722.952 34l-5.85-18h2.712l4.988 15.363L729.852 16h2.712l-5.85 18h-3.762zm11.747 0V16h2.613v18h-2.613zm6.366 0V16h7.075c1.142 0 2.1.233 2.875.7.775.467 1.359 1.07 1.75 1.813a4.86 4.86 0 01.588 2.324c0 .992-.246 1.842-.738 2.55a3.616 3.616 0 01-1.962 1.45l-.025-.612c1.15.283 2.033.837 2.65 1.662.617.817.925 1.771.925 2.863 0 1.058-.213 1.98-.638 2.762a4.435 4.435 0 01-1.837 1.838c-.8.433-1.771.65-2.913.65h-7.75zm2.65-2.488h4.7c.592 0 1.121-.112 1.588-.337a2.611 2.611 0 001.112-.963c.275-.424.413-.929.413-1.512 0-.542-.121-1.03-.363-1.462a2.507 2.507 0 00-1.025-1.038c-.441-.258-.962-.387-1.562-.387h-4.863v5.7zm0-8.162h4.388c.483 0 .917-.096 1.3-.288.392-.2.7-.483.925-.85.233-.375.35-.825.35-1.35 0-.7-.233-1.274-.7-1.724-.467-.45-1.092-.676-1.875-.676h-4.388v4.888zM756.69 34V16h11.5v2.462h-8.887v5.05h7.387v2.463h-7.387v5.563h8.887V34h-11.5zm14.952 0v-2.762h2.763V34h-2.763zm14.216.375c-1.8 0-3.333-.392-4.6-1.175-1.266-.792-2.237-1.892-2.912-3.3-.667-1.408-1-3.042-1-4.9 0-1.858.333-3.492 1-4.9.675-1.408 1.646-2.504 2.912-3.288 1.267-.791 2.8-1.187 4.6-1.187 2.075 0 3.792.525 5.15 1.575 1.367 1.05 2.317 2.463 2.85 4.238l-2.65.712c-.35-1.258-.975-2.246-1.875-2.962-.891-.717-2.05-1.075-3.475-1.075-1.275 0-2.337.287-3.187.862-.85.575-1.492 1.38-1.925 2.412-.425 1.034-.638 2.238-.638 3.613-.008 1.375.2 2.58.625 3.613.434 1.033 1.075 1.837 1.925 2.412.859.575 1.925.863 3.2.863 1.425 0 2.584-.359 3.475-1.076.9-.725 1.525-1.712 1.875-2.962l2.65.712c-.533 1.775-1.483 3.188-2.85 4.238-1.358 1.05-3.075 1.575-5.15 1.575zm18.262 0c-1.8 0-3.333-.392-4.6-1.175-1.267-.792-2.238-1.892-2.913-3.3-.666-1.408-1-3.042-1-4.9 0-1.858.334-3.492 1-4.9.675-1.408 1.646-2.504 2.913-3.288 1.267-.791 2.8-1.187 4.6-1.187 1.792 0 3.321.396 4.587 1.188 1.275.783 2.246 1.879 2.913 3.287.667 1.408 1 3.042 1 4.9 0 1.858-.333 3.492-1 4.9-.667 1.408-1.638 2.508-2.913 3.3-1.266.783-2.795 1.175-4.587 1.175zm0-2.488c1.275.017 2.333-.262 3.175-.837.85-.583 1.487-1.392 1.912-2.425.425-1.042.638-2.25.638-3.625s-.213-2.575-.638-3.6c-.425-1.033-1.062-1.837-1.912-2.412-.842-.575-1.9-.867-3.175-.875-1.275-.017-2.338.262-3.188.837-.841.575-1.475 1.383-1.9 2.425-.425 1.042-.641 2.25-.65 3.625-.008 1.375.2 2.58.625 3.613.425 1.024 1.063 1.825 1.913 2.4.858.574 1.925.866 3.2.874zM815.113 34V16h2.363l6.525 13.538L830.488 16h2.388v17.987h-2.475V21.675L824.588 34h-1.187l-5.825-12.325V34h-2.463zM186.5 27c0-2.775-2.375-5-5-5H174a2.507 2.507 0 01-2.5-2.5c0-1.375 1.125-2.5 2.5-2.5h7.5c1.375 0 2.5 1.125 2.5 2.5h2.5c-.075-2.775-2.325-5-5-5H174c-2.8 0-5 2.35-5 5 0 2.825 2.325 5 5 5h7.5c1.375 0 2.5 1.125 2.5 2.5s-1.125 2.5-2.5 2.5H174a2.507 2.507 0 01-2.5-2.5H169c.075 2.825 2.275 5 5 5h7.5c2.8 0 5-2.35 5-5zm2.257 5h2.5V14.5h-2.5V32zm21.255-15v-2.5h-17.5V17h7.5v15h2.5V17h7.5zm3.755 0h15v-2.5h-17.5V32h17.5v-2.5h-15v-5h12.5V22h-12.5v-5zM26.288 27c0 1.1-.9 2-2 2h-6c-1.1 0-2-.9-2-2v-6c0-1.1.9-2 2-2h6c1.1 0 2 .9 2 2v6zm2-6c-.06-2.22-1.86-4-4-4h-6c-2.24 0-4 1.88-4 4v6c0 2.26 1.86 4 4 4h6c2.24 0 4-1.88 4-4v-6zm1.406 8h10v2h2v-2h2v-2h-2V17h-2l-10 10v2zm10-2h-7.18l7.18-7.18V27zm17.395 0c0 1.1-.9 2-2 2h-6c-1.1 0-2-.9-2-2v-6c0-1.1.9-2 2-2h6c1.1 0 2 .9 2 2v6zm2-6c-.06-2.22-1.86-4-4-4h-6c-2.24 0-4 1.88-4 4v6c0 2.26 1.86 4 4 4h6c2.24 0 4-1.88 4-4v-6zm7.606 4h4c1.1 0 2 .9 2 2s-.9 2-2 2h-6c-1.1 0-2-.9-2-2h-2c.06 2.26 1.82 4 4 4h6c2.24 0 4-1.88 4-4 0-1.2-.46-2.2-1.36-3 .9-.8 1.36-1.8 1.36-3 0-2.22-1.9-4-4-4h-6c-2.24 0-4 1.88-4 4h2c0-1.1.9-2 2-2h6c1.1 0 2 .9 2 2s-.9 2-2 2h-4v2zM78.3 28c0-1.1.9-2 2-2h6c2.24 0 4-1.88 4-4v-1c0-2.22-1.9-4-4-4h-6c-2.24 0-4 1.88-4 4h2c0-1.1.9-2 2-2h6c1.1 0 2 .9 2 2v1c0 1.1-.9 2-2 2h-6c-2.24 0-4 1.88-4 4v3h14v-2h-12v-1zm25.605-1c0 1.1-.9 2-2 2h-6c-1.1 0-2-.9-2-2v-6c0-1.1.9-2 2-2h6c1.1 0 2 .9 2 2v6zm2-6c-.06-2.22-1.86-4-4-4h-6c-2.24 0-4 1.88-4 4v6c0 2.26 1.86 4 4 4h6c2.24 0 4-1.88 4-4v-6zm13.606 6c0 1.1-.9 2-2 2h-6c-1.1 0-2-.9-2-2v-6c0-1.1.9-2 2-2h6c1.1 0 2 .9 2 2v6zm2-6c-.06-2.22-1.86-4-4-4h-6c-2.24 0-4 1.88-4 4v6c0 2.26 1.86 4 4 4h6c2.24 0 4-1.88 4-4v-6zm1.405 8h10v2h2v-2h2v-2h-2V17h-2l-10 10v2zm10-2h-7.18l7.18-7.18V27z"/><path d="M.6.6h856.8v48.8H.6V.6z"/><path d="M647 .162h2v50h-2zM563 1h2v49h-2zM150 .162h2v50h-2zM630 25c0 3.653-2.473 7.13-6.837 9.75C618.819 37.354 612.753 39 606 39s-12.819-1.645-17.163-4.25C584.473 32.13 582 28.652 582 25c0-3.653 2.473-7.13 6.837-9.75C593.181 12.646 599.247 11 606 11s12.819 1.645 17.163 4.25C627.527 17.87 630 21.348 630 25z"/><path d="M622 25c0 7.618-7.042 14-16 14s-16-6.382-16-14 7.042-14 16-14 16 6.382 16 14z"/><path d="M613.999 25c0 3.992-.973 7.558-2.494 10.092-1.532 2.554-3.51 3.908-5.506 3.908-1.996 0-3.974-1.354-5.506-3.908-1.521-2.534-2.494-6.1-2.494-10.092 0-3.992.973-7.558 2.494-10.092 1.532-2.554 3.51-3.908 5.506-3.908 1.996 0 3.974 1.354 5.506 3.908 1.521 2.534 2.494 6.1 2.494 10.092z"/><path d="M604.999 11h2v28h-2z"/><path d="M582 23.5s9.5 3 24 3 24-3 24-3"/></svg><svg viewBox="0 0 1402 164" id="text" xmlns="http://www.w3.org/2000/svg"><path d="M19.24.2C8.488.488.04 9.032.04 19.4v28.8c0 10.848 8.928 19.2 19.2 19.2h28.8c10.752 0 19.2-9.024 19.2-19.2h-9.6c0 5.28-4.32 9.6-9.6 9.6h-28.8c-5.28 0-9.6-4.32-9.6-9.6V19.4c0-5.28 4.32-9.6 9.6-9.6h28.8c5.28 0 9.6 4.32 9.6 9.6h9.6C66.952 8.744 58.312.2 48.04.2h-28.8zm74.835 19.2c0-5.28 4.32-9.6 9.6-9.6h38.4v48h-48V19.4zm-19.2 48h86.4v-9.6h-9.6V.2h-48c-10.752 0-19.2 9.024-19.2 19.2v38.4h-9.6v9.6zM180.513 9.8h57.6V.2h-67.2v67.2h67.2v-9.6h-57.6V38.6h48V29h-48V9.8zM269.819.2c-10.752.288-19.2 8.832-19.2 19.2v48h9.6v-48c0-5.28 4.32-9.6 9.6-9.6h38.4v57.6h9.6V.2h-48zM380.2 9.8c5.28 0 9.6 4.32 9.6 9.6v19.2h-48V19.4c0-5.28 4.32-9.6 9.6-9.6h28.8zm19.2 9.6C399.112 8.744 390.472.2 380.2.2h-28.8c-10.752 0-19.2 9.024-19.2 19.2v48h9.6V48.2h48v19.2h9.6v-48zm23.981-9.6h57.6V.2h-67.2v67.2h67.2v-9.6h-57.6V38.6h48V29h-48V9.8zm108.507 49.152l28.8-41.568V67.4h9.6V.2h-9.6l-28.8 41.568L503.088.2h-9.6v67.2h9.6V17.384l28.8 41.568zM675.963 67.4c10.752-.288 19.2-8.832 19.2-19.2 0-5.76-2.208-10.56-6.528-14.4 4.32-3.84 6.528-8.64 6.528-14.4 0-10.656-9.12-19.2-19.2-19.2h-48v67.2h48zm0-28.8c5.28 0 9.6 4.32 9.6 9.6 0 5.28-4.32 9.6-9.6 9.6h-38.4V38.6h38.4zm-38.4-28.8h38.4c5.28 0 9.6 4.32 9.6 9.6 0 5.28-4.32 9.6-9.6 9.6h-38.4V9.8zm119.043 0c5.28 0 9.6 4.32 9.6 9.6v19.2h-48V19.4c0-5.28 4.32-9.6 9.6-9.6h28.8zm19.2 9.6c-.288-10.656-8.928-19.2-19.2-19.2h-28.8c-10.752 0-19.2 9.024-19.2 19.2v48h9.6V48.2h48v19.2h9.6v-48zM799.788.2h-9.6v67.2h86.4V.2h-9.6v57.6h-28.8V.2h-9.6v57.6h-28.8V.2zm192.037 48c0 5.28-4.32 9.6-9.6 9.6h-38.4V35.432h38.4c5.28 0 9.6 4.32 9.6 9.6V48.2zm9.605-3.168c-.29-10.656-8.933-19.2-19.205-19.2h-38.4V9.8h48V.2h-57.6v67.2h48c10.752 0 19.205-9.024 19.205-19.2v-3.168zm12.5 22.368h9.6l48-54.24V67.4h9.6V.2h-9.6l-48 53.28V.2h-9.6v67.2zm108.46-28.8h19.2c5.28 0 9.6 4.32 9.6 9.6 0 5.28-4.32 9.6-9.6 9.6h-28.8c-5.28 0-9.6-4.32-9.6-9.6h-9.6c.29 10.848 8.74 19.2 19.2 19.2h28.8c10.75 0 19.2-9.024 19.2-19.2 0-5.76-2.21-10.56-6.53-14.4 4.32-3.84 6.53-8.64 6.53-14.4 0-10.656-9.12-19.2-19.2-19.2h-28.8c-10.75 0-19.2 9.024-19.2 19.2h9.6c0-5.28 4.32-9.6 9.6-9.6h28.8c5.28 0 9.6 4.32 9.6 9.6 0 5.28-4.32 9.6-9.6 9.6h-19.2v9.6zm61.4-38.4h-9.6v67.2h9.6V38.6h48v28.8h9.6V.2h-9.6V29h-48V.2zm81.58 9.6h57.6V.2h-67.2v67.2h67.2v-9.6h-57.6V38.6h48V29h-48V9.8zm88.35-9.6c-10.76.288-19.2 8.832-19.2 19.2v28.8c0 10.848 8.92 19.2 19.2 19.2h28.8c10.75 0 19.2-9.024 19.2-19.2h-9.6c0 5.28-4.32 9.6-9.6 9.6h-28.8c-5.28 0-9.6-4.32-9.6-9.6V19.4c0-5.28 4.32-9.6 9.6-9.6h28.8c5.28 0 9.6 4.32 9.6 9.6h9.6c-.29-10.656-8.93-19.2-19.2-19.2h-28.8zM20.2 96.2C9.448 96.488 1 105.032 1 115.4v48h9.6v-48c0-5.28 4.32-9.6 9.6-9.6h38.4v57.6h9.6V96.2h-48zm82.541 57.6c-5.28 0-9.6-4.32-9.6-9.6h-9.6c.288 10.848 8.736 19.2 19.2 19.2h26.88c10.752 0 19.2-9.024 19.2-19.2v-48h-9.6V125h-38.4c-5.28 0-9.6-4.32-9.6-9.6V96.2h-9.6v19.2c0 10.848 8.928 19.2 19.2 19.2h38.4v9.6c0 5.28-4.32 9.6-9.6 9.6h-26.88zm78.724-24.096c-5.28 0-9.6-4.32-9.6-9.6V96.2h-9.6v23.904c0 10.848 8.928 19.2 19.2 19.2h38.4V163.4h9.6V96.2h-9.6v33.504h-38.4zM253.469 96.2h-9.6v67.2h86.4V96.2h-9.6v57.6h-28.8V96.2h-9.6v57.6h-28.8V96.2zm100.8 9.6h57.6v-9.6h-67.2v67.2h67.2v-9.6h-57.6v-19.2h48V125h-48v-19.2zm180.544-9.6h-13.536l-28.8 28.8h-15.264V96.2h-9.6v67.2h9.6v-28.8h15.264l28.8 28.8h13.536l-33.6-33.6 33.6-33.6zm62.396 48c0 5.28-4.32 9.6-9.6 9.6h-28.8c-5.28 0-9.6-4.32-9.6-9.6v-28.8c0-5.28 4.32-9.6 9.6-9.6h28.8c5.28 0 9.6 4.32 9.6 9.6v28.8zm9.6-28.8c0-10.464-9.024-19.2-19.2-19.2h-28.8c-10.56 0-19.2 8.64-19.2 19.2v28.8c0 10.656 8.544 19.2 19.2 19.2h28.8c10.56 0 19.2-8.64 19.2-19.2v-28.8zm23.066-19.2h-9.6v67.2h9.6v-28.8h48v28.8h9.6V96.2h-9.6V125h-48V96.2zm139.181 0H755.52l-28.8 28.8h-15.264V96.2h-9.6v67.2h9.6v-28.8h15.264l28.8 28.8h13.536l-33.6-33.6 33.6-33.6zm29.76 57.6c-5.28 0-9.6-4.32-9.6-9.6h-9.6c.288 10.848 8.736 19.2 19.2 19.2h26.88c10.752 0 19.2-9.024 19.2-19.2v-48h-9.6V125h-38.4c-5.28 0-9.6-4.32-9.6-9.6V96.2h-9.6v19.2c0 10.848 8.928 19.2 19.2 19.2h38.4v9.6c0 5.28-4.32 9.6-9.6 9.6h-26.88zM916.9 125c0 5.28-4.32 9.6-9.6 9.6h-38.4v-28.8h38.4c5.28 0 9.6 4.32 9.6 9.6v9.6zm9.6-9.6c-.288-10.656-8.928-19.2-19.2-19.2h-48v67.2h9.6v-19.2h38.4c10.752 0 19.2-9.024 19.2-19.2v-9.6zm22.106-9.6h57.604v-9.6h-67.204v67.2h67.204v-9.6h-57.604v-19.2h48V125h-48v-19.2zm79.704-9.6h-9.6v67.2h9.6v-28.8h48v28.8h9.6V96.2h-9.6V125h-48V96.2zm134.38 9.6v-9.6h-67.2v9.6h28.8v57.6h9.6v-57.6h28.8zm64.39 38.4c0 5.28-4.32 9.6-9.6 9.6h-28.8c-5.28 0-9.6-4.32-9.6-9.6v-28.8c0-5.28 4.32-9.6 9.6-9.6h28.8c5.28 0 9.6 4.32 9.6 9.6v28.8zm9.6-28.8c0-10.464-9.03-19.2-19.2-19.2h-28.8c-10.56 0-19.2 8.64-19.2 19.2v28.8c0 10.656 8.54 19.2 19.2 19.2h28.8c10.56 0 19.2-8.64 19.2-19.2v-28.8zm61.46 48c10.76-.288 19.2-8.832 19.2-19.2 0-5.76-2.2-10.56-6.52-14.4 4.32-3.84 6.52-8.64 6.52-14.4 0-10.656-9.12-19.2-19.2-19.2h-48v67.2h48zm0-28.8c5.28 0 9.6 4.32 9.6 9.6 0 5.28-4.32 9.6-9.6 9.6h-38.4v-19.2h38.4zm-38.4-28.8h38.4c5.28 0 9.6 4.32 9.6 9.6 0 5.28-4.32 9.6-9.6 9.6h-38.4v-19.2zm95.05 57.6h9.6v-9.6h-9.6v9.6zm28.8-48c0 5.28-4.32 9.6-9.6 9.6-10.75 0-19.2 9.024-19.2 19.2h9.6c0-5.28 4.32-9.6 9.6-9.6 10.75 0 19.2-9.024 19.2-19.2 0-10.656-9.12-19.2-19.2-19.2h-28.8c-10.75 0-19.2 9.024-19.2 19.2h9.6c0-5.28 4.32-9.6 9.6-9.6h28.8c5.28 0 9.6 4.32 9.6 9.6z"/></svg><svg viewBox="0 0 350 350" id="text-btn" xmlns="http://www.w3.org/2000/svg"><ellipse cx="174.856" cy="174.507" rx="135.973" ry="135.613"/><path d="M173.786 144.571l1.19-3.971 1.189 3.971a43.63 43.63 0 0029.272 29.277l3.964 1.188-3.964 1.188a43.632 43.632 0 00-29.272 29.277l-1.189 3.971-1.19-3.971a43.63 43.63 0 00-29.271-29.277l-3.965-1.188 3.965-1.188a43.629 43.629 0 0029.271-29.277zM157.881 325.786c1.255.15 2.398.496 3.43 1.037a8.715 8.715 0 012.575 2.12 8.78 8.78 0 011.515 2.911c.306 1.084.386 2.238.24 3.461-.145 1.224-.493 2.318-1.043 3.284a8.417 8.417 0 01-2.156 2.474 8.196 8.196 0 01-3.001 1.455c-1.115.303-2.309.378-3.58.227-1.255-.15-2.389-.503-3.402-1.058a8.137 8.137 0 01-2.555-2.093 7.928 7.928 0 01-1.514-2.912c-.322-1.085-.411-2.24-.265-3.463.146-1.224.502-2.325 1.07-3.305a7.946 7.946 0 012.156-2.474 8.422 8.422 0 012.977-1.458c1.114-.287 2.298-.355 3.553-.206zm-.187 1.573c-1.001-.119-1.942-.062-2.824.172-.9.247-1.696.643-2.39 1.189a6.892 6.892 0 00-1.738 2.017c-.45.8-.734 1.701-.853 2.702-.12 1.001-.054 1.935.198 2.803a6.543 6.543 0 001.216 2.368 6.218 6.218 0 002.044 1.718c.8.45 1.701.735 2.702.854 1 .119 1.951.055 2.85-.192a6.482 6.482 0 002.413-1.187 7.06 7.06 0 001.739-2.017c.448-.784.731-1.677.851-2.678a7.12 7.12 0 00-.199-2.803 7.366 7.366 0 00-1.213-2.393 6.966 6.966 0 00-2.067-1.72 7.7 7.7 0 00-2.729-.833zm-19.222-4.819l-4.633 16.149-11.811-3.39.417-1.454 10.127 2.907 1.516-5.283-5.283-1.516c-1.907-.548-3.24-1.355-3.999-2.422-.78-1.056-.953-2.337-.521-3.844.446-1.554 1.326-2.591 2.641-3.113 1.299-.526 2.949-.502 4.948.072l6.598 1.894zm-2.075.878l-4.89-1.404c-1.492-.428-2.696-.466-3.613-.113-.937.363-1.564 1.099-1.882 2.206-.63 2.2.561 3.732 3.576 4.597l4.89 1.404 1.919-6.69zm-25.333-10.773c1.156.511 2.14 1.174 2.952 1.988a8.425 8.425 0 011.818 2.773 8.405 8.405 0 01.594 3.228c-.026 1.126-.287 2.252-.786 3.379-.498 1.127-1.155 2.079-1.97 2.855a8.4 8.4 0 01-2.787 1.733 8.386 8.386 0 01-3.286.488c-1.155-.038-2.31-.313-3.466-.825a9.405 9.405 0 01-2.886-1.959 6.778 6.778 0 01-1.743-2.765l1.488-.576c.344.923.835 1.691 1.473 2.306a7.427 7.427 0 002.264 1.526 7.356 7.356 0 002.782.653c.926.042 1.811-.1 2.655-.426a6.863 6.863 0 002.275-1.408c.659-.618 1.192-1.389 1.599-2.311.408-.922.622-1.841.643-2.759a7.23 7.23 0 00-.49-2.632 6.949 6.949 0 00-1.471-2.251 7.676 7.676 0 00-2.364-1.597 7.413 7.413 0 00-2.653-.649c-.89-.044-1.792.117-2.706.483l-.575-1.488a6.985 6.985 0 013.227-.593c1.149.053 2.286.329 3.413.827zm-11.722-3.955c-.531-.697-1.146-1.165-1.844-1.402-.706-.224-1.569-.084-2.587.42l-1.37.683-.256.098-11.817 7.053-1.517-.923 13.827-8.05c.944-.568 1.842-.874 2.693-.918.837-.052 1.599.112 2.285.492.673.372 1.261.898 1.764 1.579l-1.178.968zm-5.18-1.55l-.946 15.55-1.62-.985.985-13.813 1.58-.752zm-19.899-17.229l-9.106 11.186 6.233 5.078 2.688-3.073a63.432 63.432 0 012.489-2.678 20.723 20.723 0 012.342-2.116c.737-.576 1.43-.971 2.079-1.185.636-.225 1.208-.192 1.715.097l1.28 1.507c-.476-.429-1.032-.583-1.667-.461-.648.112-1.342.445-2.081.998-.752.543-1.55 1.245-2.395 2.105a66.353 66.353 0 00-2.64 2.864l-3.588 4.103-8.783-7.154 10.075-12.377 1.359 1.106zm13.553 5.097l-3.368 4.098-13.937-11.353 3.349-4.114 1.284 1.046-2.379 2.922 11.37 9.262 2.397-2.907 1.284 1.046zm-20.809-13.059l-12.402 11.332-1.182-1.294 10.277-9.389-17.527 1.449-1.084-1.187 12.403-11.332 1.18 1.294-10.258 9.373 17.509-1.433 1.084 1.187zm-16.671-20.236l-12.902 9.022.118-.668 3.657 5.233-1.26.88-7.766-11.115 1.259-.88 3.642 5.213-.654-.099 12.903-9.022 1.003 1.436zm-19.99-12.31c-.934-1.75-1.25-3.295-.95-4.635.28-1.346 1.188-2.43 2.727-3.251 1.595-.852 3.072-1.006 4.432-.462 1.346.551 2.508 1.744 3.487 3.579l3.141 5.887-14.82 7.912-.825-1.546 5.293-2.826-2.485-4.658zm8.47-4.059c-.73-1.37-1.588-2.245-2.571-2.627-.991-.396-2.072-.281-3.244.344-1.171.626-1.844 1.438-2.018 2.438-.188 1.007.087 2.202.825 3.586l2.293 4.298 7.008-3.741-2.293-4.298zm-8.621-24.262l-16.201 4.445-3.738-13.633 16.201-4.445.463 1.689-15.183 4.166.343-.567 3.052 11.133-.583-.312 15.183-4.166.463 1.69zm-5.27-22.259L8.24 200.785l-.734-6.245c-.166-1.414-.078-2.657.263-3.728.325-1.069.885-1.925 1.68-2.566.777-.655 1.769-1.054 2.976-1.196 1.176-.138 2.226.02 3.15.476.905.441 1.648 1.143 2.229 2.106.58.962.953 2.151 1.12 3.565l.619 5.268-.927-.689 6.102-.717.207 1.764zm-6.166-1.063l-.765.887-.614-5.22c-.196-1.668-.702-2.89-1.518-3.664-.834-.788-1.91-1.104-3.23-.949-1.334.157-2.316.716-2.944 1.676-.63.944-.847 2.25-.65 3.919l.613 5.22-.927-.689 10.035-1.18zm4.683-29.102c-.038 1.264-.282 2.433-.73 3.508a8.726 8.726 0 01-1.884 2.753 8.776 8.776 0 01-2.767 1.765c-1.053.401-2.195.583-3.426.546-1.232-.038-2.353-.287-3.363-.75a8.407 8.407 0 01-2.655-1.929 8.2 8.2 0 01-1.714-2.86c-.4-1.085-.58-2.267-.541-3.546.038-1.264.29-2.425.754-3.483a8.127 8.127 0 011.86-2.729 7.926 7.926 0 012.766-1.766c1.053-.417 2.195-.606 3.427-.569 1.231.037 2.36.295 3.386.774a7.941 7.941 0 012.654 1.928 8.44 8.44 0 011.715 2.837c.384 1.084.556 2.258.518 3.521zm-1.583-.047c.03-1.008-.11-1.94-.42-2.798a6.677 6.677 0 00-1.395-2.275 6.893 6.893 0 00-2.162-1.554c-.837-.377-1.76-.581-2.767-.611-1.008-.031-1.933.118-2.775.445-.858.326-1.609.8-2.252 1.421a6.22 6.22 0 00-1.53 2.187c-.378.837-.582 1.759-.613 2.766a7.37 7.37 0 00.443 2.823c.31.874.775 1.64 1.395 2.299a7.084 7.084 0 002.162 1.554c.821.376 1.735.58 2.743.61a7.113 7.113 0 002.774-.445 7.35 7.35 0 002.277-1.42 6.956 6.956 0 001.531-2.211 7.678 7.678 0 00.589-2.791zm-6.225-17.516l1.507-8.751 1.49.256-1.507 8.752-1.49-.257zm7.672 1.127l1.714-9.958 1.514.261-2.015 11.708-16.556-2.852 1.954-11.353 1.514.26-1.653 9.603 13.528 2.331zm8.917-29.31l-9.924 3.652-.393-1.633 10.928-3.965-.611 1.946zm-3.44 10.969l-16.03-5.031.518-1.649 16.028 5.031-.517 1.649zm-6.992-3.452l-1.488-.467 1.573-5.015 1.488.467-1.573 5.015zm1.142-5.326l-.763 1.471-6.048-8.464.575-1.832 6.236 8.825zm13.834-12.892l-14.35-6.477.635-.24-2.625 5.819-1.4-.632 5.575-12.36 1.4.632-2.615 5.797-.25-.613 14.35 6.477-.72 1.597zm16.955-28.319c-.764 1.007-1.641 1.817-2.63 2.432a8.706 8.706 0 01-3.132 1.146 8.772 8.772 0 01-3.277-.17c-1.09-.285-2.124-.8-3.105-1.546-.981-.745-1.748-1.6-2.302-2.564a8.416 8.416 0 01-1.041-3.112 8.21 8.21 0 01.266-3.326c.304-1.115.843-2.182 1.618-3.201.764-1.007 1.643-1.806 2.635-2.398a8.13 8.13 0 013.098-1.142 7.934 7.934 0 013.277.17c1.1.272 2.139.781 3.12 1.527.98.745 1.75 1.611 2.306 2.597a7.941 7.941 0 011.041 3.113 8.438 8.438 0 01-.25 3.306c-.318 1.106-.86 2.162-1.624 3.168zm-1.26-.959c.61-.802 1.037-1.643 1.282-2.521a6.684 6.684 0 00.185-2.664 6.894 6.894 0 00-.858-2.52c-.462-.794-1.094-1.496-1.897-2.106-.802-.61-1.64-1.027-2.516-1.25A6.559 6.559 0 0046 71.721a6.225 6.225 0 00-2.516.891c-.793.462-1.494 1.095-2.104 1.897a7.37 7.37 0 00-1.279 2.556 6.47 6.47 0 00-.199 2.682c.12.875.405 1.715.858 2.521.45.784 1.075 1.481 1.878 2.091.79.6 1.628 1.017 2.516 1.25.898.22 1.79.276 2.677.166a6.949 6.949 0 002.53-.91 7.68 7.68 0 002.1-1.931zM66.35 68.794L54.777 56.615l8.905-8.467 1.042 1.096-7.636 7.26 3.786 3.984 3.983-3.787c1.438-1.367 2.809-2.108 4.113-2.222 1.305-.136 2.497.364 3.577 1.5 1.113 1.172 1.562 2.456 1.345 3.855-.205 1.387-1.06 2.797-2.568 4.23l-4.974 4.73zm.294-2.234l3.687-3.506c1.125-1.07 1.767-2.089 1.928-3.058.16-.992-.156-1.906-.95-2.74-1.575-1.66-3.5-1.408-5.772.753l-3.687 3.506 4.794 5.045zm22.121-16.39c-1.027.737-2.097 1.25-3.21 1.538a8.433 8.433 0 01-3.31.163 8.41 8.41 0 01-3.083-1.124c-.958-.592-1.796-1.389-2.515-2.39-.718-1-1.206-2.049-1.462-3.145a8.417 8.417 0 01-.082-3.282 8.395 8.395 0 011.244-3.081c.619-.977 1.441-1.834 2.468-2.572a9.401 9.401 0 013.15-1.496 6.78 6.78 0 013.266-.102l-.257 1.575c-.97-.17-1.88-.136-2.734.103a7.423 7.423 0 00-2.462 1.179 7.373 7.373 0 00-1.972 2.068 6.47 6.47 0 00-.978 2.505 6.87 6.87 0 00.06 2.676c.2.881.594 1.731 1.182 2.55.588.819 1.272 1.47 2.053 1.953a7.23 7.23 0 002.516.91 6.941 6.941 0 002.686-.127 7.678 7.678 0 002.574-1.23 7.424 7.424 0 001.903-1.959c.488-.745.807-1.605.955-2.578l1.574.258a7.007 7.007 0 01-1.124 3.084 9.47 9.47 0 01-2.442 2.524zm9.346-8.108c.87-.104 1.585-.397 2.143-.88.551-.495.867-1.31.949-2.443l.105-1.528.046-.27-.092-13.765 1.565-.84-.068 16.003c.01 1.102-.181 2.03-.574 2.787-.379.749-.906 1.323-1.581 1.722-.662.392-1.413.632-2.255.721l-.238-1.507zm3.962-3.682l-12.924-8.694 1.67-.897 11.407 7.847-.153 1.744zm24.933-8.433l-5.026-13.52-7.536 2.803 1.287 3.875a62.827 62.827 0 011.046 3.503c.312 1.113.524 2.144.638 3.092.123.927.112 1.725-.032 2.393-.129.663-.447 1.14-.954 1.43l-1.947.34c.611-.193 1.025-.594 1.242-1.204.232-.616.297-1.382.195-2.3-.088-.924-.288-1.968-.601-3.131a66.64 66.64 0 00-1.13-3.728l-1.719-5.174 10.617-3.95 5.562 14.96-1.642.61zm-11.261 9.106l-1.825-4.98 16.847-6.268 1.849 4.971-1.552.578-1.313-3.532-13.744 5.113 1.291 3.54-1.553.578zm21.796-11.333l-3.482-16.435 1.714-.364 2.885 13.618 7.633-15.848 1.573-.333 3.482 16.435-1.714.364-2.88-13.595-7.638 15.824-1.573.334zm25.889-4.126l-1.238-15.695.516.44-6.364.503-.121-1.532 13.518-1.067.121 1.532-6.341.5.417-.514 1.238 15.695-1.746.138zm20.742-10.997c1.983.081 3.475.591 4.478 1.53 1.019.922 1.492 2.255 1.421 3.997-.074 1.807-.69 3.159-1.847 4.056-1.157.88-2.775 1.278-4.853 1.193l-6.667-.276.688-16.785 1.75.072-.245 5.995 5.275.218zm-.791 9.359c1.55.064 2.74-.231 3.567-.886.843-.654 1.292-1.644 1.347-2.97.054-1.328-.306-2.32-1.079-2.976-.774-.672-1.944-1.04-3.51-1.106l-4.868-.2-.325 7.937 4.868.2zm25.276 4.857l4.376-16.22 13.647 3.685-4.376 16.22-1.691-.457 4.101-15.2.315.582-11.145-3.009.565-.345-4.101 15.2-1.691-.456zm21.854 6.732l6.76-15.38 5.756 2.532c1.304.574 2.331 1.279 3.081 2.116.757.823 1.211 1.739 1.361 2.749.172 1.001.013 2.059-.477 3.172-.476 1.084-1.144 1.909-2.005 2.474-.839.558-1.821.842-2.945.855-1.124.012-2.337-.268-3.641-.841l-4.855-2.136 1.063-.45-2.472 5.625-1.626-.716zm4.04-4.777l-.377-1.11 4.811 2.116c1.538.677 2.847.86 3.928.548 1.101-.32 1.919-1.087 2.454-2.303.54-1.23.556-2.36.047-3.388-.495-1.021-1.511-1.87-3.049-2.547l-4.811-2.116 1.063-.45-4.066 9.25zm22.708 18.782c-1.07-.673-1.955-1.475-2.654-2.407a8.717 8.717 0 01-1.419-3.02 8.78 8.78 0 01-.12-3.28c.188-1.11.61-2.187 1.265-3.23.656-1.042 1.44-1.882 2.35-2.52a8.415 8.415 0 013.008-1.31 8.204 8.204 0 013.335-.03c1.137.206 2.247.65 3.331 1.331 1.07.673 1.943 1.478 2.621 2.415a8.138 8.138 0 011.411 2.986 7.944 7.944 0 01.12 3.28c-.174 1.12-.589 2.2-1.245 3.243-.656 1.043-1.45 1.885-2.383 2.527a7.933 7.933 0 01-3.008 1.312 8.427 8.427 0 01-3.314.041c-1.129-.219-2.228-.665-3.298-1.338zm.843-1.34c.853.536 1.728.888 2.625 1.055a6.677 6.677 0 002.668-.05 6.894 6.894 0 002.435-1.077c.749-.53 1.392-1.222 1.929-2.076.536-.853.877-1.726 1.022-2.617a6.58 6.58 0 00-.084-2.662 6.245 6.245 0 00-1.11-2.428c-.53-.75-1.222-1.393-2.075-1.93a7.376 7.376 0 00-2.658-1.048 6.466 6.466 0 00-2.689.038 7.066 7.066 0 00-2.435 1.076c-.74.517-1.379 1.202-1.916 2.056a7.139 7.139 0 00-1.022 2.617 7.377 7.377 0 00.071 2.682c.21.87.587 1.683 1.131 2.441a7.679 7.679 0 002.108 1.922zm18.249 3.509l6.781 5.734-.976 1.155-6.781-5.734.976-1.155zm-4.857 6.044l7.715 6.525-.992 1.173-9.071-7.671 10.845-12.831 8.796 7.439-.992 1.173-7.44-6.292-8.861 10.484zm20.746 22.545l1.879-10.409 1.607.489-2.118 11.433-1.368-1.513zm-7.712-8.526l12.456-11.273 1.16 1.281-12.457 11.274-1.159-1.282zm6.517-4.28l1.157-1.046 3.526 3.898-1.157 1.047-3.526-3.899zm4.012 3.685l-.881-1.404 10.359-.926 1.288 1.424-10.766.906zm4.098 18.46l12.853-9.094-.115.67-3.686-5.213 1.254-.887 7.829 11.072-1.254.887-3.672-5.193.655.095-12.852 9.093-1.012-1.43zm15.814 28.973c-.48-1.169-.735-2.336-.763-3.5a8.717 8.717 0 01.599-3.282 8.76 8.76 0 011.807-2.74c.798-.795 1.766-1.426 2.906-1.894 1.139-.468 2.265-.697 3.376-.687a8.44 8.44 0 013.211.679 8.211 8.211 0 012.731 1.914c.807.828 1.453 1.833 1.939 3.018.48 1.169.724 2.332.731 3.487a8.136 8.136 0 01-.585 3.251 7.945 7.945 0 01-1.807 2.74c-.792.809-1.758 1.448-2.897 1.916-1.14.468-2.276.693-3.408.673a7.911 7.911 0 01-3.21-.679 8.44 8.44 0 01-2.723-1.891c-.791-.834-1.427-1.835-1.907-3.005zm1.465-.601c.383.932.89 1.727 1.523 2.384a6.688 6.688 0 002.202 1.508 6.896 6.896 0 002.607.538c.919.003 1.844-.187 2.776-.57.933-.383 1.717-.895 2.353-1.537a6.57 6.57 0 001.477-2.215 6.24 6.24 0 00.507-2.621c.003-.919-.186-1.844-.569-2.777a7.38 7.38 0 00-1.555-2.397 6.474 6.474 0 00-2.211-1.53 7.059 7.059 0 00-2.607-.538c-.904-.009-1.821.177-2.754.56a7.126 7.126 0 00-2.352 1.538 7.357 7.357 0 00-1.5 2.224c-.334.829-.5 1.71-.497 2.643.017.927.217 1.857.6 2.79zm5.146 19.138l16.362-3.811 2.785 11.968-1.472.343-2.389-10.262-5.352 1.247 1.245 5.353c.45 1.932.394 3.49-.169 4.672-.543 1.195-1.579 1.97-3.106 2.325-1.574.367-2.908.103-4.004-.792-1.091-.88-1.873-2.332-2.344-4.358l-1.556-6.685zm1.776 1.385l1.153 4.955c.352 1.512.905 2.582 1.659 3.212.774.641 1.722.831 2.844.57 2.228-.519 2.987-2.306 2.276-5.36l-1.153-4.956-6.779 1.579zm2.918 27.383c-.116-1.259-.016-2.441.3-3.546a8.429 8.429 0 011.537-2.938 8.43 8.43 0 012.531-2.089c.996-.525 2.108-.844 3.335-.957 1.227-.113 2.378-.002 3.453.332a8.433 8.433 0 012.87 1.592 8.382 8.382 0 012.025 2.633c.529 1.028.851 2.172.967 3.43a9.414 9.414 0 01-.307 3.475 6.788 6.788 0 01-1.568 2.868l-1.227-1.02c.638-.75 1.071-1.553 1.297-2.409.243-.858.32-1.765.232-2.721a7.395 7.395 0 00-.783-2.747 6.472 6.472 0 00-1.665-2.113 6.872 6.872 0 00-2.337-1.303c-.861-.274-1.793-.365-2.797-.273-1.004.093-1.911.353-2.724.781a7.252 7.252 0 00-2.06 1.708 6.943 6.943 0 00-1.251 2.381 7.7 7.7 0 00-.245 2.843c.088.955.33 1.833.725 2.632.395.799.974 1.509 1.738 2.13l-1.02 1.226a6.99 6.99 0 01-2.088-2.531 9.436 9.436 0 01-.938-3.384zm2.251 12.168c-.351.804-.46 1.568-.328 2.293.149.727.691 1.412 1.627 2.056l1.264.865.209.177 11.913 6.893-.068 1.775-13.762-8.166c-.955-.549-1.659-1.184-2.112-1.906-.453-.706-.681-1.451-.683-2.236-.003-.768.171-1.538.521-2.309l1.419.558zm1.167 5.281l14.044-6.739-.072 1.895-12.546 5.859-1.426-1.015zm-5.366 25.773l14.203 2.516 1.401-7.917-3.992-.854a62.83 62.83 0 01-3.551-.872 20.817 20.817 0 01-2.988-1.017c-.862-.364-1.544-.777-2.047-1.24-.506-.447-.756-.963-.75-1.547l.693-1.851c-.143.625-.006 1.185.409 1.681.414.512 1.042.956 1.885 1.333.84.393 1.842.749 3.004 1.069 1.162.319 2.424.624 3.786.914l5.331 1.139-1.974 11.155-15.716-2.784.306-1.725zm-2.145-14.322l5.219.949-3.134 17.701-5.222-.925.288-1.631 3.711.657 2.556-14.439-3.706-.681.288-1.631zm-1.274 24.54l15.934 5.326-.555 1.662-13.202-4.413 9.795 14.611-.509 1.525-15.934-5.325.555-1.662 13.18 4.405-9.773-14.603.509-1.526zm-9.56 24.413l14.158 6.887-.642.221 2.791-5.741 1.381.672-5.928 12.195-1.381-.672 2.78-5.72.233.62-14.158-6.886.766-1.576zm-1.024 23.465c-1.075 1.668-2.27 2.697-3.587 3.085-1.311.411-2.7.145-4.166-.8-1.519-.98-2.373-2.196-2.559-3.649-.174-1.445.302-3.041 1.429-4.79l3.613-5.609 14.121 9.102-.949 1.473-5.043-3.251-2.859 4.439zm-7.667-5.427c-.84 1.305-1.188 2.48-1.043 3.525.136 1.059.763 1.948 1.879 2.668 1.116.719 2.153.912 3.111.577.971-.326 1.881-1.148 2.73-2.466l2.638-4.096-6.677-4.304-2.638 4.096zm-16.993 19.337l11.763 11.994-10.089 9.902-11.763-11.995 1.25-1.227 11.024 11.24-.661-.023 8.239-8.086.01.662-11.024-11.24 1.251-1.227zm-16.876 15.441l9.83 13.624-5.098 3.681c-1.154.834-2.282 1.362-3.384 1.585-1.093.236-2.112.163-3.059-.219-.95-.36-1.781-1.033-2.492-2.019-.693-.96-1.065-1.954-1.117-2.983-.055-1.006.197-1.997.756-2.972.558-.976 1.415-1.881 2.569-2.714l4.301-3.105-.151 1.144-3.595-4.982 1.44-1.04zm2.071 5.906l1.147.237-4.261 3.076c-1.362.984-2.183 2.021-2.462 3.11-.283 1.112-.035 2.207.742 3.284.786 1.089 1.751 1.675 2.895 1.757 1.132.091 2.378-.355 3.74-1.339l4.262-3.077-.151 1.145-5.912-8.193zm-27.693 10.07c1.122-.582 2.262-.938 3.419-1.07a8.716 8.716 0 013.321.307 8.737 8.737 0 012.888 1.558c.862.724 1.576 1.634 2.143 2.728.566 1.094.893 2.195.981 3.303a8.421 8.421 0 01-.394 3.258 8.204 8.204 0 01-1.665 2.891c-.753.877-1.698 1.609-2.834 2.198-1.123.582-2.259.928-3.409 1.037a8.13 8.13 0 01-3.289-.296 7.937 7.937 0 01-2.888-1.558c-.876-.717-1.597-1.623-2.164-2.717-.566-1.094-.89-2.206-.97-3.335a7.939 7.939 0 01.393-3.259 8.448 8.448 0 011.644-2.879c.761-.863 1.702-1.585 2.824-2.166zm.729 1.406c-.895.464-1.642 1.04-2.24 1.729a6.663 6.663 0 00-1.309 2.327 6.891 6.891 0 00-.306 2.645c.078.915.348 1.82.812 2.715.464.895 1.043 1.631 1.738 2.208a6.563 6.563 0 002.337 1.276 6.23 6.23 0 002.655.273c.914-.078 1.819-.348 2.714-.812a7.373 7.373 0 002.25-1.761 6.464 6.464 0 001.33-2.338 7.072 7.072 0 00.306-2.645c-.07-.901-.337-1.799-.801-2.694a7.115 7.115 0 00-1.738-2.208 7.345 7.345 0 00-2.347-1.297 6.944 6.944 0 00-2.677-.262 7.67 7.67 0 00-2.724.844zm-12.272 13.959l-8.378 2.942-.501-1.426 8.379-2.943.5 1.427zm-2.748-7.251l-9.533 3.348-.509-1.449 11.209-3.937 5.563 15.852-10.869 3.818-.508-1.45 9.193-3.229-4.546-12.953zm-29.942 6.47l8.019 6.893-1.235 1.138-8.782-7.618 1.998-.413zm11.257-2.331l3.404 16.451-1.692.351-3.404-16.452 1.692-.35zm.386 7.787l.316 1.528-5.147 1.066-.316-1.528 5.147-1.066zm-5.209 1.594l1.656-.049-4.451 9.402-1.88.389 4.675-9.742zm-17.987-5.818l1.325 15.688-.518-.438 6.361-.537.129 1.53-13.512 1.142-.129-1.53 6.337-.536-.414.517-1.324-15.688 1.745-.148z"/></svg><svg viewBox="0 0 1740 584" id="-VIBE_main" xmlns="http://www.w3.org/2000/svg"><path d="M.982 224h85.2v-84.9h139.5V224h84.9V.8h-84.9v78.9h-139.5V.8H.982V224zm521.122-91.8h-74.1l36.6-76.8 37.5 76.8zm44.7 91.8h93.3L543.404.8h-114.6L318.404 224h86.4l17.1-36h127.5l17.4 36zm78.604-117v55.8h99V107h-99zm297.354 117L1047.46.8h-88.498l-70.5 155.7-75-155.7h-96.6l112.8 223.2h113.1zM1141.16.8h-84.9V224h84.9V.8zm27.01 223.2h211.2c72.6 0 94.2-29.4 94.2-64.5v-3.6c0-39.3-31.5-52.8-51.3-57.3 14.7-3.3 38.4-16.2 38.4-43.8v-3.3c0-25.8-17.4-50.7-82.5-50.7h-210V224zm184.2-172.5c17.7 0 22.8 6.3 22.8 15.3v.6c0 8.4-5.1 15.6-22.8 15.6h-99V51.5h99zm5.4 81.6c21.9 0 26.4 9 26.4 18.3v.9c0 8.7-4.2 19.2-26.4 19.2h-104.4v-38.4h104.4zM1489.85.8V224h249.3v-55.8h-165.3v-30.6h159.6V83.3h-159.6V55.4h162.9V.8h-246.9zM294.977 584h83.1V444.8l78 139.2h43.5l78.3-139.2V584h84.3V360.8h-112.2l-69.6 125.4-68.4-125.4h-117V584zm578.836-91.8h-74.1l36.6-76.8 37.5 76.8zm44.7 91.8h93.297L895.113 360.8h-114.6L670.112 584h86.401l17.1-36h127.5l17.4 36zm185.877-223.2h-84.9V584h84.9V360.8zm27.01 0V584h84.6V448.7L1355.8 584h85.2V360.8h-84.6v126.9l-129.6-126.9h-95.4z" opacity=".14"/></svg><svg viewBox="0 0 102 15" id="" xmlns="http://www.w3.org/2000/svg"><path d="M2.65.3H.55V15h2.1V8.7h10.5V15h2.1V.3h-2.1v6.3H2.65V.3zm26.246 2.1c1.155 0 2.1.945 2.1 2.1v4.2h-10.5V4.5c0-1.155.945-2.1 2.1-2.1h6.3zm4.2 2.1c-.063-2.331-1.953-4.2-4.2-4.2h-6.3c-2.352 0-4.2 1.974-4.2 4.2V15h2.1v-4.2h10.5V15h2.1V4.5zm2.516 4.2h9.45V6.6h-9.45v2.1zm16.7 6.3h3.99l5.355-10.5V.3h-2.1v3.696L55.02 12.9h-1.428l-4.536-8.904V.3h-2.1v4.2L52.312 15zm11.87 0h2.1V.3h-2.1V15zm15.754 0c2.352-.063 4.2-1.932 4.2-4.2 0-1.26-.483-2.31-1.428-3.15.945-.84 1.428-1.89 1.428-3.15 0-2.331-1.995-4.2-4.2-4.2h-10.5V15h10.5zm0-6.3c1.155 0 2.1.945 2.1 2.1 0 1.155-.945 2.1-2.1 2.1h-8.4V8.7h8.4zm-8.4-6.3h8.4c1.155 0 2.1.945 2.1 2.1 0 1.155-.945 2.1-2.1 2.1h-8.4V2.4zm17.64 0h12.601V.3h-14.7V15h14.7v-2.1h-12.6V8.7h10.5V6.6h-10.5V2.4z"/></svg><svg viewBox="0 0 175 26" id="-vibe" xmlns="http://www.w3.org/2000/svg"><path d="M4.4.8H.8V26h3.6V15.2h18V26H26V.8h-3.6v10.8h-18V.8zm44.993 3.6c1.98 0 3.6 1.62 3.6 3.6v7.2h-18V8c0-1.98 1.62-3.6 3.6-3.6h10.8zm7.2 3.6c-.108-3.996-3.348-7.2-7.2-7.2h-10.8c-4.032 0-7.2 3.384-7.2 7.2v18h3.6v-7.2h18V26h3.6V8zm4.313 7.2h16.2v-3.6h-16.2v3.6zM89.534 26h6.84l9.18-18V.8h-3.6v6.336L94.178 22.4H91.73L83.954 7.136V.8h-3.6V8l9.18 18zm20.349 0h3.6V.8h-3.6V26zm27.007 0c4.032-.108 7.2-3.312 7.2-7.2 0-2.16-.828-3.96-2.448-5.4 1.62-1.44 2.448-3.24 2.448-5.4 0-3.996-3.42-7.2-7.2-7.2h-18V26h18zm0-10.8c1.98 0 3.6 1.62 3.6 3.6s-1.62 3.6-3.6 3.6h-14.4v-7.2h14.4zm-14.4-10.8h14.4c1.98 0 3.6 1.62 3.6 3.6s-1.62 3.6-3.6 3.6h-14.4V4.4zm30.241 0h21.6V.8h-25.2V26h25.2v-3.6h-21.6v-7.2h18v-3.6h-18V4.4z"/></svg></svg>